<svg xmlns="http://www.w3.org/2000/svg" viewBox="0 0 351.89 89.07"><defs><style>.cls-1{fill:#05bae5;}.cls-2{fill:#45b649;}.cls-3{fill:#41af4b;}.cls-4{fill:#fff;}.cls-5{fill:#d01481;}</style></defs><title>AtomMoleculeOrganism</title><g id="Layer_1" data-name="Layer 1"><g id="ssQjxD"><path class="cls-1" d="M59.3,78c-.78,2.27-1.47,4.47-2.28,6.63a24.39,24.39,0,0,1-5.71,9.16c-4.05,3.92-9.32,3.94-13.37,0A27,27,0,0,1,31.64,83c-.57-1.64-1.07-3.3-1.59-4.92-2.36.46-4.64,1-6.94,1.33a24.65,24.65,0,0,1-11.29-.57A8.94,8.94,0,0,1,5.64,68c1-4.38,3.36-8,6.19-11.32,1.1-1.31,2.26-2.58,3.46-3.95-.35-.4-.72-.82-1.1-1.23a42.8,42.8,0,0,1-6.9-9.36,15.71,15.71,0,0,1-1.87-6.45,8.69,8.69,0,0,1,6-8.92,19.07,19.07,0,0,1,8.79-.95c3.14.32,6.24,1,9.36,1.56l.47.1c.42-1.36.82-2.69,1.25-4a29.63,29.63,0,0,1,5.76-10.82c1.7-1.88,3.6-3.42,6.24-3.77a8.76,8.76,0,0,1,6.78,1.75,22.27,22.27,0,0,1,6.75,9.75c.91,2.31,1.64,4.68,2.47,7.07,1.63-.35,3.29-.75,5-1.06a27.79,27.79,0,0,1,12.57.08c5.35,1.44,8,6,6.72,11.38a25.71,25.71,0,0,1-5.64,10.37c-1.25,1.52-2.58,3-3.91,4.51,1.28,1.48,2.6,2.94,3.86,4.45a26,26,0,0,1,5.51,9.77c1,3.69.58,7-2.27,9.81-1.83,1.79-4.18,2.39-6.61,2.74-4.85.69-9.56-.12-14.25-1.28ZM32.86,52.56h0c0,2,0,4,0,6a1.33,1.33,0,0,0,.76,1.3q5.18,3,10.31,6a1.19,1.19,0,0,0,1.35,0q5.18-3,10.38-6a1.14,1.14,0,0,0,.67-1.15q0-6,0-11.92a1.19,1.19,0,0,0-.67-1.16q-5.2-3-10.38-6a1.23,1.23,0,0,0-1.41,0c-3.41,2-6.81,4-10.24,5.93A1.47,1.47,0,0,0,32.86,47C32.87,48.85,32.86,50.7,32.86,52.56Zm2.62,23.8c.61,1.84,1.17,3.69,1.84,5.5a20.09,20.09,0,0,0,4.91,8,3.22,3.22,0,0,0,5-.12,19.5,19.5,0,0,0,2-2.37c2.32-3.32,3.44-7.16,4.59-11l-8.72-3.56a1.08,1.08,0,0,0-.73,0C41.41,73.93,38.51,75.12,35.48,76.36ZM53.92,29c-1-2.73-2-5.45-3.11-8.1a15.9,15.9,0,0,0-3.66-5.24,3.32,3.32,0,0,0-5.07,0c-3.7,3.72-5.12,8.54-6.56,13.39,3,1.21,5.89,2.39,8.8,3.55a1,1,0,0,0,.73,0C47.93,31.44,50.81,30.26,53.92,29ZM19.66,56.71c-.93,1-1.85,1.91-2.73,2.88a25,25,0,0,0-5.54,9c-.78,2.34.13,4.17,2.47,4.87a16.9,16.9,0,0,0,7.71.41c2.39-.4,4.75-.88,7.12-1.32a5.93,5.93,0,0,0,0-.74c-.35-2.57-.76-5.14-1-7.72a2.64,2.64,0,0,0-1.43-2.31,9.7,9.7,0,0,1-1.45-1ZM28.77,33c-1.86-.4-3.63-.84-5.42-1.15a20.32,20.32,0,0,0-9.59.18,3.33,3.33,0,0,0-2.45,4.44c1.39,5,4.84,8.65,8.32,12.21a1.05,1.05,0,0,0,.24-.08c2.44-1.89,4.89-3.77,7.31-5.68a1.2,1.2,0,0,0,.35-.71c.17-1.22.28-2.44.44-3.66C28.22,36.72,28.49,34.91,28.77,33ZM60.56,72.44c1.75.38,3.52.8,5.31,1.13a20.53,20.53,0,0,0,9.42-.09c2.37-.66,3.34-2.34,2.64-4.69-1.45-4.93-4.8-8.54-8.3-12a2.67,2.67,0,0,0-.3.15c-2.38,1.83-4.76,3.65-7.12,5.51a1.33,1.33,0,0,0-.43.76C61.36,66.22,61,69.28,60.56,72.44Zm0-39.47c.39,3.16.75,6.19,1.16,9.21a1.54,1.54,0,0,0,.57.88c1.19.93,2.43,1.81,3.63,2.74s2.41,1.9,3.63,2.87c.71-.7,1.39-1.35,2-2a26.92,26.92,0,0,0,6.07-9.15c1.16-3.24.25-5-3.08-5.74h-.08C69.73,30.68,65.17,32,60.58,33Zm-5,5.73L55,34.76l-3.74,1.46Zm-22,28,.61,3.92L38,69.19Zm17.6,2.48L55,70.64l.57-3.9ZM38,36.21l-3.74-1.44-.57,3.9ZM62.32,55.12l2.95-2.43c-.94-.76-1.75-1.43-2.57-2.08a3,3,0,0,0-.38-.22ZM24,52.71l3,2.43V50.26Z" transform="translate(-5.39 -7.61)"/><path class="cls-1" d="M50.23,52.73a5.5,5.5,0,0,1-5.75,5.53,5.42,5.42,0,0,1-5.41-5.4,5.62,5.62,0,0,1,5.63-5.79A5.75,5.75,0,0,1,50.23,52.73Z" transform="translate(-5.39 -7.61)"/></g><path class="cls-2" d="M355.57,12.08a6.94,6.94,0,0,0-3-2.26,7.56,7.56,0,0,0-3.85-.43,7.85,7.85,0,0,0-3.39,1.34,7,7,0,0,0-2.88,4.14,7.32,7.32,0,0,0,.22,4.55.79.79,0,0,1-.22,1c-1.82,1.8-3.64,3.6-5.43,5.43a8.49,8.49,0,0,1-4.56,2.73,7.52,7.52,0,0,1-4.67-.62c-1.2-.55-2.42-1.08-3.67-1.54s-2.32-.62-3.43-1.07a3.4,3.4,0,0,1-2.19-2.64,31.37,31.37,0,0,1-.24-3.76.86.86,0,0,1,.29-.53c.55-.53,1.17-1,1.68-1.56A5.31,5.31,0,0,0,321.35,13a5.17,5.17,0,0,0-1.61-3.65,5.35,5.35,0,0,0-3.34-1.68,6,6,0,0,0-3.47.64,4.8,4.8,0,0,0-2.33,2.29,6.61,6.61,0,0,0-.75,2.85A5.12,5.12,0,0,0,312,17.76,2.08,2.08,0,0,1,313,20a7.85,7.85,0,0,1-.48,3.61,3.69,3.69,0,0,1-1.92,1.78c-1.37.52-2.82.8-4.18,1.33s-2.46,1.17-3.7,1.73a8.54,8.54,0,0,1-2.57,1.21,3.41,3.41,0,0,1-2.76-.72c-.6-.53-1.13-1.14-1.74-1.66a.92.92,0,0,1-.24-1.22,7.62,7.62,0,1,0-14.53-4.55,7.26,7.26,0,0,0,1.57,7,7.53,7.53,0,0,0,8.42,2.13.68.68,0,0,1,.87.22c.37.42.79.8,1.2,1.19a3.63,3.63,0,0,1,1.24,3.71,8,8,0,0,1-1,2,31.49,31.49,0,0,0-2.28,4.93,24,24,0,0,0-1.35,6.68c-.07,1.78,0,3.57.11,5.35a10.45,10.45,0,0,0,.39,2.29c.39,1.32.84,2.63,1.33,3.92.35.91.79,1.79,1.2,2.67s1.19,1.78,1.3,2.91a3.88,3.88,0,0,1-.67,3c-.82,1-1.75,1.91-2.65,2.84a.65.65,0,0,1-.48.08,10.46,10.46,0,0,0-1.55-.46,8,8,0,0,0-5.4,1.07,7.42,7.42,0,0,0-3.38,7.88,7.26,7.26,0,0,0,5.73,5.89,7.69,7.69,0,0,0,9.32-7.12,11.31,11.31,0,0,0-.53-2.87c0-.23-.14-.59,0-.68,1.12-.93,1.93-2.21,3.28-2.9a4.14,4.14,0,0,1,3.66-.13c1.11.5,2.13,1.23,3.24,1.74a32,32,0,0,0,4,1.57,7.37,7.37,0,0,1,2.89,1.38,4.87,4.87,0,0,1,1.53,2.56,16.54,16.54,0,0,1,.15,2.45.86.86,0,0,1-.51.91,5.64,5.64,0,0,0-2.52,6,6,6,0,0,0,1.73,3,5.57,5.57,0,0,0,4.85,1.48,5.48,5.48,0,0,0,3.58-2.06,5.91,5.91,0,0,0-1.54-8.57.82.82,0,0,1-.38-.55,7.34,7.34,0,0,1,.56-3.72A4.46,4.46,0,0,1,321,76.94c1.53-.65,3.16-1,4.69-1.68a24.88,24.88,0,0,0,9.06-6.2,3.09,3.09,0,0,1,3-1,5,5,0,0,1,2.3,1.45,1.46,1.46,0,0,1,.56,1.53,4.44,4.44,0,0,0,.13,2,5.56,5.56,0,0,0,3.7,3.62,4.93,4.93,0,0,0,4.47-.74A5.17,5.17,0,0,0,351,70.18a5.28,5.28,0,0,0-6.24-3.81.9.9,0,0,1-.68-.22c-1-.91-1.9-1.86-2.83-2.81a3.58,3.58,0,0,1-.86-3.71c.36-1.28.61-2.59,1-3.87a22.22,22.22,0,0,0,.43-4.53,10.67,10.67,0,0,0-.11-2.11c-.21-1.59-.41-3.18-.74-4.75a22.31,22.31,0,0,0-1-2.92,10.8,10.8,0,0,0-.78-1.85A7.42,7.42,0,0,1,338,34.23a6.15,6.15,0,0,1,1.17-2.83c.7-.83,1.41-1.64,2.16-2.42,1.63-1.68,3.28-3.33,4.94-5a.74.74,0,0,1,.54-.22,10.06,10.06,0,0,0,1.21.4,12.74,12.74,0,0,0,3.2.07,6.8,6.8,0,0,0,3.81-2,7.55,7.55,0,0,0,2.25-5.14A7.67,7.67,0,0,0,355.57,12.08ZM315.8,73.2a21.45,21.45,0,1,1,21.44-21.45A21.44,21.44,0,0,1,315.8,73.2Z" transform="translate(-5.39 -7.61)"/><g id="sqhfLr"><path class="cls-3" d="M305.9,51.61a5.22,5.22,0,0,0,.61.63c1.45,1.14,2.93,2.24,4.35,3.42.61.51.92.48,1.41-.16,3.64-4.76,7.34-9.47,11-14.23.57-.74.94-.91,1.69-.23a25.43,25.43,0,0,0,2.9,2.27c.72.49.73.83.2,1.51-3.9,5-7.76,10-11.63,15-1.08,1.39-2.18,2.77-3.24,4.18-.33.45-.55.55-1.05.16-3.12-2.47-6.27-4.9-9.41-7.34-.27-.22-.67-.38-.3-.86,1-1.29,2-2.59,3-3.89A5.52,5.52,0,0,1,305.9,51.61Z" transform="translate(-5.39 -7.61)"/></g><path class="cls-4" d="M103.4,55v-5.9h9.28V39.8h5.95v9.28h9.28V55h-9.28v9.33h-5.95V55Z" transform="translate(-5.39 -7.61)"/><path class="cls-4" d="M260.64,43.78v5.95H236.13V43.78Zm0,10.57V60.3H236.13V54.35Z" transform="translate(-5.39 -7.61)"/></g><g id="Layer_2" data-name="Layer 2"><g id="OOgo8w"><path class="cls-5" d="M175,95.07a9,9,0,0,1-3.12-.55,9.26,9.26,0,0,1,3-18c.14-.47.27-.94.4-1.41q1-3.6,1.94-7.22c.36-1.33.72-2.67,1.07-4l.84-3.14.39-1.46a12.68,12.68,0,0,1-7.06-12.66,11.08,11.08,0,0,1,.54-2.42l-4.28-2.3-2.61-1.43-.1,0-3.88-2.11c-1.18-.64-2.38-1.28-3.55-1.89l-1.73-.92-.61-.32-1.19-.64a8.79,8.79,0,0,1-3.54,2.15,9.55,9.55,0,0,1-2.91.46,9.34,9.34,0,0,1-3.77-.81,9.16,9.16,0,0,1-4.44-4.13,8.23,8.23,0,0,1-1-3.82,9.21,9.21,0,0,1,1-4.74,9.05,9.05,0,0,1,6.92-4.91,9.39,9.39,0,0,1,1.48-.11,8.88,8.88,0,0,1,6.84,3.19,8.6,8.6,0,0,1,2.25,5.8,9.5,9.5,0,0,1-.3,2.7c1.24.65,2.47,1.31,3.81,2l4.14,2.25,4,2.16c1.09.59,2.18,1.18,3.28,1.76l1.56.84.93.5a12.52,12.52,0,0,1,8.3-4.6,12.19,12.19,0,0,1,1.69-.11,12.41,12.41,0,0,1,7.51,2.55l2.19-2,.07-.06,3.07-2.86c1.35-1.25,2.59-2.39,3.78-3.47.39-.36.8-.73,1.18-1.06A9.2,9.2,0,0,1,205.65,17a9.29,9.29,0,0,1,15.06,7.14,9.36,9.36,0,0,1-9.23,9.4A9.75,9.75,0,0,1,206.21,32L196,41.31a12.26,12.26,0,0,1,.11,12.9A12.11,12.11,0,0,1,185,60.57h-.74l-4.62,17.19a9.28,9.28,0,0,1,3.31,12.89A9.28,9.28,0,0,1,175,95.07Zm0-13.65a4.28,4.28,0,0,0-3.08,1.31,4.33,4.33,0,0,0-1.27,3.09A4.28,4.28,0,0,0,175,90.18h.07a4.26,4.26,0,0,0,4.37-4.41,4.36,4.36,0,0,0-4.15-4.34Zm10-41.35a7.82,7.82,0,0,0-.36,15.62h.49A7.92,7.92,0,0,0,193,48.17a7.83,7.83,0,0,0-2.24-5.75,7.55,7.55,0,0,0-5.35-2.35H185Zm-36.4-16.54a4.37,4.37,0,1,0,.08,8.74l.42,0a4.37,4.37,0,0,0-.42-8.72Zm63,5.12a4.39,4.39,0,0,0,4.27-4.23,4.43,4.43,0,0,0-1.24-3.26,4.34,4.34,0,0,0-3.08-1.27h0a4.38,4.38,0,1,0-.1,8.76h.18Z" transform="translate(-5.39 -7.61)"/></g></g></svg>