<?xml version="1.0" encoding="utf-8"?>
<!-- Generator: Adobe Illustrator 23.0.3, SVG Export Plug-In . SVG Version: 6.00 Build 0)  -->
<svg version="1.1" id="Layer_1" xmlns="http://www.w3.org/2000/svg" xmlns:xlink="http://www.w3.org/1999/xlink" x="0px" y="0px"
	 viewBox="0 0 66.2 65" enable-background="new 0 0 66.2 65" xml:space="preserve">
<g id="ojdCiA.tif">
	<g>
		<path fill="#31708F" d="M45.1,1.8c2.3,1.9,3.8,4,4.5,6.7c0.3,1.2,0.9,1.5,2.1,1.6c5.3,0.3,9.6,2.2,11.9,7.3
			c0.4,0.9,0.7,1.8,0.9,2.8c0.5,2.6,0.3,3.3-2.4,3.8c-2.8,0.6-5.8,0.7-9,1.1c0.2,1.4,0.3,2.8,0.6,4.3c0.3,1.4,1.4,2,2.9,2
			c2.6,0,4.8,1.2,6,3.4c0.4,0.7,0.4,1.8,0.1,2.5c-0.1,0.3-1.3,0.3-2,0.3c-0.8,0-1.7-0.3-2.5-0.4c-2.2-0.2-4.3-0.4-5.5,2.2
			c-0.5,1.1-2,1.7-3.1,2.7c1.1,5.2,0.1,10.2-3.1,14.7c1,0.6,2.1,1,2.8,1.8c0.9,0.9,1.8,2,2.2,3.2c0.6,1.6-0.1,2.3-1.8,2.3
			c-5.5,0-11.1-0.1-16.6,0c-2.8,0-5.4-0.8-7.8-2.1c-0.7-0.4-1.8-0.5-2.6-0.3C12.2,64.9,2,57.2,2.4,46.5c0.2-5.2,2.5-9.3,6.8-12.3
			c0.9-0.6,1.8-1.3,2.8-1.8c6-3.2,3.7-10.9-0.6-13.2C8,17.4,4.7,17.8,0.9,21c0-1.5-0.2-2.9,0-4.2c1.9-10.4,11-15.9,19.4-15
			C30.8,3,37.8,11.6,36.7,21.7c-0.2,1.5-0.9,3-1.6,4.4c-0.6,1.3-1.7,1.9-3.4,2.1c-10.9,0.9-18.6,12-15.7,22.5c0.3,1.1,0.7,2.4,2.3,2
			c1.5-0.4,1.3-1.6,1-2.8c-2.2-9.2,4.3-18.1,13.7-18.4c2.9-0.1,4.9-1.4,5.8-3.8c1.2-3.1,2-6.3,2.6-9.6c0.6-3.3,0.4-6.7,0.8-10
			C42.5,5.7,43.3,3.6,45.1,1.8z"/>
	</g>
</g>
</svg>
