<?xml version="1.0" encoding="utf-8"?>
<!-- Generator: Adobe Illustrator 23.0.3, SVG Export Plug-In . SVG Version: 6.00 Build 0)  -->
<svg version="1.1" id="Layer_1" xmlns="http://www.w3.org/2000/svg" xmlns:xlink="http://www.w3.org/1999/xlink" x="0px" y="0px"
	 viewBox="0 0 66.2 65" enable-background="new 0 0 66.2 65" xml:space="preserve">
<g id="ojdCiA.tif">
	<g>
		<g enable-background="new    ">
			<g enable-background="new    ">
				<defs>
					<path id="SVGID_1_" enable-background="new    " d="M4.2,18.3c0.1-0.2,0.3-0.5,0.5-0.9c0,0,0.1-0.1,0.1-0.1
						C4.8,17.3,4.2,18.3,4.2,18.3z"/>
				</defs>
				<clipPath id="SVGID_2_">
					<use xlink:href="#SVGID_1_"  overflow="visible"/>
				</clipPath>
				<g clip-path="url(#SVGID_2_)" enable-background="new    ">
					<path fill="#193A4A" d="M4.2,18.3l0.4-0.9c0,0,0.1-0.1,0.1-0.1L4.2,18.3C4.2,18.3,4.2,18.3,4.2,18.3"/>
				</g>
			</g>
			<g enable-background="new    ">
				<defs>
					<path id="SVGID_3_" enable-background="new    " d="M4.7,18.9c-0.6,0.1-1,0.3-1.4,1c0.5-0.8,1.1-1.9,1.5-2.7
						C4.7,18.5,4.7,18.9,4.7,18.9z"/>
				</defs>
				<clipPath id="SVGID_4_">
					<use xlink:href="#SVGID_3_"  overflow="visible"/>
				</clipPath>
				<g clip-path="url(#SVGID_4_)" enable-background="new    ">
					<path fill="#235167" d="M3.2,20l1.5-2.7c0,0,0,0.1,0,0.1L3.2,20C3.2,20,3.2,20,3.2,20"/>
					<path fill="#224E64" d="M3.2,20l1.5-2.6c0,0.1,0,0.2,0,0.3L3.2,20C3.2,19.9,3.2,20,3.2,20"/>
					<path fill="#214C61" d="M3.2,19.9l1.5-2.3c0,0,0,0.1,0,0.1L3.2,19.9C3.2,19.9,3.2,19.9,3.2,19.9"/>
					<path fill="#204A5E" d="M3.2,19.9l1.5-2.1c0,0,0,0.1,0,0.1L3.2,19.9C3.2,19.9,3.2,19.9,3.2,19.9"/>
					<path fill="#1F485C" d="M3.2,19.9l1.5-2c0,0,0,0.1,0,0.1L3.2,19.9C3.2,19.9,3.2,19.9,3.2,19.9"/>
					<path fill="#1E4559" d="M3.2,19.9L4.7,18c0,0,0,0,0,0L3.2,19.9C3.2,19.9,3.2,19.9,3.2,19.9"/>
					<path fill="#1D4356" d="M3.2,19.9l1.5-1.8c0,0,0,0,0,0L3.2,19.9C3.2,19.9,3.2,19.9,3.2,19.9"/>
					<path fill="#1C4153" d="M3.2,19.9l1.5-1.8c0,0,0,0,0,0L3.2,19.9C3.2,19.9,3.2,19.9,3.2,19.9"/>
					<path fill="#1B3F50" d="M3.2,19.9l1.5-1.7c0,0,0,0,0,0L3.2,19.9C3.2,19.9,3.2,19.9,3.2,19.9"/>
					<path fill="#1A3C4D" d="M3.2,19.9l1.5-1.7c0,0,0,0,0,0L3.2,19.9C3.2,19.9,3.2,19.9,3.2,19.9"/>
					<path fill="#193A4A" d="M3.2,19.9l1.5-1.6c0,0.5,0,0.7-0.1,0.7l-1.5,0.3C3.2,19.6,3.2,19.8,3.2,19.9"/>
				</g>
			</g>
			<g enable-background="new    ">
				<defs>
					<path id="SVGID_5_" enable-background="new    " d="M34.9,25.9c-0.1,0-0.8,0.2-1,0.3c-0.4,0.2-0.9,0.4-1,0.5
						c0-0.2,1.9-1.4,1.7-1C34.7,25.8,34.8,25.9,34.9,25.9z"/>
				</defs>
				<clipPath id="SVGID_6_">
					<use xlink:href="#SVGID_5_"  overflow="visible"/>
				</clipPath>
				<g clip-path="url(#SVGID_6_)" enable-background="new    ">
					<path fill="#193A4A" d="M34.9,25.9l-0.3-0.2c0.1-0.4-1.7,0.8-1.7,1l0,0.4C33.2,27,34.9,25.9,34.9,25.9"/>
				</g>
			</g>
			<g enable-background="new    ">
				<defs>
					<path id="SVGID_7_" enable-background="new    " d="M10.8,18.7l1.5,0.8c-1.2-0.6-2.3-0.9-3.5-0.9c-2.1,0-4.2,0.9-6.4,2.9
						l-1.5-0.8c2.3-1.9,4.4-2.9,6.4-2.9C8.5,17.8,9.6,18.1,10.8,18.7z"/>
				</defs>
				<clipPath id="SVGID_8_">
					<use xlink:href="#SVGID_7_"  overflow="visible"/>
				</clipPath>
				<g clip-path="url(#SVGID_8_)" enable-background="new    ">
					<path fill="#193A4A" d="M10.8,18.7l1.5,0.8c-1.2-0.6-2.3-0.9-3.5-0.9c-2.1,0-4.2,0.9-6.4,2.9l-1.5-0.8c2.3-1.9,4.4-2.9,6.4-2.9
						C8.5,17.8,9.6,18.1,10.8,18.7"/>
				</g>
			</g>
			<g enable-background="new    ">
				<defs>
					<path id="SVGID_9_" enable-background="new    " d="M24.1,61.7l1.5,0.8c-0.5-0.2-1.1-0.4-1.7-0.4c-0.3,0-0.6,0-0.9,0.1
						c-1.5,0.4-3.1,0.7-4.5,0.7c-2.5,0-4.8-0.6-6.9-1.6l-1.5-0.8c2.1,1,4.4,1.6,6.9,1.6c1.5,0,3-0.2,4.5-0.7
						c0.3-0.1,0.6-0.1,0.9-0.1C23,61.3,23.7,61.4,24.1,61.7z"/>
				</defs>
				<clipPath id="SVGID_10_">
					<use xlink:href="#SVGID_9_"  overflow="visible"/>
				</clipPath>
				<g clip-path="url(#SVGID_10_)" enable-background="new    ">
					<path fill="#193A4A" d="M24.1,61.7l1.5,0.8c-0.5-0.2-1.1-0.4-1.7-0.4c-0.3,0-0.6,0-0.9,0.1c-1.5,0.4-3.1,0.7-4.5,0.7
						c-2.5,0-4.8-0.6-6.9-1.6l-1.5-0.8c2.1,1,4.4,1.6,6.9,1.6c1.5,0,3-0.2,4.5-0.7c0.3-0.1,0.6-0.1,0.9-0.1
						C23,61.3,23.7,61.4,24.1,61.7"/>
				</g>
			</g>
			<g enable-background="new    ">
				<defs>
					<path id="SVGID_11_" enable-background="new    " d="M47.9,61.9L47.9,61.9c-0.4-0.8-1-1.7-1.8-2.5c-0.4-0.4-1.3-0.8-4.2-2.6
						l3.2-0.4c1,0.6,2.1,1,2.8,1.8c0.9,0.9,1.7,2,2.1,3.2c0.6,1.6-0.1,2.3-1.8,2.3c-3.3,0-6.6,0-10,0c-2.1,0-4.3,0-6.4,0
						c-0.1,0-0.1,0-0.2,0c-2.7,0-5.1-0.8-7.5-2.1c-0.5-0.3-1.1-0.4-1.7-0.4c-0.3,0-0.6,0-0.9,0.1c-1.5,0.4-3.1,0.7-4.5,0.7
						c-8.5,0-15.6-6.9-15.2-16c0.2-5.1,2.6-9.3,6.9-12.3c0.9-0.6,1.8-1.3,2.7-1.8c5.9-3.2,3.8-10.8-0.4-13.1
						c-1.3-0.7-2.6-1.1-3.9-1.1c-2.1,0-4.2,0.9-6.4,2.9l1.3-3.4c0.1-0.2,0.2-0.5,0.3-0.9c-0.1,0.2,2.2-0.7,4.6-0.7
						c1.7,0,3,0.1,4.8,1.3c5.2,2.8,8,12.5,0.3,16.6c-0.8,0.4-1.7,1-2.6,1.6c-2.9,2.2-5.7,7.1-6,10.7c-0.4,8,5.8,14,13.2,14
						c1.3,0,2.8-0.4,4-0.6c0.5-0.1,0.9-0.2,1.4-0.2c0.9,0,1.9,0.2,2.7,0.6c2.1,1.1,4.2,1.8,6.5,1.8c0.1,0,0.1,0,0.2,0
						c2.2,0,4.3-0.1,6.4,0c3.3,0,6.7,0,10,0c0.1,0,0.1,0,0.1,0c0,0.1,0,0.1-0.1,0.2C47.9,61.9,47.9,61.9,47.9,61.9
						C47.9,61.9,47.9,61.9,47.9,61.9z"/>
				</defs>
				<clipPath id="SVGID_12_">
					<use xlink:href="#SVGID_11_"  overflow="visible"/>
				</clipPath>
				<g clip-path="url(#SVGID_12_)" enable-background="new    ">
					<path fill="#6292AA" d="M42,56.8l3.2-0.4c0,0,0,0,0,0L42,56.8C42,56.9,42,56.9,42,56.8"/>
					<path fill="#5C8EA6" d="M42,56.9l3.2-0.4c0.4,0.3,0.8,0.5,1.2,0.7l-1.8,1.3C44,58.1,43.2,57.6,42,56.9"/>
					<path fill="#6292AA" d="M44.6,58.4l1.8-1.3c0.2,0.1,0.5,0.3,0.7,0.4L45.5,59C45.3,58.8,45,58.7,44.6,58.4"/>
					<path fill="#5C8EA6" d="M45.5,59l1.6-1.4c0.2,0.1,0.4,0.3,0.6,0.4L46,59.3C45.9,59.2,45.7,59.1,45.5,59"/>
					<path fill="#5488A2" d="M46,59.3l1.7-1.3c0.1,0.1,0.1,0.1,0.2,0.2l-1.8,1.2C46.1,59.4,46.1,59.3,46,59.3"/>
					<path fill="#4A819C" d="M46.1,59.4l1.8-1.2c0,0,0,0,0.1,0.1c0.1,0.1,0.2,0.3,0.4,0.4l-1.8,1.2C46.4,59.7,46.3,59.5,46.1,59.4
						C46.2,59.4,46.1,59.4,46.1,59.4"/>
					<path fill="#31708F" d="M46.5,59.8l1.8-1.2c0.2,0.2,0.3,0.4,0.5,0.5l-1.9,1.1C46.7,60.1,46.6,59.9,46.5,59.8"/>
					<path fill="#306E8C" d="M46.8,60.2l1.9-1.1c0.1,0.1,0.2,0.3,0.3,0.5l-2,1C47,60.5,46.9,60.3,46.8,60.2"/>
					<path fill="#2F6C89" d="M47.1,60.6l2-1c0.1,0.1,0.2,0.3,0.3,0.4l-2,0.9C47.3,60.8,47.2,60.7,47.1,60.6"/>
					<path fill="#2E6986" d="M47.3,60.9l2-0.9c0.1,0.1,0.1,0.2,0.2,0.3l-2.1,0.8C47.4,61.1,47.4,61,47.3,60.9"/>
					<path fill="#2D6784" d="M47.5,61.2l2.1-0.8c0.1,0.1,0.1,0.2,0.2,0.3l-2.1,0.7C47.6,61.3,47.5,61.2,47.5,61.2"/>
					<path fill="#2C6581" d="M47.6,61.4l2.1-0.7c0,0.1,0.1,0.2,0.1,0.3l-2.2,0.7C47.7,61.5,47.7,61.5,47.6,61.4"/>
					<path fill="#2B637E" d="M47.7,61.6l2.2-0.7c0,0.1,0.1,0.2,0.1,0.3l-2.2,0.6C47.8,61.7,47.8,61.7,47.7,61.6"/>
					<path fill="#2A607B" d="M47.8,61.8l2.2-0.6c0,0,0,0.1,0,0.1L47.8,61.8C47.8,61.9,47.8,61.8,47.8,61.8"/>
					<path fill="#295E78" d="M47.8,61.9l2.2-0.6c0,0,0,0.1,0,0.1L47.8,61.9C47.9,61.9,47.9,61.9,47.8,61.9"/>
					<path fill="#285C75" d="M47.9,62l2.2-0.5c0,0,0,0,0,0c0.1,0.2,0.1,0.3,0.1,0.4L47.9,62C47.9,61.9,47.9,62,47.9,62
						C47.9,62,47.9,62,47.9,62"/>
					<path fill="#275A72" d="M47.9,61.9l2.4-0.1c0,0.1,0,0.2,0,0.2L47.9,61.9C47.9,61.9,47.8,61.9,47.9,61.9"/>
					<path fill="#265770" d="M47.9,61.9l2.4,0.2c0,0.1,0,0.1,0,0.2L47.9,61.9C47.9,61.9,47.9,61.9,47.9,61.9"/>
					<path fill="#25556D" d="M47.9,61.9l2.4,0.4c0,0,0,0.1,0,0.1L47.9,61.9C47.9,61.9,47.9,61.9,47.9,61.9"/>
					<path fill="#24536A" d="M47.9,61.9l2.4,0.5c0,0,0,0.1,0,0.1L47.9,61.9C47.9,61.9,47.9,61.9,47.9,61.9"/>
					<path fill="#235167" d="M47.9,61.9l2.4,0.6c0,0,0,0.1,0,0.1L47.9,61.9C47.9,61.8,47.9,61.8,47.9,61.9"/>
					<path fill="#224E64" d="M47.9,61.8l2.4,0.8c0,0,0,0.1,0,0.1L47.9,61.8C47.9,61.8,47.9,61.8,47.9,61.8"/>
					<path fill="#214C61" d="M47.9,61.8l2.3,0.9c0,0,0,0.1,0,0.1L47.9,61.8C47.9,61.8,47.9,61.8,47.9,61.8"/>
					<path fill="#204A5E" d="M47.9,61.8l2.3,0.9c0,0,0,0,0,0.1L47.9,61.8C47.9,61.8,47.9,61.8,47.9,61.8"/>
					<path fill="#1F485C" d="M47.9,61.8l2.3,1c0,0,0,0,0,0.1L47.9,61.8C47.9,61.8,47.9,61.8,47.9,61.8"/>
					<path fill="#1E4559" d="M47.9,61.8l2.2,1.1c0,0,0,0,0,0.1L47.9,61.8C47.9,61.8,47.9,61.8,47.9,61.8"/>
					<path fill="#1D4356" d="M47.9,61.8l2.2,1.2c0,0,0,0,0,0.1L47.9,61.8C47.9,61.7,47.9,61.8,47.9,61.8"/>
					<path fill="#1C4153" d="M48,61.7l2.2,1.3c0,0,0,0,0,0.1L48,61.7C48,61.7,48,61.7,48,61.7"/>
					<path fill="#1B3F50" d="M48,61.7l2.1,1.4c0,0,0,0-0.1,0.1L48,61.7C48,61.7,48,61.7,48,61.7"/>
					<path fill="#1A3C4D" d="M48,61.7l2,1.5c0,0-0.1,0.1-0.1,0.1L48,61.7C48,61.7,48,61.7,48,61.7"/>
					<path fill="#193A4A" d="M48,61.7l1.9,1.6c-0.3,0.3-0.9,0.5-1.7,0.5c-3.3,0-6.6,0-10,0c-2.1,0-4.3,0-6.4,0c-0.1,0-0.1,0-0.2,0
						c-2.7,0-5.1-0.8-7.5-2.1c-0.5-0.3-1.1-0.4-1.7-0.4c-0.3,0-0.6,0-0.9,0.1c-1.5,0.4-3.1,0.7-4.5,0.7c-7.3,0-13.6-5.1-14.9-12.4
						l1.6-0.6c1.2,6.3,6.7,10.8,13,10.8c1.3,0,2.8-0.4,4-0.6c0.5-0.1,0.9-0.2,1.4-0.2c0.9,0,1.9,0.2,2.7,0.6
						c2.1,1.1,4.2,1.8,6.5,1.8c0.1,0,0.1,0,0.2,0c2.2,0,4.3-0.1,6.4,0c3.3,0,6.7,0,10,0C48.1,61.5,48.1,61.6,48,61.7"/>
					<path fill="#1A3C4D" d="M3.7,49.1l-1.6,0.6C2,48.8,1.9,48,1.9,47.1l1.6-0.2C3.5,47.6,3.6,48.4,3.7,49.1"/>
					<path fill="#1B3F50" d="M3.5,46.8l-1.6,0.2c0-0.3,0-0.7,0-1c0-0.2,0-0.4,0-0.7l1.6,0.1c0,0.2,0,0.3-0.1,0.5
						C3.5,46.2,3.5,46.5,3.5,46.8"/>
					<path fill="#1C4153" d="M3.5,45.4l-1.6-0.1c0-0.4,0.1-0.8,0.1-1.2l1.7,0.4C3.6,44.8,3.6,45.1,3.5,45.4"/>
					<path fill="#1D4356" d="M3.7,44.5l-1.7-0.4c0.1-0.4,0.1-0.7,0.2-1.1L4,43.6C3.9,43.9,3.8,44.2,3.7,44.5"/>
					<path fill="#1E4559" d="M4,43.6L2.3,43c0.1-0.4,0.2-0.7,0.3-1l1.7,0.7C4.2,43,4,43.3,4,43.6"/>
					<path fill="#1F485C" d="M4.3,42.7L2.6,42c0.1-0.3,0.2-0.7,0.4-1l1.7,0.9C4.5,42.1,4.4,42.4,4.3,42.7"/>
					<path fill="#204A5E" d="M4.6,41.8L2.9,41c0.1-0.4,0.3-0.7,0.4-1l1.7,0.9C4.9,41.2,4.8,41.5,4.6,41.8"/>
					<path fill="#214C61" d="M5.1,40.9l-1.7-0.9c0.2-0.4,0.4-0.7,0.6-1l1.7,1C5.4,40.2,5.3,40.5,5.1,40.9"/>
					<path fill="#224E64" d="M5.6,39.9l-1.7-1c0.2-0.4,0.4-0.7,0.7-1l1.7,1C6,39.2,5.8,39.5,5.6,39.9"/>
					<path fill="#235167" d="M6.2,38.9l-1.7-1c0.2-0.3,0.5-0.7,0.8-1l1.6,1.1C6.7,38.2,6.4,38.6,6.2,38.9"/>
					<path fill="#24536A" d="M6.9,37.9l-1.6-1.1c0.3-0.3,0.5-0.6,0.8-0.9l1.4,1.1C7.3,37.4,7.1,37.6,6.9,37.9"/>
					<path fill="#25556D" d="M7.6,37.1l-1.4-1.1c0.3-0.3,0.6-0.6,0.9-0.8l1.2,1.2C8,36.6,7.8,36.8,7.6,37.1"/>
					<path fill="#265770" d="M8.2,36.3L7,35.1c0.3-0.2,0.6-0.5,0.8-0.7l1,1.3C8.6,35.9,8.4,36.1,8.2,36.3"/>
					<path fill="#275A72" d="M8.9,35.7l-1-1.3c0.2-0.2,0.4-0.3,0.6-0.5l0.8,1.4C9.2,35.5,9,35.6,8.9,35.7"/>
					<path fill="#285C75" d="M9.3,35.4L8.5,34c0.1-0.1,0.2-0.1,0.3-0.2c0.6-0.4,1.1-0.8,1.7-1.2l0.7,1.5c-0.5,0.3-1.1,0.7-1.6,1.1
						C9.4,35.3,9.4,35.3,9.3,35.4"/>
					<path fill="#295E78" d="M11.1,34.1l-0.7-1.5c0.3-0.2,0.6-0.3,0.8-0.5l0.6,1.6C11.6,33.8,11.4,34,11.1,34.1"/>
					<path fill="#2A607B" d="M11.9,33.7l-0.6-1.6c0.1,0,0.1-0.1,0.2-0.1c0,0,0.1,0,0.1-0.1l0.6,1.6c0,0-0.1,0.1-0.1,0.1
						C12,33.6,11.9,33.6,11.9,33.7"/>
					<path fill="#295E78" d="M12.2,33.5l-0.6-1.6c0.1-0.1,0.3-0.2,0.4-0.3l0.7,1.5C12.5,33.3,12.4,33.4,12.2,33.5"/>
					<path fill="#285C75" d="M12.7,33.2L12,31.7c0.1-0.1,0.3-0.2,0.4-0.3l0.8,1.4C13.1,33,12.9,33.1,12.7,33.2"/>
					<path fill="#275A72" d="M13.2,32.8l-0.8-1.4c0.1-0.1,0.2-0.2,0.3-0.3l0.9,1.3C13.5,32.6,13.4,32.7,13.2,32.8"/>
					<path fill="#265770" d="M13.7,32.5l-0.9-1.3c0.1-0.1,0.2-0.2,0.3-0.3l1,1.3C13.9,32.3,13.8,32.4,13.7,32.5"/>
					<path fill="#25556D" d="M14.1,32.1l-1-1.3c0.1-0.1,0.2-0.2,0.3-0.3l1.1,1.2C14.3,31.9,14.2,32,14.1,32.1"/>
					<path fill="#24536A" d="M14.5,31.8l-1.1-1.2c0.1-0.1,0.2-0.2,0.3-0.3l1.2,1.1C14.7,31.5,14.6,31.7,14.5,31.8"/>
					<path fill="#235167" d="M14.8,31.4l-1.2-1.1c0.1-0.1,0.2-0.2,0.3-0.3l1.2,1C15,31.1,14.9,31.3,14.8,31.4"/>
					<path fill="#224E64" d="M15.1,31l-1.2-1c0.1-0.1,0.2-0.2,0.2-0.3l1.3,0.9C15.3,30.7,15.2,30.9,15.1,31"/>
					<path fill="#214C61" d="M15.4,30.6l-1.3-0.9c0.1-0.1,0.2-0.2,0.2-0.4l1.4,0.8C15.6,30.3,15.5,30.4,15.4,30.6"/>
					<path fill="#204A5E" d="M15.7,30.1l-1.4-0.8c0.1-0.1,0.1-0.2,0.2-0.4l1.4,0.7C15.9,29.8,15.8,30,15.7,30.1"/>
					<path fill="#1F485C" d="M15.9,29.7l-1.4-0.7c0.1-0.1,0.1-0.3,0.2-0.4l1.5,0.6C16.1,29.3,16,29.5,15.9,29.7"/>
					<path fill="#1E4559" d="M16.2,29.1l-1.5-0.6c0.1-0.2,0.1-0.3,0.2-0.5l1.5,0.5C16.3,28.7,16.3,28.9,16.2,29.1"/>
					<path fill="#1D4356" d="M16.4,28.5L14.9,28c0.1-0.2,0.1-0.4,0.1-0.5l1.6,0.3C16.5,28,16.5,28.3,16.4,28.5"/>
					<path fill="#1C4153" d="M16.6,27.8L15,27.5c0-0.2,0.1-0.5,0.1-0.7l1.6,0.1C16.7,27.2,16.6,27.5,16.6,27.8"/>
					<path fill="#1B3F50" d="M16.7,26.9l-1.6-0.1c0-0.3,0-0.6,0-0.9l1.6-0.1C16.8,26.2,16.8,26.6,16.7,26.9"/>
					<path fill="#1A3C4D" d="M16.8,25.8l-1.6,0.1c0-0.4-0.1-0.9-0.1-1.3l1.6-0.5C16.7,24.7,16.8,25.2,16.8,25.8"/>
					<path fill="#193A4A" d="M16.6,24.1L15,24.6c-0.4-2.4-1.9-4.6-3.9-5.7c-1.3-0.7-2.6-1.1-3.9-1.1c-1.7,0-3.5,0.6-5.3,2l0.4-3.4
						c0.2,0.1,2.4-0.7,4.5-0.7c1.7,0,3,0.1,4.8,1.3C14.2,18.3,16.1,21.1,16.6,24.1"/>
					<path fill="#1A3C4D" d="M2.4,16.3L2,19.8c-0.3,0.2-0.7,0.5-1,0.8l1.6-4.4C2.4,16.3,2.4,16.3,2.4,16.3"/>
					<path fill="#193A4A" d="M2.5,16.2l-1.6,4.4c0,0-0.1,0.1-0.1,0.1L2.5,16.2C2.5,16.2,2.5,16.2,2.5,16.2"/>
				</g>
			</g>
			<g enable-background="new    ">
				<defs>
					<path id="SVGID_13_" enable-background="new    " d="M2.4,17.8c-0.3,0.2-0.5,0.3-0.7,0.7c-0.1,0.2-0.1,0.2-0.8,2.2
						c0-1.5-0.2-2.9,0.1-4.2c1.9-9.6,9.8-15,17.5-15l-0.4,1.8c-6.9,0-13.9,4.9-15.6,13.4C2.4,17.2,2.4,17.8,2.4,17.8z"/>
				</defs>
				<clipPath id="SVGID_14_">
					<use xlink:href="#SVGID_13_"  overflow="visible"/>
				</clipPath>
				<g clip-path="url(#SVGID_14_)" enable-background="new    ">
					<path fill="#193A4A" d="M2.5,16.2l-1.7,4.5c0-0.3,0-0.6,0-0.9l1.7-2.5C2.5,17.1,2.5,16.7,2.5,16.2"/>
					<path fill="#1A3C4D" d="M2.5,17.3l-1.7,2.5c0-0.6,0-1.1,0-1.6l1.6-0.4C2.4,17.9,2.4,17.8,2.5,17.3"/>
					<path fill="#1B3F50" d="M2.4,17.7l-1.6,0.4c0-0.4,0-0.8,0.1-1.2L2.4,17C2.4,17.3,2.4,17.6,2.4,17.7"/>
					<path fill="#1C4153" d="M2.4,17L0.8,17c0-0.2,0-0.3,0.1-0.5c0-0.1,0.1-0.3,0.1-0.4l1.6,0.2c0,0.1-0.1,0.2-0.1,0.4
						C2.5,16.8,2.5,16.9,2.4,17"/>
					<path fill="#1D4356" d="M2.6,16.3L1,16.1c0.1-0.6,0.3-1.2,0.5-1.7L3,14.8C2.8,15.3,2.7,15.8,2.6,16.3"/>
					<path fill="#1E4559" d="M3,14.8l-1.5-0.4c0.2-0.5,0.3-1,0.5-1.5l1.5,0.6C3.3,13.9,3.1,14.3,3,14.8"/>
					<path fill="#1F485C" d="M3.4,13.4L2,12.9c0.2-0.4,0.4-0.9,0.6-1.3l1.4,0.7C3.8,12.7,3.6,13.1,3.4,13.4"/>
					<path fill="#204A5E" d="M3.9,12.3l-1.4-0.7c0.2-0.4,0.4-0.8,0.6-1.1l1.3,0.8C4.3,11.6,4.1,12,3.9,12.3"/>
					<path fill="#214C61" d="M4.5,11.3l-1.3-0.8c0.2-0.3,0.4-0.7,0.6-1L5,10.4C4.8,10.7,4.7,11,4.5,11.3"/>
					<path fill="#224E64" d="M5,10.4L3.8,9.5C4,9.1,4.2,8.8,4.4,8.5l1.2,1C5.4,9.8,5.2,10.1,5,10.4"/>
					<path fill="#235167" d="M5.6,9.6l-1.2-1c0.2-0.3,0.5-0.6,0.7-0.9l1.1,1.1C6,9,5.8,9.3,5.6,9.6"/>
					<path fill="#24536A" d="M6.2,8.8L5.1,7.7c0.2-0.3,0.5-0.5,0.7-0.8l1,1.2C6.7,8.3,6.5,8.6,6.2,8.8"/>
					<path fill="#25556D" d="M6.9,8.1l-1-1.2c0.2-0.3,0.5-0.5,0.8-0.7l1,1.3C7.3,7.6,7.1,7.9,6.9,8.1"/>
					<path fill="#265770" d="M7.6,7.4l-1-1.3c0.3-0.2,0.5-0.5,0.8-0.7l0.9,1.4C8,7,7.8,7.2,7.6,7.4"/>
					<path fill="#275A72" d="M8.3,6.8L7.4,5.5C7.7,5.2,8,5,8.2,4.8L9,6.3C8.8,6.4,8.5,6.6,8.3,6.8"/>
					<path fill="#285C75" d="M9,6.3L8.2,4.8c0.3-0.2,0.6-0.4,0.9-0.6l0.7,1.5C9.5,5.9,9.3,6.1,9,6.3"/>
					<path fill="#295E78" d="M9.8,5.7L9.1,4.2C9.4,4,9.7,3.9,10,3.7l0.6,1.6C10.3,5.4,10,5.6,9.8,5.7"/>
					<path fill="#2A607B" d="M10.6,5.2L10,3.7c0.3-0.2,0.6-0.3,1-0.5l0.5,1.6C11.2,4.9,10.9,5.1,10.6,5.2"/>
					<path fill="#2B637E" d="M11.4,4.8L11,3.2c0.3-0.2,0.7-0.3,1-0.4l0.3,1.7C12,4.5,11.7,4.7,11.4,4.8"/>
					<path fill="#2C6581" d="M12.3,4.4L12,2.7c0.4-0.1,0.7-0.3,1.1-0.4l0.2,1.7C13,4.2,12.6,4.3,12.3,4.4"/>
					<path fill="#2D6784" d="M13.3,4.1L13,2.3c0.4-0.1,0.7-0.2,1.1-0.3l0.1,1.8C13.9,3.9,13.6,4,13.3,4.1"/>
					<path fill="#2E6986" d="M14.3,3.8L14.2,2c0.4-0.1,0.8-0.2,1.2-0.3l0,1.8C15,3.6,14.6,3.7,14.3,3.8"/>
					<path fill="#2F6C89" d="M15.3,3.5l0-1.8c0.4-0.1,0.8-0.1,1.2-0.2l-0.2,1.8C16,3.4,15.7,3.5,15.3,3.5"/>
					<path fill="#306E8C" d="M16.4,3.4l0.2-1.8c0.4,0,0.9-0.1,1.3-0.1l-0.3,1.8C17.2,3.3,16.8,3.3,16.4,3.4"/>
					<path fill="#31708F" d="M17.5,3.3l0.3-1.8c0.2,0,0.4,0,0.6,0l-0.4,1.8C17.9,3.3,17.7,3.3,17.5,3.3"/>
				</g>
			</g>
			<g enable-background="new    ">
				<defs>
					<path id="SVGID_15_" enable-background="new    " d="M26.7,3.5l1.5,0.8c6.5,3.3,10.3,10.1,9.3,17.9c-0.2,1.5-0.9,3-1.6,4.4
						c-0.7,1.3-1.7,1.9-3.3,2c-10.8,0.9-18.5,12-15.9,22.4c0.2,0.8,0.4,1.6,1.1,1.9l-1.5-0.8c-0.6-0.3-0.9-1.1-1.1-1.9
						c-2.7-10.5,5.1-21.5,15.9-22.4c1.6-0.1,2.7-0.8,3.3-2c0.7-1.4,1.4-2.9,1.6-4.4C37,13.6,33.2,6.7,26.7,3.5z"/>
				</defs>
				<clipPath id="SVGID_16_">
					<use xlink:href="#SVGID_15_"  overflow="visible"/>
				</clipPath>
				<g clip-path="url(#SVGID_16_)" enable-background="new    ">
					<path fill="#265770" d="M26.7,3.5l1.5,0.8c0.6,0.3,1.3,0.7,1.8,1.1l-1.5-0.8C28,4.1,27.4,3.8,26.7,3.5"/>
					<path fill="#25556D" d="M28.6,4.5l1.5,0.8c0.6,0.4,1.2,0.8,1.7,1.3l-1.5-0.8C29.7,5.4,29.2,4.9,28.6,4.5"/>
					<path fill="#24536A" d="M30.3,5.8l1.5,0.8c0.4,0.4,0.8,0.8,1.2,1.2L31.5,7C31.1,6.6,30.7,6.2,30.3,5.8"/>
					<path fill="#235167" d="M31.5,7l1.5,0.8c0.3,0.4,0.7,0.7,1,1.1l-1.5-0.8C32.2,7.7,31.8,7.4,31.5,7"/>
					<path fill="#224E64" d="M32.5,8.1L34,8.9c0.3,0.3,0.5,0.7,0.8,1.1l-1.5-0.8C33,8.8,32.7,8.4,32.5,8.1"/>
					<path fill="#214C61" d="M33.2,9.2l1.5,0.8c0.2,0.3,0.5,0.7,0.7,1.1l-1.5-0.8C33.7,9.9,33.5,9.5,33.2,9.2"/>
					<path fill="#204A5E" d="M33.9,10.2l1.5,0.8c0.2,0.4,0.4,0.7,0.6,1.1l-1.5-0.8C34.3,11,34.1,10.6,33.9,10.2"/>
					<path fill="#1F485C" d="M34.5,11.3l1.5,0.8c0.2,0.4,0.3,0.8,0.5,1.1L35,12.5C34.8,12.1,34.7,11.7,34.5,11.3"/>
					<path fill="#1E4559" d="M35,12.5l1.5,0.8c0.2,0.4,0.3,0.8,0.4,1.2l-1.5-0.8C35.3,13.3,35.1,12.9,35,12.5"/>
					<path fill="#1D4356" d="M35.4,13.7l1.5,0.8c0.1,0.4,0.2,0.9,0.3,1.3L35.7,15C35.6,14.6,35.5,14.1,35.4,13.7"/>
					<path fill="#1C4153" d="M35.7,15l1.5,0.8c0.1,0.5,0.2,1,0.3,1.5L36,16.4C35.9,16,35.9,15.5,35.7,15"/>
					<path fill="#1B3F50" d="M36,16.4l1.5,0.8c0.1,0.6,0.1,1.1,0.2,1.7l-1.5-0.8C36.1,17.6,36.1,17,36,16.4"/>
					<path fill="#1A3C4D" d="M36.2,18.1l1.5,0.8c0,0.7,0,1.5,0,2.3l-1.5-0.8C36.2,19.6,36.2,18.9,36.2,18.1"/>
					<path fill="#193A4A" d="M36.1,20.4l1.5,0.8c0,0.3-0.1,0.6-0.1,0.9c-0.2,1.5-0.9,3-1.6,4.4c-0.7,1.3-1.7,1.9-3.3,2
						c-8.9,0.8-15.7,8.4-16.3,16.9l-1.5-0.8c0.6-8.5,7.5-16.1,16.3-16.9c1.6-0.1,2.7-0.8,3.3-2c0.7-1.4,1.4-2.9,1.6-4.4
						C36.1,21,36.1,20.7,36.1,20.4"/>
					<path fill="#1A3C4D" d="M14.8,44.7l1.5,0.8c-0.1,0.7-0.1,1.4,0,2.1l-1.5-0.8C14.7,46,14.7,45.3,14.8,44.7"/>
					<path fill="#1B3F50" d="M14.7,46.7l1.5,0.8c0,0.5,0.1,1.1,0.1,1.6l-1.5-0.8C14.8,47.8,14.8,47.3,14.7,46.7"/>
					<path fill="#1C4153" d="M14.9,48.3l1.5,0.8c0.1,0.5,0.1,0.9,0.3,1.4l-1.5-0.8C15,49.3,15,48.8,14.9,48.3"/>
					<path fill="#1D4356" d="M15.1,49.7l1.5,0.8c0,0.2,0.1,0.3,0.1,0.5c0,0.2,0.1,0.4,0.1,0.5l-1.5-0.8c-0.1-0.2-0.1-0.4-0.1-0.5
						C15.2,50,15.2,49.9,15.1,49.7"/>
					<path fill="#1E4559" d="M15.4,50.7l1.5,0.8c0,0.1,0.1,0.2,0.1,0.4l-1.5-0.8C15.5,51,15.4,50.9,15.4,50.7"/>
					<path fill="#1F485C" d="M15.5,51.1l1.5,0.8c0,0.1,0.1,0.2,0.1,0.2l-1.5-0.8C15.6,51.3,15.6,51.2,15.5,51.1"/>
					<path fill="#204A5E" d="M15.6,51.3l1.5,0.8c0,0.1,0.1,0.1,0.1,0.2l-1.5-0.8C15.7,51.4,15.7,51.4,15.6,51.3"/>
					<path fill="#214C61" d="M15.7,51.5l1.5,0.8c0,0,0.1,0.1,0.1,0.1l-1.5-0.8C15.8,51.6,15.7,51.5,15.7,51.5"/>
					<path fill="#224E64" d="M15.8,51.6l1.5,0.8c0,0,0.1,0.1,0.1,0.1l-1.5-0.8C15.9,51.7,15.8,51.7,15.8,51.6"/>
					<path fill="#235167" d="M15.9,51.8l1.5,0.8c0,0,0.1,0.1,0.1,0.1L16,51.9C15.9,51.8,15.9,51.8,15.9,51.8"/>
					<path fill="#24536A" d="M16,51.9l1.5,0.8c0,0,0.1,0.1,0.1,0.1L16,51.9C16,51.9,16,51.9,16,51.9"/>
					<path fill="#25556D" d="M16.1,51.9l1.5,0.8c0,0,0.1,0.1,0.1,0.1L16.2,52C16.1,52,16.1,52,16.1,51.9"/>
					<path fill="#265770" d="M16.2,52l1.5,0.8c0,0,0.1,0,0.1,0.1l-1.5-0.8C16.3,52.1,16.2,52.1,16.2,52"/>
				</g>
			</g>
			<g enable-background="new    ">
				<defs>
					<path id="SVGID_17_" enable-background="new    " d="M51.4,10.3l-1.5-0.8c-0.4-0.2-0.7-0.6-0.9-1.4c-0.6-2.6-2.1-4.8-4.3-6.7
						l1.5,0.8c2.2,1.9,3.7,4,4.3,6.7C50.7,9.7,51,10.1,51.4,10.3z"/>
				</defs>
				<clipPath id="SVGID_18_">
					<use xlink:href="#SVGID_17_"  overflow="visible"/>
				</clipPath>
				<g clip-path="url(#SVGID_18_)" enable-background="new    ">
					<path fill="#25556D" d="M44.7,1.5l1.5,0.8c0,0,0.1,0.1,0.1,0.1l-1.5-0.8C44.7,1.6,44.7,1.6,44.7,1.5"/>
					<path fill="#24536A" d="M44.8,1.6l1.5,0.8c0.4,0.4,0.8,0.7,1.2,1.1L46,2.8C45.6,2.4,45.2,2,44.8,1.6"/>
					<path fill="#235167" d="M46,2.8l1.5,0.8c0.3,0.3,0.5,0.6,0.8,0.9l-1.5-0.8C46.5,3.4,46.2,3.1,46,2.8"/>
					<path fill="#224E64" d="M46.8,3.7l1.5,0.8c0.2,0.3,0.4,0.5,0.6,0.8l-1.5-0.8C47.2,4.2,47,3.9,46.8,3.7"/>
					<path fill="#214C61" d="M47.3,4.5l1.5,0.8c0.2,0.2,0.3,0.5,0.5,0.8l-1.5-0.8C47.7,5,47.5,4.7,47.3,4.5"/>
					<path fill="#204A5E" d="M47.8,5.2L49.4,6c0.1,0.2,0.3,0.5,0.4,0.7L48.2,6C48.1,5.7,48,5.5,47.8,5.2"/>
					<path fill="#1F485C" d="M48.2,6l1.5,0.8C49.9,7,50,7.3,50.1,7.5l-1.5-0.8C48.4,6.5,48.3,6.2,48.2,6"/>
					<path fill="#1E4559" d="M48.5,6.7l1.5,0.8c0.1,0.3,0.2,0.5,0.3,0.8l-1.5-0.8C48.7,7.3,48.6,7,48.5,6.7"/>
					<path fill="#1D4356" d="M48.8,7.5l1.5,0.8c0.1,0.2,0.1,0.4,0.2,0.7c0,0.1,0,0.2,0.1,0.3l-1.5-0.8c0-0.1,0-0.2-0.1-0.3
						C48.9,8,48.9,7.7,48.8,7.5"/>
					<path fill="#1E4559" d="M49.1,8.4l1.5,0.8c0,0.1,0.1,0.2,0.1,0.2l-1.5-0.8C49.1,8.6,49.1,8.5,49.1,8.4"/>
					<path fill="#1F485C" d="M49.1,8.7l1.5,0.8c0,0.1,0,0.1,0.1,0.2l-1.5-0.8C49.2,8.8,49.2,8.7,49.1,8.7"/>
					<path fill="#204A5E" d="M49.2,8.8l1.5,0.8c0,0,0,0.1,0.1,0.1L49.3,9C49.3,8.9,49.2,8.9,49.2,8.8"/>
					<path fill="#214C61" d="M49.3,9l1.5,0.8c0,0,0,0.1,0.1,0.1l-1.5-0.8C49.3,9,49.3,9,49.3,9"/>
					<path fill="#224E64" d="M49.3,9.1l1.5,0.8c0,0,0,0.1,0.1,0.1L49.3,9.1C49.4,9.1,49.4,9.1,49.3,9.1"/>
					<path fill="#235167" d="M49.4,9.2L51,10C51,10,51,10,51,10L49.4,9.2C49.5,9.2,49.4,9.2,49.4,9.2"/>
					<path fill="#24536A" d="M49.5,9.3L51,10c0,0,0.1,0.1,0.1,0.1L49.5,9.3C49.6,9.3,49.5,9.3,49.5,9.3"/>
					<path fill="#25556D" d="M49.6,9.4l1.5,0.8c0,0,0.1,0.1,0.1,0.1l-1.5-0.8C49.7,9.4,49.6,9.4,49.6,9.4"/>
					<path fill="#265770" d="M49.7,9.5l1.5,0.8c0,0,0.1,0.1,0.1,0.1l-1.5-0.8C49.8,9.5,49.8,9.5,49.7,9.5"/>
				</g>
			</g>
			<g enable-background="new    ">
				<defs>
					<path id="SVGID_19_" enable-background="new    " d="M32.8,24.9l-0.5-0.2c0.7-1.3,1.2-2.6,1.4-3.7c1.1-8.9-4.9-16.5-14-17.6
						c-0.5-0.1-1.1-0.1-1.6-0.1l0.4-1.8c0.6,0,1.2,0,1.8,0.1c10.3,1.2,17,9.7,15.8,19.8c-0.2,1.5-0.9,3-1.6,4.4
						c-0.7,1.3-1.7,1.9-3.3,2c-10.8,0.9-18.5,12-15.9,22.4c0.3,1,0.6,2,1.6,2c0.2,0,0.4,0,0.6-0.1c1.5-0.4,1.3-1.6,1-2.8
						c-2-9.2,4.5-18,13.7-18.3c2.9-0.1,4.9-1.4,5.8-3.8c1.2-3.1,2.1-6.3,2.7-9.6c0.6-3.3,0.5-6.6,1-10c0.3-2.2,1.2-4.3,3-6.1L44.4,4
						c-0.2,0.2-0.9,1.8-1.1,3.6c-0.4,3.2-0.4,6.6-1,10.1c-0.6,3.4-1.6,6.7-2.8,9.9c-1.3,3.3-4,5-7.6,5.1c-8,0.3-13.6,7.9-11.9,15.9
						c0.4,1.6,1,4.2-2.5,5.2c-0.5,0.3-0.7,0.2-1.1,0.2c-2.7-0.1-3.2-2.3-3.5-3.5c-3-11.7,5.6-23.9,17.6-24.9c0-0.1,1.6-1.2,1.7-1
						C32.5,24.7,32.6,24.8,32.8,24.9z"/>
				</defs>
				<clipPath id="SVGID_20_">
					<use xlink:href="#SVGID_19_"  overflow="visible"/>
				</clipPath>
				<g clip-path="url(#SVGID_20_)" enable-background="new    ">
					<path fill="#31708F" d="M18.1,3.3l0.4-1.8c0.3,0,0.5,0,0.8,0l-0.5,1.8C18.5,3.3,18.3,3.3,18.1,3.3"/>
					<path fill="#4A819C" d="M18.7,3.3l0.5-1.8c0.4,0,0.7,0,1.1,0.1c0.2,0,0.4,0,0.5,0.1l-0.7,1.8c-0.2,0-0.3,0-0.5-0.1
						C19.4,3.3,19.1,3.3,18.7,3.3"/>
					<path fill="#5488A2" d="M20.2,3.4l0.7-1.8c0.7,0.1,1.4,0.2,2.1,0.4L22,3.8C21.4,3.6,20.8,3.5,20.2,3.4"/>
					<path fill="#5C8EA6" d="M22,3.8L22.9,2c1,0.2,2,0.6,2.9,1l-1.2,1.6C23.8,4.3,22.9,4,22,3.8"/>
					<path fill="#6292AA" d="M24.6,4.6L25.7,3c0.9,0.4,1.8,0.9,2.7,1.4l-1.5,1.5C26.2,5.4,25.4,5,24.6,4.6"/>
					<path fill="#5C8EA6" d="M26.9,5.9l1.5-1.5c0.6,0.4,1.2,0.9,1.8,1.3l-1.7,1.3C28,6.7,27.5,6.3,26.9,5.9"/>
					<path fill="#5488A2" d="M28.5,7.1l1.7-1.3c0.3,0.3,0.7,0.6,1,0.9l-1.8,1.2C29.1,7.6,28.8,7.4,28.5,7.1"/>
					<path fill="#4A819C" d="M29.4,7.9l1.8-1.2c0.3,0.3,0.5,0.5,0.7,0.8l-1.8,1.2C29.9,8.4,29.6,8.1,29.4,7.9"/>
					<path fill="#31708F" d="M30.1,8.6l1.8-1.2c0.2,0.2,0.4,0.5,0.6,0.7l-1.9,1.1C30.4,9,30.3,8.8,30.1,8.6"/>
					<path fill="#306E8C" d="M30.6,9.2l1.9-1.1c0.2,0.2,0.3,0.4,0.5,0.7l-2,1C30.9,9.6,30.8,9.4,30.6,9.2"/>
					<path fill="#2F6C89" d="M31.1,9.9l2-1c0.2,0.2,0.3,0.4,0.5,0.7l-2,0.9C31.3,10.3,31.2,10,31.1,9.9"/>
					<path fill="#2E6986" d="M31.5,10.5l2-0.9c0.1,0.2,0.3,0.4,0.4,0.7l-2.1,0.8C31.7,10.9,31.6,10.7,31.5,10.5"/>
					<path fill="#2D6784" d="M31.8,11.1l2.1-0.8c0.1,0.2,0.3,0.5,0.4,0.7l-2.1,0.8C32.1,11.5,31.9,11.3,31.8,11.1"/>
					<path fill="#2C6581" d="M32.2,11.7l2.1-0.8c0.1,0.2,0.2,0.5,0.3,0.7l-2.1,0.7C32.4,12.1,32.3,11.9,32.2,11.7"/>
					<path fill="#2B637E" d="M32.5,12.3l2.1-0.7c0.1,0.2,0.2,0.5,0.3,0.7l-2.2,0.6C32.6,12.7,32.6,12.5,32.5,12.3"/>
					<path fill="#2A607B" d="M32.7,12.9l2.2-0.6c0.1,0.2,0.2,0.5,0.3,0.7L33,13.6C32.9,13.4,32.8,13.1,32.7,12.9"/>
					<path fill="#295E78" d="M33,13.6l2.2-0.5c0.1,0.3,0.2,0.5,0.3,0.8l-2.2,0.4C33.1,14.1,33.1,13.8,33,13.6"/>
					<path fill="#285C75" d="M33.2,14.3l2.2-0.4c0.1,0.3,0.2,0.5,0.2,0.8L33.4,15C33.3,14.8,33.3,14.5,33.2,14.3"/>
					<path fill="#275A72" d="M33.4,15l2.3-0.3c0.1,0.3,0.1,0.6,0.2,0.9l-2.3,0.2C33.5,15.5,33.5,15.3,33.4,15"/>
					<path fill="#265770" d="M33.6,15.8l2.3-0.2c0.1,0.3,0.1,0.6,0.2,0.9l-2.3,0.1C33.7,16.3,33.6,16.1,33.6,15.8"/>
					<path fill="#25556D" d="M33.7,16.6l2.3-0.1c0,0.3,0.1,0.6,0.1,1l-2.3,0C33.8,17.2,33.7,16.9,33.7,16.6"/>
					<path fill="#24536A" d="M33.8,17.5l2.3,0c0,0.3,0,0.7,0.1,1l-2.3-0.1C33.8,18.1,33.8,17.8,33.8,17.5"/>
					<path fill="#235167" d="M33.8,18.4l2.3,0.1c0,0.4,0,0.7,0,1.1l-2.3-0.2C33.9,19,33.9,18.7,33.8,18.4"/>
					<path fill="#224E64" d="M33.8,19.4l2.3,0.2c0,0.4,0,0.8-0.1,1.2l-2.3-0.3C33.8,20.1,33.8,19.7,33.8,19.4"/>
					<path fill="#214C61" d="M33.8,20.5l2.3,0.3c0,0.2,0,0.3-0.1,0.5c0,0.1,0,0.2,0,0.3l-2.3-0.5c0-0.1,0-0.1,0-0.2
						C33.7,20.8,33.8,20.6,33.8,20.5"/>
					<path fill="#204A5E" d="M33.7,21.1l2.3,0.5c0,0.2-0.1,0.3-0.1,0.5l-2.3-0.6C33.7,21.4,33.7,21.3,33.7,21.1"/>
					<path fill="#1F485C" d="M33.6,21.5l2.3,0.6c0,0.2-0.1,0.4-0.2,0.6L33.5,22C33.5,21.9,33.6,21.7,33.6,21.5"/>
					<path fill="#1E4559" d="M33.5,22l2.2,0.7c-0.1,0.3-0.2,0.6-0.3,0.9l-2.2-0.8C33.3,22.5,33.4,22.3,33.5,22"/>
					<path fill="#1D4356" d="M33.2,22.8l2.2,0.8c-0.2,0.5-0.5,1.1-0.7,1.6l-2.1-1C32.8,23.7,33,23.2,33.2,22.8"/>
					<path fill="#1C4153" d="M32.6,24.1l2.1,1c-0.1,0.2-0.2,0.4-0.3,0.5c0,0,0,0.1-0.1,0.1l-2-1.2c0,0,0,0,0,0
						C32.4,24.5,32.5,24.3,32.6,24.1"/>
					<path fill="#1B3F50" d="M32.3,24.6l2,1.2c0,0.1-0.1,0.1-0.1,0.2L32.3,24.6C32.3,24.6,32.4,24.6,32.3,24.6"/>
					<path fill="#1A3C4D" d="M32.3,24.6l1.9,1.4c-0.3,0.5-0.8,1-1.3,1.3L31.4,25C31.8,24.7,32.3,24.5,32.3,24.6"/>
					<path fill="#193A4A" d="M31.4,25l1.6,2.3c-0.5,0.3-1.1,0.5-1.9,0.5c-3.8,0.3-7.2,1.9-9.9,4.3l-1.6-1.7c3-2.6,6.8-4.4,11-4.7
						C30.6,25.5,31,25.2,31.4,25"/>
					<path fill="#1A3C4D" d="M19.6,30.3l1.6,1.7c-0.8,0.7-1.5,1.5-2.2,2.3l-1.9-1.4C17.9,31.9,18.7,31.1,19.6,30.3"/>
					<path fill="#1B3F50" d="M17.1,32.9l1.9,1.4c-0.5,0.6-0.9,1.2-1.4,1.9l-2-1.2C16.1,34.2,16.6,33.5,17.1,32.9"/>
					<path fill="#1C4153" d="M15.6,34.9l2,1.2c-0.3,0.5-0.7,1.1-0.9,1.7l-2.1-1C14.9,36.2,15.2,35.5,15.6,34.9"/>
					<path fill="#1D4356" d="M14.6,36.8l2.1,1c-0.2,0.5-0.5,1-0.7,1.5l-2.2-0.9C14,37.9,14.3,37.3,14.6,36.8"/>
					<path fill="#1E4559" d="M13.8,38.5l2.2,0.9c-0.2,0.5-0.3,0.9-0.5,1.4L13.3,40C13.4,39.5,13.6,39,13.8,38.5"/>
					<path fill="#1F485C" d="M13.3,40l2.2,0.7c-0.1,0.4-0.2,0.8-0.3,1.3l-2.3-0.6C13,40.9,13.1,40.5,13.3,40"/>
					<path fill="#204A5E" d="M12.9,41.4l2.3,0.6c-0.1,0.4-0.2,0.8-0.2,1.2l-2.3-0.4C12.7,42.3,12.8,41.9,12.9,41.4"/>
					<path fill="#214C61" d="M12.7,42.7l2.3,0.4c-0.1,0.4-0.1,0.8-0.1,1.1L12.5,44C12.5,43.6,12.6,43.2,12.7,42.7"/>
					<path fill="#224E64" d="M12.5,44l2.3,0.3c0,0.4-0.1,0.7-0.1,1.1l-2.3-0.2C12.4,44.8,12.5,44.4,12.5,44"/>
					<path fill="#235167" d="M12.4,45.2l2.3,0.2c0,0.3,0,0.7,0,1l-2.3-0.1C12.4,46,12.4,45.6,12.4,45.2"/>
					<path fill="#24536A" d="M12.4,46.3l2.3,0.1c0,0.3,0,0.6,0.1,1l-2.3,0C12.4,47,12.4,46.7,12.4,46.3"/>
					<path fill="#25556D" d="M12.5,47.4l2.3,0c0,0.3,0.1,0.6,0.1,0.9l-2.3,0.1C12.5,48.1,12.5,47.8,12.5,47.4"/>
					<path fill="#265770" d="M12.6,48.4l2.3-0.1c0,0.3,0.1,0.6,0.1,0.9l-2.3,0.2C12.7,49.1,12.6,48.8,12.6,48.4"/>
					<path fill="#275A72" d="M12.7,49.4l2.3-0.2c0.1,0.3,0.1,0.6,0.2,0.9l-2.3,0.3C12.9,50.1,12.8,49.7,12.7,49.4"/>
					<path fill="#285C75" d="M12.9,50.4l2.3-0.3c0,0.1,0,0.1,0,0.2c0,0.2,0.1,0.3,0.1,0.5l-2.2,0.5C13.1,51,13,50.7,13,50.5
						C13,50.5,13,50.4,12.9,50.4"/>
					<path fill="#295E78" d="M13.2,51.2l2.2-0.5c0,0.1,0,0.2,0.1,0.2l-2.2,0.7C13.2,51.5,13.2,51.3,13.2,51.2"/>
					<path fill="#2A607B" d="M13.3,51.6l2.2-0.7c0,0.1,0,0.1,0.1,0.2l-2.1,0.8C13.4,51.8,13.3,51.7,13.3,51.6"/>
					<path fill="#2B637E" d="M13.4,51.9l2.1-0.8c0,0,0,0.1,0.1,0.1l-2.1,0.9C13.5,52,13.4,51.9,13.4,51.9"/>
					<path fill="#2C6581" d="M13.5,52.1l2.1-0.9c0,0,0,0.1,0.1,0.1l-2,1C13.6,52.2,13.5,52.2,13.5,52.1"/>
					<path fill="#2D6784" d="M13.6,52.3l2-1c0,0,0,0.1,0,0.1l-2,1C13.7,52.4,13.6,52.3,13.6,52.3"/>
					<path fill="#2E6986" d="M13.7,52.5l2-1c0,0,0,0.1,0,0.1l-1.9,1.1C13.7,52.6,13.7,52.5,13.7,52.5"/>
					<path fill="#2F6C89" d="M13.8,52.6l1.9-1.1c0,0,0,0.1,0,0.1l-1.9,1.2C13.8,52.7,13.8,52.7,13.8,52.6"/>
					<path fill="#306E8C" d="M13.9,52.8l1.9-1.2c0,0,0,0,0,0.1L14,52.9C13.9,52.8,13.9,52.8,13.9,52.8"/>
					<path fill="#31708F" d="M14,52.9l1.8-1.2c0,0,0,0,0.1,0.1L14.1,53C14.1,53,14,52.9,14,52.9"/>
					<path fill="#4A819C" d="M14.1,53l1.8-1.3c0,0,0,0,0.1,0.1l-1.7,1.3C14.2,53.1,14.1,53.1,14.1,53"/>
					<path fill="#5488A2" d="M14.2,53.2l1.7-1.3c0,0,0,0.1,0.1,0.1l-1.6,1.4C14.3,53.3,14.3,53.2,14.2,53.2"/>
					<path fill="#5C8EA6" d="M14.4,53.3l1.6-1.4c0,0,0.1,0.1,0.1,0.1l-1.5,1.5C14.5,53.4,14.4,53.4,14.4,53.3"/>
					<path fill="#6292AA" d="M14.6,53.5l1.5-1.5c0.1,0.1,0.2,0.1,0.3,0.2l-1.1,1.7C15,53.7,14.8,53.6,14.6,53.5"/>
					<path fill="#5C8EA6" d="M15.2,53.8l1.1-1.7c0.1,0,0.1,0,0.2,0.1l-0.9,1.7C15.5,53.9,15.4,53.9,15.2,53.8"/>
					<path fill="#5488A2" d="M15.6,53.9l0.9-1.7c0,0,0.1,0,0.1,0L16,54C15.9,54,15.8,54,15.6,53.9"/>
					<path fill="#4A819C" d="M16,54l0.7-1.8c0,0,0.1,0,0.2,0l-0.5,1.8C16.2,54,16.1,54,16,54"/>
					<path fill="#31708F" d="M16.4,54.1l0.5-1.8c0,0,0,0,0.1,0c0.1,0,0.2,0,0.3,0L17,54.1c-0.2,0-0.3,0-0.5,0
						C16.5,54.1,16.4,54.1,16.4,54.1"/>
					<path fill="#306E8C" d="M17,54.1l0.2-1.9c0,0,0,0,0.1,0l-0.1,1.9C17,54.1,17,54.1,17,54.1"/>
					<path fill="#2F6C89" d="M17.1,54.1l0.1-1.9c0,0,0,0,0.1,0L17.1,54.1C17.1,54.1,17.1,54.1,17.1,54.1"/>
					<path fill="#2E6986" d="M17.2,54.1l0.1-1.9c0,0,0,0,0,0L17.2,54.1C17.2,54.1,17.2,54.1,17.2,54.1"/>
					<path fill="#2D6784" d="M17.3,54l0-1.9c0,0,0,0,0,0L17.3,54C17.3,54,17.3,54,17.3,54"/>
					<path fill="#2C6581" d="M17.4,54l0-1.8c0,0,0,0,0,0l0.1,1.8C17.4,54,17.4,54,17.4,54"/>
					<path fill="#2B637E" d="M17.5,54l-0.1-1.8c0,0,0,0,0.1,0l0.1,1.7C17.6,53.9,17.5,53.9,17.5,54"/>
					<polyline fill="#2A607B" points="17.6,53.9 17.5,52.2 17.5,52.2 17.5,52.2 17.6,53.9 17.6,53.9 17.6,53.9 					"/>
					<path fill="#2B637E" d="M17.6,53.9l-0.1-1.7c0,0,0.1,0,0.1,0l0.3,1.7C17.8,53.8,17.7,53.9,17.6,53.9"/>
					<path fill="#2C6581" d="M17.9,53.8l-0.3-1.7c0,0,0.1,0,0.1-0.1l0.5,1.6C18.1,53.7,18,53.8,17.9,53.8"/>
					<path fill="#2B637E" d="M18.2,53.7l-0.5-1.6c0,0,0.1,0,0.1-0.1l0.6,1.5C18.4,53.6,18.3,53.6,18.2,53.7"/>
					<path fill="#2A607B" d="M18.5,53.6L17.9,52c0,0,0.1,0,0.1-0.1l0.8,1.5C18.7,53.5,18.6,53.5,18.5,53.6"/>
					<path fill="#295E78" d="M18.8,53.4L18,52c0,0,0.1,0,0.1-0.1l0.9,1.4C18.9,53.4,18.8,53.4,18.8,53.4"/>
					<path fill="#285C75" d="M19,53.3l-0.9-1.4c0,0,0.1,0,0.1-0.1l1,1.3C19.1,53.2,19,53.3,19,53.3"/>
					<path fill="#275A72" d="M19.1,53.2l-1-1.3c0,0,0,0,0.1-0.1l1.1,1.3C19.2,53.1,19.2,53.2,19.1,53.2"/>
					<path fill="#265770" d="M19.3,53.1l-1.1-1.3c0,0,0,0,0.1-0.1l1.1,1.2C19.4,53,19.3,53,19.3,53.1"/>
					<path fill="#25556D" d="M19.4,53l-1.1-1.2c0,0,0,0,0.1-0.1l1.2,1.2C19.5,52.9,19.5,52.9,19.4,53"/>
					<path fill="#24536A" d="M19.6,52.8l-1.2-1.2c0,0,0,0,0.1-0.1l1.3,1.1C19.6,52.7,19.6,52.8,19.6,52.8"/>
					<path fill="#235167" d="M19.7,52.7l-1.3-1.1c0,0,0,0,0-0.1l1.3,1C19.7,52.6,19.7,52.7,19.7,52.7"/>
					<path fill="#224E64" d="M19.8,52.6l-1.3-1c0,0,0,0,0-0.1l1.4,0.9C19.8,52.5,19.8,52.5,19.8,52.6"/>
					<path fill="#214C61" d="M19.9,52.4l-1.4-0.9c0,0,0,0,0-0.1l1.4,0.9C19.9,52.3,19.9,52.4,19.9,52.4"/>
					<path fill="#204A5E" d="M20,52.3l-1.4-0.9c0,0,0-0.1,0-0.1l1.5,0.8C20,52.2,20,52.2,20,52.3"/>
					<path fill="#1F485C" d="M20,52.1l-1.5-0.8c0,0,0-0.1,0-0.1l1.5,0.7C20.1,52,20.1,52.1,20,52.1"/>
					<path fill="#1E4559" d="M20.1,51.9l-1.5-0.7c0,0,0-0.1,0-0.1l1.6,0.6C20.2,51.8,20.2,51.9,20.1,51.9"/>
					<path fill="#1D4356" d="M20.2,51.7l-1.6-0.6c0,0,0-0.1,0-0.1l1.6,0.4C20.2,51.5,20.2,51.6,20.2,51.7"/>
					<path fill="#1C4153" d="M20.3,51.4L18.7,51c0-0.1,0-0.1,0-0.2l1.6,0.3C20.3,51.2,20.3,51.3,20.3,51.4"/>
					<path fill="#1B3F50" d="M20.3,51.1l-1.6-0.3c0-0.1,0-0.2,0-0.3l1.7,0C20.3,50.8,20.3,50.9,20.3,51.1"/>
					<path fill="#1A3C4D" d="M20.3,50.6l-1.7,0c0-0.2,0-0.4-0.1-0.7l1.6-0.4C20.3,49.8,20.3,50.2,20.3,50.6"/>
					<path fill="#193A4A" d="M20.2,49.4l-1.6,0.4c0-0.2-0.1-0.3-0.1-0.5c0-0.2-0.1-0.4-0.1-0.6l1.6-0.6c0,0.2,0.1,0.3,0.1,0.5
						C20.1,48.9,20.2,49.2,20.2,49.4"/>
					<path fill="#1A3C4D" d="M20,48.2l-1.6,0.6c-0.2-0.9-0.2-1.8-0.3-2.7l1.6-0.2C19.7,46.7,19.8,47.4,20,48.2"/>
					<path fill="#1B3F50" d="M19.7,45.9l-1.6,0.2c0-0.6,0-1.3,0.1-1.9l1.6,0C19.8,44.8,19.7,45.4,19.7,45.9"/>
					<path fill="#1C4153" d="M19.8,44.3l-1.6,0c0.1-0.5,0.1-1,0.3-1.5l1.6,0.2C19.9,43.4,19.9,43.8,19.8,44.3"/>
					<path fill="#1D4356" d="M20,42.9l-1.6-0.2c0.1-0.4,0.2-0.9,0.3-1.3l1.5,0.4C20.2,42.2,20.1,42.5,20,42.9"/>
					<path fill="#1E4559" d="M20.3,41.8l-1.5-0.4c0.1-0.4,0.3-0.8,0.4-1.1l1.5,0.6C20.5,41.1,20.4,41.5,20.3,41.8"/>
					<path fill="#1F485C" d="M20.7,40.8l-1.5-0.6c0.1-0.3,0.3-0.7,0.4-1l1.4,0.7C20.9,40.2,20.8,40.5,20.7,40.8"/>
					<path fill="#204A5E" d="M21.1,40l-1.4-0.7c0.2-0.3,0.3-0.6,0.5-0.9l1.3,0.8C21.3,39.4,21.2,39.7,21.1,40"/>
					<path fill="#214C61" d="M21.5,39.2l-1.3-0.8c0.2-0.3,0.3-0.6,0.5-0.8l1.3,0.9C21.8,38.7,21.6,38.9,21.5,39.2"/>
					<path fill="#224E64" d="M21.9,38.4l-1.3-0.9c0.2-0.3,0.4-0.5,0.5-0.8l1.2,1C22.2,38,22.1,38.2,21.9,38.4"/>
					<path fill="#235167" d="M22.4,37.8l-1.2-1c0.2-0.2,0.4-0.5,0.6-0.7l1.1,1.1C22.7,37.4,22.5,37.6,22.4,37.8"/>
					<path fill="#24536A" d="M22.9,37.2L21.8,36c0.2-0.2,0.4-0.4,0.6-0.6l1,1.2C23.2,36.8,23,37,22.9,37.2"/>
					<path fill="#25556D" d="M23.4,36.6l-1-1.2c0.2-0.2,0.4-0.4,0.6-0.6l1,1.3C23.7,36.3,23.6,36.4,23.4,36.6"/>
					<path fill="#265770" d="M23.9,36.1l-1-1.3c0.2-0.2,0.4-0.4,0.6-0.6l0.9,1.4C24.3,35.8,24.1,35.9,23.9,36.1"/>
					<path fill="#275A72" d="M24.5,35.6l-0.9-1.4c0.2-0.2,0.4-0.4,0.7-0.5l0.8,1.4C24.9,35.3,24.7,35.5,24.5,35.6"/>
					<path fill="#285C75" d="M25.1,35.2l-0.8-1.4c0.2-0.2,0.5-0.3,0.7-0.5l0.7,1.5C25.5,34.9,25.3,35,25.1,35.2"/>
					<path fill="#295E78" d="M25.7,34.8L25,33.2c0.2-0.2,0.5-0.3,0.7-0.4l0.6,1.6C26.1,34.5,25.9,34.6,25.7,34.8"/>
					<path fill="#2A607B" d="M26.3,34.4l-0.6-1.6c0.3-0.1,0.5-0.3,0.8-0.4L27,34C26.7,34.1,26.5,34.3,26.3,34.4"/>
					<path fill="#2B637E" d="M27,34l-0.5-1.6c0.3-0.1,0.5-0.2,0.8-0.4l0.4,1.7C27.4,33.8,27.2,33.9,27,34"/>
					<path fill="#2C6581" d="M27.7,33.7L27.3,32c0.3-0.1,0.6-0.2,0.9-0.3l0.2,1.7C28.2,33.5,27.9,33.6,27.7,33.7"/>
					<path fill="#2D6784" d="M28.4,33.4l-0.2-1.7c0.3-0.1,0.6-0.2,0.9-0.3l0.1,1.7C28.9,33.3,28.7,33.4,28.4,33.4"/>
					<path fill="#2E6986" d="M29.2,33.2l-0.1-1.7c0.3-0.1,0.6-0.2,1-0.2l0,1.8C29.8,33.1,29.5,33.1,29.2,33.2"/>
					<path fill="#2F6C89" d="M30,33l0-1.8c0.3-0.1,0.7-0.1,1.1-0.2L31,32.9C30.6,32.9,30.3,33,30,33"/>
					<path fill="#306E8C" d="M31,32.9l0.2-1.8c0.4,0,0.7-0.1,1.1-0.1c0.2,0,0.5,0,0.7-0.1l-0.1,1.8c-0.3,0-0.6,0.1-0.9,0.1
						C31.6,32.8,31.3,32.8,31,32.9"/>
					<path fill="#2F6C89" d="M32.8,32.7l0.1-1.8c0.2,0,0.4-0.1,0.6-0.1l0,1.8C33.3,32.7,33.1,32.7,32.8,32.7"/>
					<path fill="#2E6986" d="M33.6,32.6l0-1.8c0.2,0,0.3-0.1,0.5-0.1l0.2,1.7C34,32.5,33.8,32.6,33.6,32.6"/>
					<path fill="#2D6784" d="M34.2,32.5L34,30.7c0.1,0,0.3-0.1,0.4-0.1l0.3,1.7C34.6,32.4,34.4,32.4,34.2,32.5"/>
					<path fill="#2C6581" d="M34.8,32.3l-0.3-1.7c0.1,0,0.3-0.1,0.4-0.1l0.4,1.7C35.1,32.2,34.9,32.3,34.8,32.3"/>
					<path fill="#2B637E" d="M35.3,32.1l-0.4-1.7c0.1,0,0.2-0.1,0.3-0.2l0.5,1.6C35.6,32,35.4,32.1,35.3,32.1"/>
					<path fill="#2A607B" d="M35.7,31.9l-0.5-1.6c0.1-0.1,0.2-0.1,0.3-0.2l0.6,1.5C36,31.8,35.8,31.9,35.7,31.9"/>
					<path fill="#295E78" d="M36.1,31.7l-0.6-1.5c0.1-0.1,0.2-0.1,0.3-0.2l0.7,1.5C36.4,31.6,36.2,31.6,36.1,31.7"/>
					<path fill="#285C75" d="M36.5,31.5L35.8,30c0.1-0.1,0.2-0.1,0.3-0.2l0.8,1.4C36.7,31.3,36.6,31.4,36.5,31.5"/>
					<path fill="#275A72" d="M36.8,31.2L36,29.8c0.1-0.1,0.2-0.1,0.2-0.2l0.9,1.4C37.1,31.1,37,31.2,36.8,31.2"/>
					<path fill="#265770" d="M37.2,31l-0.9-1.4c0.1-0.1,0.2-0.1,0.2-0.2l1,1.3C37.4,30.8,37.3,30.9,37.2,31"/>
					<path fill="#25556D" d="M37.5,30.7l-1-1.3c0.1-0.1,0.2-0.1,0.2-0.2l1,1.2C37.7,30.5,37.6,30.6,37.5,30.7"/>
					<path fill="#24536A" d="M37.8,30.4l-1-1.2c0.1-0.1,0.1-0.2,0.2-0.2l1.1,1.1C38,30.2,37.9,30.3,37.8,30.4"/>
					<path fill="#235167" d="M38.1,30.1L37,29c0.1-0.1,0.1-0.2,0.2-0.3l1.2,1C38.3,29.9,38.2,30,38.1,30.1"/>
					<path fill="#224E64" d="M38.4,29.8l-1.2-1c0.1-0.1,0.1-0.2,0.2-0.3l1.3,0.9C38.6,29.5,38.5,29.6,38.4,29.8"/>
					<path fill="#214C61" d="M38.6,29.4l-1.3-0.9c0.1-0.1,0.1-0.2,0.2-0.3l1.3,0.8C38.8,29.1,38.7,29.2,38.6,29.4"/>
					<path fill="#204A5E" d="M38.9,28.9l-1.3-0.8c0.1-0.1,0.1-0.3,0.2-0.4l1.4,0.7C39.1,28.6,39,28.8,38.9,28.9"/>
					<path fill="#1F485C" d="M39.2,28.4l-1.4-0.7c0.1-0.1,0.1-0.3,0.2-0.5l1.5,0.5C39.4,28,39.3,28.2,39.2,28.4"/>
					<path fill="#1E4559" d="M39.5,27.8L38,27.2c0,0,0,0,0-0.1c0.4-1.1,0.8-2.2,1.2-3.4l1.5,0.4C40.4,25.4,40,26.5,39.5,27.8
						C39.5,27.7,39.5,27.7,39.5,27.8"/>
					<path fill="#1D4356" d="M40.7,24.2l-1.5-0.4c0.5-1.5,0.8-2.9,1.2-4.4l1.6,0.2C41.6,21.1,41.2,22.7,40.7,24.2"/>
					<path fill="#1C4153" d="M42,19.6l-1.6-0.2c0.1-0.6,0.2-1.2,0.4-1.8c0.1-0.7,0.2-1.3,0.3-2l1.6,0.1c-0.1,0.7-0.2,1.4-0.3,2.1
						C42.2,18.4,42.1,19,42,19.6"/>
					<path fill="#1B3F50" d="M42.6,15.7L41,15.6c0.3-2.5,0.3-5,0.6-7.5l1.6,0C43,10.6,42.9,13.1,42.6,15.7"/>
					<path fill="#1C4153" d="M43.2,8.1l-1.6,0c0-0.2,0-0.3,0.1-0.5c0-0.4,0.1-0.8,0.2-1.1l1.6,0.3c-0.1,0.3-0.1,0.6-0.2,0.9
						C43.3,7.8,43.3,8,43.2,8.1"/>
					<path fill="#1D4356" d="M43.4,6.8l-1.6-0.3c0.1-0.4,0.2-0.8,0.3-1.2l1.4,0.5C43.6,6.2,43.5,6.4,43.4,6.8"/>
					<path fill="#1E4559" d="M43.7,5.9l-1.4-0.5c0.1-0.3,0.3-0.7,0.4-1l1.2,0.8C43.8,5.4,43.7,5.6,43.7,5.9"/>
					<path fill="#1F485C" d="M43.9,5.2l-1.2-0.8c0.1-0.3,0.3-0.5,0.4-0.8l1,1.2C44,4.9,43.9,5,43.9,5.2"/>
					<path fill="#204A5E" d="M44,4.7l-1-1.2c0.1-0.2,0.2-0.4,0.4-0.6l0.7,1.5C44.1,4.5,44.1,4.6,44,4.7"/>
					<path fill="#214C61" d="M44.2,4.4L43.4,3c0.1-0.2,0.2-0.3,0.3-0.4l0.5,1.7C44.2,4.3,44.2,4.4,44.2,4.4"/>
					<path fill="#224E64" d="M44.2,4.3l-0.5-1.7c0.1-0.1,0.2-0.2,0.3-0.4l0.2,2C44.3,4.2,44.3,4.2,44.2,4.3"/>
					<path fill="#235167" d="M44.3,4.2l-0.2-2c0.1-0.1,0.2-0.2,0.3-0.3L44.3,4.2C44.3,4.1,44.3,4.1,44.3,4.2"/>
					<path fill="#24536A" d="M44.3,4.1l0-2.2c0.1-0.1,0.2-0.2,0.2-0.3L44.3,4.1C44.4,4.1,44.4,4.1,44.3,4.1"/>
					<path fill="#25556D" d="M44.4,4.1l0.2-2.4c0,0,0.1-0.1,0.1-0.1L44.4,4.1C44.4,4,44.4,4,44.4,4.1"/>
				</g>
			</g>
			<g enable-background="new    ">
				<defs>
					<path id="SVGID_21_" enable-background="new    " d="M55.5,31.4L54,30.6c-0.6-0.3-1-0.9-1.2-1.7c-0.3-1.4-0.4-2.9-0.6-4.3
						l1.5,0.8c0.2,1.3,0.2,2.8,0.6,4.3C54.5,30.6,54.9,31.1,55.5,31.4z"/>
				</defs>
				<clipPath id="SVGID_22_">
					<use xlink:href="#SVGID_21_"  overflow="visible"/>
				</clipPath>
				<g clip-path="url(#SVGID_22_)" enable-background="new    ">
					<path fill="#1B3F50" d="M52.2,24.7l1.5,0.8c0.1,0.9,0.2,1.9,0.3,2.9l-1.5-0.8C52.4,26.6,52.3,25.6,52.2,24.7"/>
					<path fill="#1C4153" d="M52.5,27.6l1.5,0.8c0.1,0.4,0.1,0.9,0.2,1.3l-1.5-0.8C52.7,28.5,52.6,28,52.5,27.6"/>
					<path fill="#1D4356" d="M52.8,28.9l1.5,0.8c0,0,0,0,0,0.1c0,0.1,0,0.2,0.1,0.2l-1.5-0.8C52.8,29.1,52.8,29.1,52.8,28.9
						C52.8,29,52.8,28.9,52.8,28.9"/>
					<path fill="#1E4559" d="M52.8,29.2l1.5,0.8c0,0.1,0,0.1,0.1,0.2l-1.5-0.8C52.9,29.4,52.9,29.3,52.8,29.2"/>
					<path fill="#1F485C" d="M52.9,29.4l1.5,0.8c0,0.1,0.1,0.1,0.1,0.2L53,29.6C53,29.5,52.9,29.5,52.9,29.4"/>
					<path fill="#204A5E" d="M53,29.6l1.5,0.8c0,0.1,0.1,0.1,0.1,0.2l-1.5-0.8C53,29.7,53,29.7,53,29.6"/>
					<path fill="#214C61" d="M53.1,29.8l1.5,0.8c0,0.1,0.1,0.1,0.1,0.1l-1.5-0.8C53.1,29.9,53.1,29.8,53.1,29.8"/>
					<path fill="#224E64" d="M53.2,29.9l1.5,0.8c0,0,0.1,0.1,0.1,0.1l-1.5-0.8C53.2,30,53.2,30,53.2,29.9"/>
					<path fill="#235167" d="M53.3,30.1l1.5,0.8c0,0,0.1,0.1,0.1,0.1l-1.5-0.8C53.3,30.1,53.3,30.1,53.3,30.1"/>
					<path fill="#24536A" d="M53.4,30.2l1.5,0.8c0,0.1,0.1,0.1,0.2,0.1l-1.5-0.8C53.5,30.3,53.4,30.2,53.4,30.2"/>
					<path fill="#25556D" d="M53.5,30.3l1.5,0.8c0.1,0.1,0.1,0.1,0.2,0.2l-1.5-0.8C53.7,30.5,53.6,30.4,53.5,30.3"/>
					<path fill="#265770" d="M53.8,30.5l1.5,0.8c0.1,0.1,0.2,0.1,0.2,0.1L54,30.6C53.9,30.6,53.8,30.6,53.8,30.5"/>
				</g>
			</g>
			<g enable-background="new    ">
				<defs>
					<path id="SVGID_23_" enable-background="new    " d="M48.4,41.8l1.5,0.8c1,5.2,0,10.2-3.3,14.7l-1.5-0.8
						C48.4,51.9,49.4,46.9,48.4,41.8z"/>
				</defs>
				<clipPath id="SVGID_24_">
					<use xlink:href="#SVGID_23_"  overflow="visible"/>
				</clipPath>
				<g clip-path="url(#SVGID_24_)" enable-background="new    ">
					<path fill="#1C4153" d="M48.4,41.8l1.5,0.8c0.1,0.3,0.1,0.7,0.2,1l-1.5-0.8C48.6,42.4,48.5,42.1,48.4,41.8"/>
					<path fill="#1B3F50" d="M48.6,42.8l1.5,0.8c0.1,0.6,0.1,1.3,0.2,1.9l-1.5-0.8C48.7,44,48.7,43.4,48.6,42.8"/>
					<path fill="#1A3C4D" d="M48.8,44.6l1.5,0.8c0,0.7,0,1.5,0,2.2l-1.5-0.8C48.8,46.1,48.8,45.4,48.8,44.6"/>
					<path fill="#193A4A" d="M48.7,46.8l1.5,0.8c-0.2,3.4-1.4,6.6-3.6,9.6l-1.5-0.8C47.3,53.4,48.5,50.2,48.7,46.8"/>
				</g>
			</g>
			<g enable-background="new    ">
				<defs>
					<path id="SVGID_25_" enable-background="new    " d="M57.4,11.3l1.5,0.8c2.2,1.1,4.1,3,5.3,5.7c0.4,0.9,0.6,1.8,0.8,2.8
						c0.5,2.6,0.2,3.3-2.4,3.8c-2.8,0.6-5.7,0.7-8.9,1.1l-1.5-0.8c3.2-0.4,6.1-0.6,8.9-1.1c2.6-0.5,2.9-1.2,2.4-3.8
						c-0.2-0.9-0.4-1.9-0.8-2.8C61.5,14.3,59.6,12.4,57.4,11.3z"/>
				</defs>
				<clipPath id="SVGID_26_">
					<use xlink:href="#SVGID_25_"  overflow="visible"/>
				</clipPath>
				<g clip-path="url(#SVGID_26_)" enable-background="new    ">
					<path fill="#265770" d="M57.4,11.3l1.5,0.8c0.4,0.2,0.8,0.4,1.2,0.7L58.6,12C58.2,11.7,57.8,11.5,57.4,11.3"/>
					<path fill="#25556D" d="M58.6,12l1.5,0.8c0.4,0.2,0.7,0.5,1.1,0.8l-1.5-0.8C59.3,12.5,58.9,12.2,58.6,12"/>
					<path fill="#24536A" d="M59.6,12.8l1.5,0.8c0.3,0.2,0.5,0.5,0.8,0.7l-1.5-0.8C60.2,13.3,59.9,13,59.6,12.8"/>
					<path fill="#235167" d="M60.4,13.5l1.5,0.8c0.2,0.2,0.4,0.5,0.6,0.7L61,14.2C60.8,14,60.6,13.8,60.4,13.5"/>
					<path fill="#224E64" d="M61,14.2l1.5,0.8c0.2,0.2,0.4,0.5,0.5,0.7L61.6,15C61.4,14.7,61.2,14.5,61,14.2"/>
					<path fill="#214C61" d="M61.6,15l1.5,0.8c0.2,0.3,0.3,0.5,0.5,0.8l-1.5-0.8C61.9,15.5,61.7,15.2,61.6,15"/>
					<path fill="#204A5E" d="M62.1,15.8l1.5,0.8c0.2,0.3,0.3,0.6,0.5,0.9l-1.5-0.8C62.4,16.3,62.2,16.1,62.1,15.8"/>
					<path fill="#1F485C" d="M62.5,16.7l1.5,0.8c0.1,0.1,0.1,0.3,0.2,0.4c0.1,0.1,0.1,0.2,0.1,0.4l-1.5-0.8c0-0.1-0.1-0.2-0.1-0.4
						C62.6,16.9,62.6,16.8,62.5,16.7"/>
					<path fill="#1E4559" d="M62.8,17.4l1.5,0.8c0.1,0.2,0.2,0.5,0.2,0.7l-1.5-0.8C63,17.9,62.9,17.6,62.8,17.4"/>
					<path fill="#1D4356" d="M63.1,18.1l1.5,0.8c0.1,0.3,0.2,0.7,0.3,1l-1.5-0.8C63.3,18.8,63.2,18.4,63.1,18.1"/>
					<path fill="#1C4153" d="M63.3,19.1l1.5,0.8c0.1,0.2,0.1,0.5,0.1,0.7c0.1,0.3,0.1,0.5,0.1,0.8l-1.5-0.8c0-0.2-0.1-0.5-0.1-0.8
						C63.4,19.6,63.4,19.3,63.3,19.1"/>
					<path fill="#1B3F50" d="M63.6,20.6l1.5,0.8c0,0.2,0.1,0.5,0.1,0.7l-1.5-0.8C63.7,21,63.6,20.8,63.6,20.6"/>
					<path fill="#1A3C4D" d="M63.7,21.2l1.5,0.8c0,0.2,0,0.3,0,0.4l-1.5-0.8C63.7,21.5,63.7,21.4,63.7,21.2"/>
					<path fill="#193A4A" d="M63.7,21.7l1.5,0.8c-0.1,1.1-0.8,1.6-2.6,1.9c-2.8,0.6-5.7,0.7-8.9,1.1l-1.5-0.8
						c3.2-0.4,6.1-0.6,8.9-1.1C62.9,23.2,63.6,22.8,63.7,21.7"/>
				</g>
			</g>
			<g enable-background="new    ">
				<defs>
					<path id="SVGID_27_" enable-background="new    " d="M58.7,31.7l1.5,0.8c1.1,0.6,2,1.5,2.7,2.7c0.4,0.7,0.3,1.8,0.1,2.5
						C63,37.9,62.2,38,61.5,38c-0.2,0-0.3,0-0.5,0c-0.8,0-1.7-0.3-2.5-0.4c-0.5,0-1.1-0.1-1.6-0.1c-1.5,0-2.9,0.4-3.8,2.3
						c-0.5,1.1-2,1.7-3.1,2.7l-1.5-0.8c1.1-1,2.6-1.6,3.1-2.7c0.9-1.9,2.3-2.3,3.8-2.3c0.5,0,1.1,0,1.6,0.1c0.8,0.1,1.7,0.3,2.5,0.4
						c0.1,0,0.3,0,0.5,0c0.7,0,1.5-0.1,1.6-0.3c0.3-0.7,0.3-1.8-0.1-2.5C60.8,33.2,59.9,32.3,58.7,31.7z"/>
				</defs>
				<clipPath id="SVGID_28_">
					<use xlink:href="#SVGID_27_"  overflow="visible"/>
				</clipPath>
				<g clip-path="url(#SVGID_28_)" enable-background="new    ">
					<path fill="#265770" d="M58.7,31.7l1.5,0.8c0.2,0.1,0.4,0.2,0.6,0.4l-1.5-0.8C59.2,31.9,59,31.8,58.7,31.7"/>
					<path fill="#25556D" d="M59.4,32.1l1.5,0.8c0.2,0.1,0.4,0.3,0.6,0.5L60,32.5C59.8,32.4,59.6,32.2,59.4,32.1"/>
					<path fill="#24536A" d="M60,32.5l1.5,0.8c0.2,0.1,0.3,0.3,0.4,0.4L60.4,33C60.3,32.8,60.1,32.7,60,32.5"/>
					<path fill="#235167" d="M60.4,33l1.5,0.8c0.1,0.1,0.2,0.3,0.4,0.4l-1.5-0.8C60.7,33.2,60.5,33.1,60.4,33"/>
					<path fill="#224E64" d="M60.8,33.4l1.5,0.8c0.1,0.1,0.2,0.3,0.3,0.4l-1.5-0.8C61,33.7,60.9,33.5,60.8,33.4"/>
					<path fill="#214C61" d="M61.1,33.8l1.5,0.8c0.1,0.1,0.2,0.3,0.3,0.5l-1.5-0.8C61.3,34.1,61.2,34,61.1,33.8"/>
					<path fill="#204A5E" d="M61.4,34.3l1.5,0.8c0,0,0.1,0.1,0.1,0.1c0,0,0,0,0,0.1l-1.5-0.8c0,0,0-0.1,0-0.1
						C61.4,34.4,61.4,34.3,61.4,34.3"/>
					<path fill="#1F485C" d="M61.5,34.5l1.5,0.8c0,0,0,0.1,0.1,0.1l-1.5-0.8C61.5,34.6,61.5,34.5,61.5,34.5"/>
					<path fill="#1E4559" d="M61.5,34.6l1.5,0.8c0,0,0,0.1,0.1,0.1l-1.5-0.8C61.6,34.7,61.6,34.7,61.5,34.6"/>
					<path fill="#1D4356" d="M61.6,34.8l1.5,0.8c0,0.1,0,0.1,0,0.2l-1.5-0.8C61.6,34.9,61.6,34.8,61.6,34.8"/>
					<path fill="#1C4153" d="M61.7,34.9l1.5,0.8c0,0.1,0,0.2,0,0.2l-1.5-0.8C61.7,35.1,61.7,35,61.7,34.9"/>
					<path fill="#1B3F50" d="M61.7,35.2l1.5,0.8c0,0.1,0,0.2,0,0.3l-1.5-0.8C61.7,35.4,61.7,35.3,61.7,35.2"/>
					<path fill="#1A3C4D" d="M61.7,35.5l1.5,0.8c0,0.2,0,0.3,0,0.5l-1.5-0.8C61.7,35.8,61.7,35.6,61.7,35.5"/>
					<path fill="#193A4A" d="M61.7,35.9l1.5,0.8c0,0.3-0.1,0.7-0.2,1C63,37.9,62.2,38,61.5,38c-0.2,0-0.3,0-0.5,0
						c-0.8,0-1.7-0.3-2.5-0.4c-0.5,0-1.1-0.1-1.6-0.1c-1.5,0-2.9,0.4-3.8,2.3c-0.5,1.1-2,1.7-3.1,2.7l-1.5-0.8
						c1.1-1,2.6-1.6,3.1-2.7c0.9-1.9,2.3-2.3,3.8-2.3c0.5,0,1.1,0,1.6,0.1c0.8,0.1,1.7,0.3,2.5,0.4c0.1,0,0.3,0,0.5,0
						c0.7,0,1.5-0.1,1.6-0.3C61.6,36.6,61.7,36.3,61.7,35.9"/>
				</g>
			</g>
			<g enable-background="new    ">
				<defs>
					<path id="SVGID_29_" enable-background="new    " d="M26.3,62.8L24.7,62c2.2,1.1,4.4,1.8,6.9,1.8c0.1,0,0.1,0,0.2,0
						c2.1,0,4.3,0,6.4,0c3.3,0,6.6,0,10,0c1.7,0,2.4-0.8,1.8-2.3c-0.4-1.2-1.3-2.3-2.1-3.2c-0.7-0.7-1.8-1.1-2.8-1.8l1.5,0.8
						c1,0.6,2.1,1,2.8,1.8c0.9,0.9,1.7,2,2.1,3.2c0.6,1.6-0.1,2.3-1.8,2.3c-3.3,0-6.6,0-10,0c-2.1,0-4.3,0-6.4,0c-0.1,0-0.1,0-0.2,0
						C30.7,64.5,28.5,63.9,26.3,62.8z"/>
				</defs>
				<clipPath id="SVGID_30_">
					<use xlink:href="#SVGID_29_"  overflow="visible"/>
				</clipPath>
				<g clip-path="url(#SVGID_30_)" enable-background="new    ">
					<path fill="#265770" d="M45.2,56.4l1.5,0.8c0.7,0.4,1.4,0.8,2,1.2l-1.5-0.8C46.6,57.2,45.9,56.9,45.2,56.4"/>
					<path fill="#25556D" d="M47.2,57.6l1.5,0.8c0.2,0.1,0.3,0.2,0.5,0.4L47.7,58C47.5,57.9,47.4,57.7,47.2,57.6"/>
					<path fill="#24536A" d="M47.7,58l1.5,0.8c0.1,0.1,0.2,0.1,0.2,0.2c0,0,0,0,0,0L48,58.3c0,0,0,0,0,0
						C47.9,58.1,47.8,58.1,47.7,58"/>
					<path fill="#235167" d="M48,58.3l1.5,0.8c0.3,0.3,0.5,0.6,0.7,0.9l-1.5-0.8C48.5,58.8,48.2,58.5,48,58.3"/>
					<path fill="#224E64" d="M48.7,59.1l1.5,0.8c0.2,0.2,0.3,0.4,0.5,0.7l-1.5-0.8C49.1,59.6,48.9,59.3,48.7,59.1"/>
					<path fill="#214C61" d="M49.2,59.8l1.5,0.8c0.1,0.2,0.2,0.4,0.3,0.6l-1.5-0.8C49.5,60.2,49.4,60,49.2,59.8"/>
					<path fill="#204A5E" d="M49.6,60.4l1.5,0.8c0.1,0.2,0.2,0.3,0.3,0.5l-1.5-0.8C49.7,60.7,49.7,60.5,49.6,60.4"/>
					<path fill="#1F485C" d="M49.8,60.8l1.5,0.8c0.1,0.1,0.1,0.3,0.2,0.4L50,61.3C50,61.1,49.9,61,49.8,60.8"/>
					<path fill="#1E4559" d="M50,61.3l1.5,0.8c0,0.1,0,0.1,0.1,0.2c0,0.1,0,0.1,0.1,0.2l-1.5-0.8c0-0.1,0-0.1-0.1-0.2
						C50.1,61.4,50,61.3,50,61.3"/>
					<path fill="#1D4356" d="M50.1,61.6l1.5,0.8c0,0.1,0,0.2,0.1,0.2l-1.5-0.8C50.2,61.8,50.2,61.7,50.1,61.6"/>
					<path fill="#1C4153" d="M50.2,61.9l1.5,0.8c0,0.1,0,0.1,0,0.2l-1.5-0.8C50.2,62,50.2,62,50.2,61.9"/>
					<path fill="#1B3F50" d="M50.2,62.1l1.5,0.8c0,0.1,0,0.1,0,0.2l-1.5-0.8C50.3,62.2,50.3,62.2,50.2,62.1"/>
					<path fill="#1A3C4D" d="M50.3,62.3l1.5,0.8c0,0.1,0,0.1,0,0.2l-1.5-0.8C50.3,62.4,50.3,62.4,50.3,62.3"/>
					<path fill="#193A4A" d="M50.3,62.5l1.5,0.8c-0.1,0.8-0.8,1.2-2,1.2c-3.3,0-6.6,0-10,0c-2.1,0-4.3,0-6.4,0c-0.1,0-0.1,0-0.2,0
						c-2.5,0-4.7-0.7-6.9-1.8L24.7,62c2.2,1.1,4.4,1.8,6.9,1.8c0.1,0,0.1,0,0.2,0c2.1,0,4.3,0,6.4,0c3.3,0,6.6,0,10,0
						C49.5,63.7,50.2,63.3,50.3,62.5"/>
				</g>
			</g>
			<g enable-background="new    ">
				<defs>
					<path id="SVGID_31_" enable-background="new    " d="M45.9,40.8l2.5,1c1,5.2,0,10.2-3.3,14.7L42,56.8
						C46.1,51.1,47,46.6,45.9,40.8z"/>
				</defs>
				<clipPath id="SVGID_32_">
					<use xlink:href="#SVGID_31_"  overflow="visible"/>
				</clipPath>
				<g clip-path="url(#SVGID_32_)" enable-background="new    ">
					<path fill="#265770" d="M45.9,40.8l2.5,1c0.1,0.4,0.1,0.9,0.2,1.3l-2.5-0.8C46.1,41.8,46,41.3,45.9,40.8"/>
					<path fill="#25556D" d="M46.2,42.2l2.5,0.8c0.1,0.4,0.1,0.8,0.1,1.2l-2.5-0.7C46.3,43.1,46.2,42.7,46.2,42.2"/>
					<path fill="#24536A" d="M46.3,43.6l2.5,0.7c0,0.4,0,0.8,0,1.1l-2.4-0.7C46.4,44.4,46.3,44,46.3,43.6"/>
					<path fill="#235167" d="M46.4,44.8l2.4,0.7c0,0.4,0,0.7,0,1.1l-2.4-0.6C46.4,45.5,46.4,45.2,46.4,44.8"/>
					<path fill="#224E64" d="M46.3,45.9l2.4,0.6c0,0.4-0.1,0.7-0.1,1.1l-2.4-0.6C46.3,46.7,46.3,46.3,46.3,45.9"/>
					<path fill="#214C61" d="M46.2,47.1l2.4,0.6c0,0.4-0.1,0.7-0.2,1.1l-2.4-0.5C46.1,47.8,46.2,47.5,46.2,47.1"/>
					<path fill="#204A5E" d="M46.1,48.2l2.4,0.5c-0.1,0.4-0.2,0.8-0.3,1.2l-2.5-0.5C45.9,49,46,48.6,46.1,48.2"/>
					<path fill="#1F485C" d="M45.8,49.4l2.5,0.5c-0.1,0.4-0.2,0.8-0.4,1.3l-2.5-0.4C45.5,50.3,45.6,49.9,45.8,49.4"/>
					<path fill="#1E4559" d="M45.3,50.8l2.5,0.4c-0.2,0.5-0.3,0.9-0.5,1.4l-2.6-0.3C45,51.7,45.2,51.3,45.3,50.8"/>
					<path fill="#1D4356" d="M44.7,52.2l2.6,0.3c-0.2,0.5-0.4,1-0.7,1.5l-2.8-0.1C44.2,53.3,44.5,52.8,44.7,52.2"/>
					<path fill="#1C4153" d="M43.9,53.9l2.8,0.1c-0.3,0.5-0.6,1.1-0.9,1.6l-3,0.2C43.1,55.1,43.5,54.5,43.9,53.9"/>
					<path fill="#1B3F50" d="M42.7,55.8l3-0.2c-0.2,0.3-0.4,0.6-0.6,0.8L42,56.8C42.2,56.5,42.5,56.1,42.7,55.8"/>
				</g>
			</g>
			<g enable-background="new    ">
				<defs>
					<path id="SVGID_33_" enable-background="new    " d="M44.4,4l0.3-2.5c2.2,1.9,3.7,4,4.3,6.7c0.3,1.2,0.9,1.5,2.1,1.6
						c5.2,0.3,9.4,2.2,11.6,7.2c0.4,0.9,0.6,1.8,0.8,2.8c0.5,2.6,0.2,3.3-2.4,3.8c-2.8,0.6-5.7,0.7-8.9,1.1l-2.6-1.9
						c5.2-0.6,8-0.8,10.7-1.4c1.1-0.3,1-0.1,0.8-1.4c-0.2-0.8-0.4-1.6-0.7-2.3c-1.9-4.2-5.4-5.8-10-6.1c-2-0.1-3.3-0.8-3.8-3.1
						C46.2,6.3,44.9,4.5,44.4,4z"/>
				</defs>
				<clipPath id="SVGID_34_">
					<use xlink:href="#SVGID_33_"  overflow="visible"/>
				</clipPath>
				<g clip-path="url(#SVGID_34_)" enable-background="new    ">
					<path fill="#5488A2" d="M44.4,4l0.3-2.5c0.1,0.1,0.3,0.2,0.4,0.3l-0.5,2.3C44.4,4.1,44.4,4.1,44.4,4"/>
					<path fill="#4A819C" d="M44.5,4.1L45,1.9c0.2,0.1,0.3,0.3,0.5,0.4l-0.9,2C44.6,4.2,44.5,4.2,44.5,4.1"/>
					<path fill="#31708F" d="M44.6,4.3l0.9-2c0.2,0.2,0.4,0.4,0.5,0.6l-1.2,1.7C44.8,4.5,44.7,4.4,44.6,4.3"/>
					<path fill="#306E8C" d="M44.9,4.6l1.2-1.7c0.2,0.2,0.4,0.4,0.6,0.6l-1.5,1.4C45,4.8,44.9,4.7,44.9,4.6"/>
					<path fill="#2F6C89" d="M45.1,4.9l1.5-1.4c0.2,0.2,0.4,0.4,0.5,0.7l-1.7,1.2C45.3,5.2,45.2,5.1,45.1,4.9"/>
					<path fill="#2E6986" d="M45.4,5.4l1.7-1.2c0.1,0.2,0.3,0.4,0.4,0.6l-1.9,1C45.6,5.6,45.5,5.5,45.4,5.4"/>
					<path fill="#2D6784" d="M45.7,5.8l1.9-1c0.1,0.2,0.2,0.4,0.4,0.6l-2,0.9C45.8,6.1,45.7,5.9,45.7,5.8"/>
					<path fill="#2C6581" d="M45.9,6.2l2-0.9C48,5.6,48.1,5.8,48.2,6l-2.1,0.7C46,6.5,46,6.4,45.9,6.2"/>
					<path fill="#2B637E" d="M46.1,6.7L48.2,6c0.1,0.2,0.2,0.4,0.2,0.6l-2.2,0.6C46.2,7,46.2,6.8,46.1,6.7"/>
					<path fill="#2A607B" d="M46.3,7.1l2.2-0.6c0.1,0.2,0.1,0.4,0.2,0.5l-2.2,0.5C46.4,7.4,46.3,7.3,46.3,7.1"/>
					<path fill="#295E78" d="M46.4,7.6l2.2-0.5c0.1,0.2,0.1,0.4,0.2,0.5L46.6,8C46.5,7.9,46.5,7.7,46.4,7.6"/>
					<path fill="#285C75" d="M46.6,8l2.2-0.4c0,0.2,0.1,0.3,0.1,0.5l-2.3,0.3C46.7,8.3,46.6,8.2,46.6,8"/>
					<path fill="#275A72" d="M46.7,8.4L49,8.1c0,0,0,0.1,0,0.1c0,0,0,0,0,0l-2.3,0.4C46.7,8.6,46.7,8.5,46.7,8.4
						C46.7,8.5,46.7,8.5,46.7,8.4"/>
					<path fill="#285C75" d="M46.7,8.6L49,8.2c0,0.1,0,0.1,0,0.2l-2.2,0.5C46.8,8.8,46.8,8.7,46.7,8.6"/>
					<path fill="#295E78" d="M46.8,8.9L49,8.4c0,0,0,0.1,0,0.1l-2.2,0.6C46.9,9.1,46.9,9,46.8,8.9"/>
					<path fill="#2A607B" d="M46.9,9.2l2.2-0.6c0,0,0,0.1,0,0.1L47,9.4C47,9.4,46.9,9.3,46.9,9.2"/>
					<path fill="#2B637E" d="M47,9.4l2.1-0.8c0,0,0,0.1,0,0.1l-2.1,0.8C47.1,9.6,47,9.5,47,9.4"/>
					<path fill="#2C6581" d="M47.1,9.6l2.1-0.8c0,0,0,0.1,0,0.1l-2.1,0.9C47.1,9.7,47.1,9.7,47.1,9.6"/>
					<path fill="#2D6784" d="M47.2,9.8l2.1-0.9c0,0,0,0.1,0,0.1l-2,1C47.2,9.9,47.2,9.8,47.2,9.8"/>
					<path fill="#2E6986" d="M47.2,9.9l2-1c0,0,0,0,0,0.1l-2,1.1C47.3,10,47.3,10,47.2,9.9"/>
					<path fill="#2F6C89" d="M47.3,10.1l2-1.1c0,0,0,0,0,0.1l-1.9,1.1C47.4,10.2,47.4,10.1,47.3,10.1"/>
					<path fill="#306E8C" d="M47.4,10.2l1.9-1.1c0,0,0,0,0,0.1l-1.9,1.2C47.5,10.3,47.4,10.2,47.4,10.2"/>
					<path fill="#31708F" d="M47.5,10.3l1.9-1.2c0,0,0,0,0,0.1l-1.8,1.2C47.6,10.4,47.5,10.4,47.5,10.3"/>
					<path fill="#4A819C" d="M47.6,10.4l1.8-1.2c0,0,0,0,0.1,0.1l-1.8,1.3C47.7,10.5,47.6,10.5,47.6,10.4"/>
					<path fill="#5488A2" d="M47.7,10.6l1.8-1.3c0,0,0,0,0.1,0.1l-1.7,1.4C47.8,10.6,47.7,10.6,47.7,10.6"/>
					<path fill="#5C8EA6" d="M47.8,10.7l1.7-1.4c0,0,0.1,0.1,0.1,0.1L48,10.9C48,10.8,47.9,10.7,47.8,10.7"/>
					<path fill="#6292AA" d="M48,10.9l1.6-1.5c0.1,0.1,0.3,0.2,0.4,0.2l-1.2,1.7C48.5,11.2,48.3,11,48,10.9"/>
					<path fill="#5C8EA6" d="M48.9,11.3l1.2-1.7c0.1,0,0.2,0.1,0.2,0.1l-1,1.7C49.2,11.4,49,11.4,48.9,11.3"/>
					<path fill="#5488A2" d="M49.3,11.4l1-1.7c0.1,0,0.2,0,0.3,0l-0.8,1.8C49.6,11.5,49.5,11.5,49.3,11.4"/>
					<path fill="#4A819C" d="M49.8,11.5l0.8-1.8c0.1,0,0.3,0,0.4,0c0.6,0,1.2,0.1,1.8,0.2l-0.7,1.8c-0.5-0.1-1-0.1-1.6-0.1
						C50.3,11.6,50.1,11.6,49.8,11.5"/>
					<path fill="#5488A2" d="M52.1,11.7l0.7-1.8c0.6,0.1,1.2,0.2,1.8,0.3L53.7,12C53.2,11.9,52.7,11.8,52.1,11.7"/>
					<path fill="#5C8EA6" d="M53.7,12l0.9-1.7c0.7,0.2,1.4,0.4,2,0.7l-1.2,1.6C54.9,12.4,54.3,12.2,53.7,12"/>
					<path fill="#6292AA" d="M55.4,12.6l1.2-1.6c0.7,0.3,1.3,0.6,2,1l-1.5,1.5C56.6,13.1,56,12.8,55.4,12.6"/>
					<path fill="#5C8EA6" d="M57.1,13.5l1.5-1.5c0.4,0.2,0.7,0.5,1.1,0.8L58,14.1C57.7,13.9,57.4,13.7,57.1,13.5"/>
					<path fill="#5488A2" d="M58,14.1l1.7-1.3c0.2,0.2,0.4,0.4,0.6,0.5l-1.8,1.3C58.3,14.4,58.1,14.3,58,14.1"/>
					<path fill="#4A819C" d="M58.5,14.6l1.8-1.3c0.2,0.2,0.3,0.3,0.5,0.5L58.8,15C58.7,14.9,58.6,14.7,58.5,14.6"/>
					<path fill="#31708F" d="M58.8,15l1.8-1.2c0.1,0.1,0.3,0.3,0.4,0.5l-1.9,1.1C59.1,15.3,59,15.1,58.8,15"/>
					<path fill="#306E8C" d="M59.2,15.4l1.9-1.1c0.1,0.1,0.2,0.3,0.3,0.5l-1.9,1C59.4,15.7,59.3,15.5,59.2,15.4"/>
					<path fill="#2F6C89" d="M59.5,15.8l1.9-1c0.1,0.2,0.2,0.3,0.3,0.5l-2,1C59.6,16.1,59.5,15.9,59.5,15.8"/>
					<path fill="#2E6986" d="M59.7,16.2l2-1c0.1,0.2,0.2,0.3,0.3,0.5l-2,0.9C59.9,16.5,59.8,16.3,59.7,16.2"/>
					<path fill="#2D6784" d="M60,16.6l2-0.9c0.1,0.2,0.2,0.4,0.3,0.5l-2.1,0.8C60.1,16.9,60.1,16.7,60,16.6"/>
					<path fill="#2C6581" d="M60.2,17.1l2.1-0.8c0.1,0.2,0.2,0.4,0.3,0.6l-2.1,0.7C60.4,17.4,60.3,17.2,60.2,17.1"/>
					<path fill="#2B637E" d="M60.5,17.5l2.1-0.7c0,0.1,0.1,0.1,0.1,0.2c0,0.1,0.1,0.2,0.1,0.3l-2.2,0.6c0-0.1-0.1-0.1-0.1-0.2
						C60.5,17.6,60.5,17.6,60.5,17.5"/>
					<path fill="#2A607B" d="M60.6,17.9l2.2-0.6c0.1,0.1,0.1,0.3,0.2,0.4l-2.2,0.5C60.7,18.1,60.7,18,60.6,17.9"/>
					<path fill="#295E78" d="M60.7,18.2l2.2-0.5c0.1,0.2,0.1,0.3,0.2,0.5l-2.2,0.4C60.8,18.5,60.8,18.4,60.7,18.2"/>
					<path fill="#285C75" d="M60.9,18.6l2.2-0.4c0.1,0.2,0.1,0.4,0.2,0.6L61,19.2C61,19,60.9,18.8,60.9,18.6"/>
					<path fill="#275A72" d="M61,19.2l2.3-0.3c0.1,0.3,0.1,0.6,0.2,0.8l-2.3,0.2C61.1,19.6,61.1,19.4,61,19.2"/>
					<path fill="#265770" d="M61.2,19.9l2.3-0.2c0,0.1,0,0.1,0,0.2c0,0.3,0.1,0.5,0.1,0.7l-2.4-0.2c0-0.1,0-0.2,0-0.4
						C61.2,20,61.2,19.9,61.2,19.9"/>
					<path fill="#25556D" d="M61.2,20.4l2.4,0.2c0,0.2,0.1,0.4,0.1,0.6l-2.4-0.5C61.2,20.6,61.2,20.5,61.2,20.4"/>
					<path fill="#24536A" d="M61.3,20.6l2.4,0.5c0,0.1,0,0.2,0,0.3l-2.4-0.7C61.3,20.7,61.3,20.7,61.3,20.6"/>
					<path fill="#235167" d="M61.3,20.8l2.4,0.7c0,0.1,0,0.2,0,0.2L61.3,20.8C61.3,20.8,61.3,20.8,61.3,20.8"/>
					<path fill="#224E64" d="M61.3,20.9l2.4,0.8c0,0.1,0,0.1,0,0.2L61.3,20.9C61.3,20.9,61.3,20.9,61.3,20.9"/>
					<path fill="#214C61" d="M61.3,20.9l2.4,0.9c0,0.1,0,0.1,0,0.1L61.3,20.9C61.3,21,61.3,20.9,61.3,20.9"/>
					<path fill="#204A5E" d="M61.3,21l2.4,1c0,0,0,0.1,0,0.1L61.3,21C61.3,21,61.3,21,61.3,21"/>
					<path fill="#1F485C" d="M61.3,21l2.3,1.1c0,0,0,0.1,0,0.1L61.3,21C61.3,21,61.3,21,61.3,21"/>
					<path fill="#1E4559" d="M61.3,21l2.3,1.2c0,0,0,0.1,0,0.1L61.3,21C61.2,21.1,61.3,21.1,61.3,21"/>
					<path fill="#1D4356" d="M61.2,21.1l2.3,1.3c0,0,0,0.1-0.1,0.1L61.2,21.1C61.2,21.1,61.2,21.1,61.2,21.1"/>
					<path fill="#1C4153" d="M61.2,21.1l2.2,1.3c0,0,0,0.1-0.1,0.1L61.2,21.1C61.2,21.1,61.2,21.1,61.2,21.1"/>
					<path fill="#1B3F50" d="M61.2,21.1l2.2,1.4c0,0-0.1,0.1-0.1,0.1L61.2,21.1C61.2,21.2,61.2,21.1,61.2,21.1"/>
					<path fill="#1A3C4D" d="M61.2,21.2l2.1,1.5c-0.1,0.1-0.1,0.1-0.2,0.2L61.2,21.2C61.1,21.2,61.2,21.2,61.2,21.2"/>
					<path fill="#193A4A" d="M61.1,21.2l2,1.7c-0.4,0.3-1.1,0.5-2,0.7c-2.8,0.6-5.7,0.7-8.9,1.1l-2.6-1.9c5.2-0.6,8-0.8,10.7-1.4
						C60.8,21.3,61,21.3,61.1,21.2"/>
				</g>
			</g>
			<g enable-background="new    ">
				<defs>
					<path id="SVGID_35_" enable-background="new    " d="M61.2,36.8l-1.9-0.7c0.1-0.3,0.1-0.8,0.1-0.9c-0.9-1.6-2.3-2.4-4.2-2.4
						c-2.3,0-4.1-1.1-4.6-3.5c-0.4-1.6-0.4-3.2-0.8-6.5l2.6,1.9c0.2,1.3,0.2,2.8,0.6,4.3c0.3,1.4,1.3,2,2.8,2c2.6,0,4.7,1.1,5.9,3.4
						c0.4,0.7,0.3,1.8,0.1,2.5c-0.1,0.3-0.9,0.3-1.6,0.3c-0.2,0-0.3,0-0.5,0c-0.8,0-1.7-0.3-2.5-0.4c-0.5,0-1.1-0.1-1.6-0.1
						c-1.5,0-2.9,0.4-3.8,2.3c-0.5,1.1-2,1.7-3.1,2.7l-2.5-1c2.2-1.8,3.4-2.4,3.5-2.8c1.4-2.9,3.6-3.5,5.6-3.5c0.6,0,1.2,0,1.8,0.1
						c1,0.1,1.8,0.3,2.4,0.4c0.1,0,0.3,0,0.4,0c0.2,0,0.3,0,0.3,0C60.2,35.7,60.6,36.5,61.2,36.8z"/>
				</defs>
				<clipPath id="SVGID_36_">
					<use xlink:href="#SVGID_35_"  overflow="visible"/>
				</clipPath>
				<g clip-path="url(#SVGID_36_)" enable-background="new    ">
					<path fill="#25556D" d="M49.6,22.8l2.6,1.9c0.1,0.9,0.2,1.9,0.3,2.9l-2.3,0.1C50,26.5,49.9,25,49.6,22.8"/>
					<path fill="#265770" d="M50.2,27.7l2.3-0.1c0,0.3,0.1,0.6,0.1,0.9l-2.3,0.2C50.3,28.4,50.3,28,50.2,27.7"/>
					<path fill="#275A72" d="M50.4,28.7l2.3-0.2c0,0.2,0.1,0.3,0.1,0.5c0,0,0,0,0,0.1l-2.3,0.3c0,0,0-0.1,0-0.1
						C50.5,29.1,50.4,28.9,50.4,28.7"/>
					<path fill="#285C75" d="M50.5,29.4l2.3-0.3c0,0.1,0,0.1,0,0.2l-2.2,0.5C50.6,29.6,50.5,29.5,50.5,29.4"/>
					<path fill="#295E78" d="M50.6,29.6l2.2-0.5c0,0,0,0.1,0,0.1l-2.2,0.6C50.6,29.8,50.6,29.7,50.6,29.6"/>
					<path fill="#2A607B" d="M50.7,29.9l2.2-0.6c0,0,0,0.1,0,0.1l-2.2,0.7C50.7,30,50.7,30,50.7,29.9"/>
					<path fill="#2B637E" d="M50.7,30.1l2.2-0.7c0,0,0,0.1,0,0.1l-2.1,0.7C50.8,30.2,50.8,30.2,50.7,30.1"/>
					<path fill="#2C6581" d="M50.8,30.3l2.1-0.7c0,0,0,0.1,0,0.1l-2.1,0.8C50.9,30.4,50.9,30.4,50.8,30.3"/>
					<path fill="#2D6784" d="M50.9,30.5l2.1-0.8c0,0,0,0.1,0.1,0.1l-2,0.9C51,30.6,51,30.5,50.9,30.5"/>
					<path fill="#2E6986" d="M51,30.7l2-0.9c0,0,0,0.1,0.1,0.1l-2,1C51.1,30.8,51.1,30.7,51,30.7"/>
					<path fill="#2F6C89" d="M51.1,30.8l2-1c0,0,0,0.1,0.1,0.1l-2,1C51.2,30.9,51.2,30.9,51.1,30.8"/>
					<path fill="#306E8C" d="M51.2,31l2-1c0,0,0,0.1,0.1,0.1l-1.9,1.1C51.3,31.1,51.3,31,51.2,31"/>
					<path fill="#31708F" d="M51.3,31.1l1.9-1.1c0,0,0,0.1,0.1,0.1l-1.8,1.2C51.4,31.3,51.4,31.2,51.3,31.1"/>
					<path fill="#4A819C" d="M51.5,31.3l1.8-1.2c0,0,0.1,0.1,0.1,0.1l-1.8,1.3C51.6,31.4,51.5,31.4,51.5,31.3"/>
					<path fill="#5488A2" d="M51.6,31.5l1.8-1.3c0,0,0.1,0.1,0.1,0.1l-1.7,1.3C51.8,31.6,51.7,31.5,51.6,31.5"/>
					<path fill="#5C8EA6" d="M51.8,31.7l1.7-1.3c0.1,0.1,0.1,0.1,0.2,0.1l-1.5,1.5C52.1,31.9,52,31.8,51.8,31.7"/>
					<path fill="#6292AA" d="M52.2,31.9l1.5-1.5c0.2,0.1,0.3,0.2,0.5,0.3L53,32.4C52.7,32.3,52.4,32.1,52.2,31.9"/>
					<path fill="#5C8EA6" d="M53,32.4l1.2-1.7c0.1,0,0.3,0.1,0.4,0.1l-0.9,1.7C53.5,32.6,53.2,32.5,53,32.4"/>
					<path fill="#5488A2" d="M53.7,32.6l0.9-1.7c0.1,0,0.2,0,0.4,0.1l-0.7,1.8C54.1,32.7,53.9,32.7,53.7,32.6"/>
					<path fill="#4A819C" d="M54.3,32.7l0.7-1.8c0.1,0,0.2,0,0.4,0l-0.5,1.8C54.7,32.8,54.5,32.8,54.3,32.7"/>
					<path fill="#31708F" d="M54.9,32.8l0.5-1.8c0.1,0,0.1,0,0.2,0c0.1,0,0.2,0,0.3,0l-0.5,1.8c-0.1,0-0.1,0-0.2,0
						C55,32.8,55,32.8,54.9,32.8"/>
					<path fill="#4A819C" d="M55.3,32.8l0.5-1.8c0.3,0,0.5,0,0.8,0.1l-0.7,1.8C55.7,32.8,55.5,32.8,55.3,32.8"/>
					<path fill="#5488A2" d="M55.9,32.8l0.7-1.8c0.3,0,0.5,0.1,0.8,0.2L56.5,33C56.3,32.9,56.1,32.9,55.9,32.8"/>
					<path fill="#5C8EA6" d="M56.5,33l0.9-1.7c0.4,0.1,0.7,0.2,1,0.3l-1.2,1.6C57,33.1,56.7,33,56.5,33"/>
					<path fill="#6292AA" d="M57.2,33.2l1.2-1.6c0.3,0.1,0.6,0.3,0.9,0.5l-1.4,1.5C57.7,33.4,57.4,33.3,57.2,33.2"/>
					<path fill="#5C8EA6" d="M57.9,33.5l1.4-1.5c0.2,0.1,0.4,0.3,0.6,0.5l-1.6,1.4C58.2,33.7,58,33.6,57.9,33.5"/>
					<path fill="#5488A2" d="M58.3,33.9l1.6-1.4c0.1,0.1,0.2,0.2,0.4,0.3l-1.7,1.3C58.5,34,58.4,33.9,58.3,33.9"/>
					<path fill="#4A819C" d="M58.6,34.1l1.7-1.3c0.1,0.1,0.2,0.2,0.3,0.3l-1.8,1.2C58.7,34.2,58.6,34.2,58.6,34.1"/>
					<path fill="#31708F" d="M58.7,34.3l1.8-1.2c0.1,0.1,0.2,0.2,0.2,0.3l-1.9,1.1C58.9,34.4,58.8,34.4,58.7,34.3"/>
					<path fill="#306E8C" d="M58.9,34.5l1.9-1.1c0.1,0.1,0.1,0.2,0.2,0.3l-1.9,1C59,34.6,59,34.6,58.9,34.5"/>
					<path fill="#2F6C89" d="M59,34.7l1.9-1c0.1,0.1,0.1,0.2,0.2,0.3l-2,0.9C59.1,34.8,59.1,34.7,59,34.7"/>
					<path fill="#2E6986" d="M59.2,34.9l2-0.9c0.1,0.1,0.1,0.2,0.2,0.3l-2.1,0.8C59.3,35,59.2,35,59.2,34.9"/>
					<path fill="#2D6784" d="M59.3,35.1l2.1-0.8c0,0.1,0.1,0.1,0.1,0.2c0,0,0,0,0,0l-2.1,0.8c0,0,0,0,0,0
						C59.4,35.2,59.3,35.1,59.3,35.1"/>
					<path fill="#2C6581" d="M59.4,35.2l2.1-0.8c0,0,0,0,0,0.1L59.4,35.2C59.4,35.2,59.4,35.2,59.4,35.2"/>
					<path fill="#2B637E" d="M59.4,35.2l2.1-0.7c0,0,0,0,0,0.1L59.4,35.2C59.4,35.2,59.4,35.2,59.4,35.2"/>
					<path fill="#2A607B" d="M59.4,35.2l2.2-0.7c0,0,0,0,0,0.1L59.4,35.2C59.4,35.2,59.4,35.2,59.4,35.2"/>
					<path fill="#295E78" d="M59.4,35.2l2.2-0.6c0,0,0,0.1,0,0.1L59.4,35.2C59.4,35.3,59.4,35.2,59.4,35.2"/>
					<path fill="#285C75" d="M59.4,35.3l2.2-0.5c0,0,0,0.1,0,0.1L59.4,35.3C59.4,35.3,59.4,35.3,59.4,35.3"/>
					<path fill="#275A72" d="M59.4,35.3l2.2-0.5c0,0,0,0.1,0,0.1L59.4,35.3C59.4,35.3,59.4,35.3,59.4,35.3"/>
					<path fill="#265770" d="M59.4,35.3l2.3-0.4c0,0,0,0.1,0,0.1L59.4,35.3C59.4,35.3,59.4,35.3,59.4,35.3"/>
					<path fill="#25556D" d="M59.4,35.4l2.3-0.3c0,0.1,0,0.1,0,0.2L59.4,35.4C59.4,35.4,59.4,35.4,59.4,35.4"/>
					<path fill="#24536A" d="M59.4,35.4l2.3-0.1c0,0.1,0,0.1,0,0.2L59.4,35.4C59.4,35.5,59.4,35.4,59.4,35.4"/>
					<path fill="#235167" d="M59.4,35.5l2.3,0c0,0.1,0,0.2,0,0.2L59.4,35.5C59.4,35.6,59.4,35.5,59.4,35.5"/>
					<path fill="#224E64" d="M59.4,35.6l2.3,0.1c0,0.1,0,0.2,0,0.3l-2.3-0.3C59.4,35.7,59.4,35.6,59.4,35.6"/>
					<path fill="#214C61" d="M59.4,35.7l2.3,0.3c0,0.1,0,0.2,0,0.3l-2.3-0.5C59.4,35.8,59.4,35.7,59.4,35.7"/>
					<path fill="#204A5E" d="M59.4,35.8l2.3,0.5c0,0.1,0,0.2-0.1,0.3l-2.3-0.6C59.4,35.9,59.4,35.8,59.4,35.8"/>
					<path fill="#1F485C" d="M59.4,35.9l2.3,0.6c0,0.1,0,0.2-0.1,0.2L59.3,36C59.3,36,59.4,36,59.4,35.9"/>
					<path fill="#1E4559" d="M59.3,36l2.2,0.8c0,0,0,0.1,0,0.1c0,0,0,0,0,0L59.3,36C59.3,36.1,59.3,36.1,59.3,36
						C59.3,36.1,59.3,36,59.3,36"/>
					<path fill="#1D4356" d="M59.3,36.1l2.2,0.8c0,0,0,0,0,0L59.3,36.1C59.3,36,59.3,36.1,59.3,36.1"/>
					<path fill="#1C4153" d="M59.3,36l2.2,0.9c0,0,0,0,0,0L59.3,36C59.4,36,59.3,36,59.3,36"/>
					<path fill="#1B3F50" d="M59.4,36l2.2,0.9c0,0,0,0,0,0L59.4,36C59.4,36,59.4,36,59.4,36"/>
					<path fill="#1A3C4D" d="M59.4,36l2.1,1c0,0,0,0,0,0L59.4,36C59.4,35.9,59.4,35.9,59.4,36"/>
					<path fill="#193A4A" d="M59.4,35.9l2.1,1c-0.1,0.2-0.9,0.3-1.5,0.3c-0.2,0-0.3,0-0.5,0c-0.8,0-1.7-0.3-2.5-0.4
						c-0.5,0-1.1-0.1-1.6-0.1c-1,0-2,0.2-2.8,0.9l-1.6-1.7c1.2-1,2.6-1.3,4-1.3c0.6,0,1.2,0,1.8,0.1c1,0.1,1.8,0.3,2.4,0.4
						c0.1,0,0.3,0,0.4,0C60.1,35,60,34.8,59.4,35.9"/>
					<path fill="#1A3C4D" d="M51.1,35.9l1.6,1.7c-0.2,0.1-0.3,0.3-0.4,0.5l-1.8-1.5C50.6,36.3,50.8,36.1,51.1,35.9"/>
					<path fill="#1B3F50" d="M50.4,36.5l1.8,1.5c-0.1,0.1-0.2,0.3-0.3,0.4l-2-1.3C50.1,37,50.2,36.7,50.4,36.5"/>
					<path fill="#1C4153" d="M49.9,37.2l2,1.3c-0.1,0.1-0.2,0.3-0.3,0.5l-2.1-1.1C49.6,37.7,49.8,37.4,49.9,37.2"/>
					<path fill="#1D4356" d="M49.5,37.9l2.1,1.1c0,0,0,0.1-0.1,0.1c0,0,0,0,0,0l-2.1-1.1c0,0,0,0,0,0C49.5,38,49.5,38,49.5,37.9"/>
					<path fill="#1C4153" d="M49.4,38.1l2.1,1.1c0,0.1-0.1,0.1-0.1,0.2L49.4,38.1C49.4,38.1,49.4,38.1,49.4,38.1"/>
					<path fill="#1B3F50" d="M49.4,38.1l2,1.2c0,0.1-0.1,0.1-0.1,0.2L49.4,38.1C49.4,38.2,49.4,38.2,49.4,38.1"/>
					<path fill="#1A3C4D" d="M49.3,38.2l2,1.3c-0.1,0.1-0.2,0.3-0.4,0.4l-1.8-1.5C49.2,38.4,49.3,38.3,49.3,38.2"/>
					<path fill="#193A4A" d="M49.1,38.5l1.8,1.5c-0.7,0.6-1.6,1.2-2.5,1.8l-2.5-1C47.5,39.5,48.5,38.9,49.1,38.5"/>
				</g>
			</g>
			<g>
				<path fill="#235067" d="M18.1,3.3c0.5,0,1.1,0,1.6,0.1c9.2,1,15.1,8.6,14,17.6c-0.1,1.1-0.7,2.4-1.4,3.7c0.1-0.4-1.8,0.8-1.7,1
					c-12,1-20.6,13.3-17.6,24.9c0.3,1.3,0.9,3.4,3.5,3.5c0.4,0,0.6,0.1,1.1-0.2c3.4-1,2.8-3.6,2.5-5.2c-1.8-8,3.9-15.6,11.9-15.9
					c3.6-0.1,6.3-1.8,7.6-5.1c1.2-3.2,2.2-6.6,2.8-9.9c0.6-3.5,0.6-6.9,1-10.1c0.2-1.8,0.9-3.5,1.1-3.6c0.6,0.5,1.8,2.3,2.3,4.5
					c0.5,2.3,1.8,3,3.8,3.1c4.6,0.3,8.1,1.9,10,6.1c0.3,0.7,0.5,1.5,0.7,2.3c0.1,1.3,0.2,1.1-0.8,1.4c-2.7,0.5-5.5,0.7-10.7,1.4
					c0.4,3.3,0.5,4.9,0.8,6.5c0.5,2.4,2.4,3.5,4.6,3.5c1.9,0,3.4,0.8,4.2,2.4c0.1,0.1,0.1,0.6-0.1,0.9c0.7-1.3,0.8-1,0.3-1
					c-0.1,0-0.3,0-0.4,0c-0.6,0-1.4-0.3-2.4-0.4c-0.6-0.1-1.2-0.1-1.8-0.1c-2.1,0-4.3,0.6-5.6,3.5c-0.1,0.4-1.3,0.9-3.5,2.8
					c1.1,5.8,0.2,10.2-4,16c2.9,1.8,3.8,2.2,4.2,2.6c0.7,0.8,1.4,1.7,1.7,2.5c-0.1,0,0.4-0.5,0.1-0.4c-3.3,0-6.6,0-10,0
					c-2.2,0-4.3,0-6.4,0c-0.1,0-0.1,0-0.2,0c-2.3,0-4.4-0.7-6.5-1.8c-0.8-0.4-1.7-0.6-2.7-0.6c-0.5,0-0.9,0.1-1.4,0.2
					c-1.2,0.2-2.7,0.6-4,0.6c-7.4,0-13.6-6-13.2-14c0.3-3.6,3.1-8.5,6-10.7c0.9-0.6,1.7-1.2,2.6-1.6c7.7-4.2,4.9-13.8-0.3-16.6
					c-1.8-1.2-3.1-1.3-4.8-1.3c-2.6,0-5.2,1.1-4.4,0.5c0,2.7-0.2,1.5,0,0.5C4.2,8.1,11.2,3.3,18.1,3.3z"/>
			</g>
		</g>
	</g>
</g>
</svg>
