<?xml version="1.0" encoding="utf-8"?>
<!-- Generator: Adobe Illustrator 23.0.3, SVG Export Plug-In . SVG Version: 6.00 Build 0)  -->
<svg version="1.1" xmlns="http://www.w3.org/2000/svg" xmlns:xlink="http://www.w3.org/1999/xlink" x="0px" y="0px"
	 viewBox="0 0 141.1 143.1" enable-background="new 0 0 141.1 143.1" xml:space="preserve">
<g id="Bolt">
	<g>
		<path fill="#ADC6D2" d="M74.5,61.6C87.7,41.5,100.8,21.6,114,1.4c-0.6,0-1,0-1.4,0c-12.5,0-25,0-37.5,0c-0.9,0-1.3,0.2-1.6,1.1
			C64.7,27.7,55.8,52.8,47,77.9c-0.1,0.4-0.2,0.7-0.4,1.2c9.1,0,18,0,27.1,0c-9,21.2-18,42.2-27,63.3c0.1,0,0.1,0.1,0.2,0.1
			c19.3-26.9,38.7-53.7,58.2-80.8C94.7,61.6,84.7,61.6,74.5,61.6z"/>
	</g>
</g>
<g id="Circle">
	<path fill="#5A8DA5" d="M49.4,111.4C31,102.1,20.5,82.1,24,62c3.3-18.8,14.3-31.2,32.3-37.6c0.5-0.2,1-0.6,1.1-1.1
		c0.8-2,1.5-4,2.2-6.1c0.8-2.1,1.5-4.3,2.3-6.6c-26.5,3.8-48.7,25.8-50.6,54.7c-1.9,27.8,15.4,49.5,34.6,57.8
		c1.6-3.7,3.2-7.4,4.7-11.1C50.2,111.8,49.8,111.6,49.4,111.4z"/>
	<path fill="#5A8DA5" d="M125,46.1c-3.6-8.6-9-15.8-16.1-21.9c-2.3,3.5-4.5,6.9-6.8,10.3c0.4,0.4,0.8,0.7,1.2,1.1
		c12.3,12.6,16.8,27.5,12.9,44.6C111.8,99.3,96.5,113,77,116c-0.5,0.1-1.1,0.4-1.4,0.8c-1,1.3-2,2.7-3,4.1c-1.8,2.5-3.6,5-5.4,7.6
		c23.6,1.8,50.5-12.7,59.7-41C131.4,73.5,130.7,59.7,125,46.1z"/>
</g>
</svg>
