<?xml version="1.0" encoding="utf-8"?>
<!-- Generator: Adobe Illustrator 23.0.3, SVG Export Plug-In . SVG Version: 6.00 Build 0)  -->
<svg version="1.1" id="Layer_3" xmlns="http://www.w3.org/2000/svg" xmlns:xlink="http://www.w3.org/1999/xlink" x="0px" y="0px"
	 viewBox="0 0 329.62 239.45" style="enable-background:new 0 0 329.62 239.45;" xml:space="preserve">
<style type="text/css">
	.st0{fill:#732063;}
	.st1{fill:#F2C6DD;}
	.st2{fill:#D01481;}
	.st3{fill:#48134C;}
	.st4{fill:#FFFFFF;}
	.st5{font-family:'OpenSans';}
	.st6{font-size:10px;}
	.st7{fill:#131024;}
</style>
<path class="st0" d="M297.6,228.05H31.94C19.27,228.05,9,217.78,9,205.11V33.16c0-12.67,10.27-22.94,22.94-22.94H297.6
	c12.67,0,22.94,10.27,22.94,22.94v171.96C320.54,217.78,310.27,228.05,297.6,228.05z"/>
<rect x="35.54" y="39.49" class="st1" width="254.33" height="15.91"/>
<rect x="35.54" y="39.49" class="st2" width="225.63" height="15.91"/>
<rect x="35.54" y="39.49" class="st3" width="79.06" height="15.91"/>
<rect x="35.54" y="68.56" class="st1" width="254.33" height="15.91"/>
<rect x="35.54" y="68.56" class="st2" width="114.5" height="15.91"/>
<rect x="35.54" y="68.56" class="st3" width="79.06" height="15.91"/>
<rect x="35.54" y="97.62" class="st1" width="254.33" height="15.91"/>
<rect x="35.54" y="97.62" class="st2" width="168.27" height="15.91"/>
<rect x="35.54" y="97.62" class="st3" width="79.06" height="15.91"/>
<rect x="35.54" y="126.69" class="st2" width="254.33" height="15.91"/>
<rect x="35.54" y="126.69" class="st3" width="79.06" height="15.91"/>
<rect x="35.54" y="155.76" class="st2" width="254.33" height="15.91"/>
<rect x="35.54" y="155.76" class="st3" width="79.06" height="15.91"/>
<rect x="35.54" y="184.82" class="st2" width="254.33" height="15.91"/>
<rect x="35.54" y="184.82" class="st3" width="79.06" height="15.91"/>
<g>
	<text transform="matrix(1 0 0 1 58.4774 50.909)" class="st4 st5 st6">HTML</text>
</g>
<g>
	<path class="st7" d="M270.82,46.82c0,2.79-1.08,4.19-3.24,4.19c-0.38,0-0.68-0.03-0.9-0.1v-0.7c0.26,0.08,0.56,0.13,0.89,0.13
		c0.78,0,1.37-0.24,1.77-0.73c0.4-0.48,0.62-1.22,0.65-2.22h-0.06c-0.18,0.27-0.42,0.48-0.71,0.62s-0.63,0.21-1,0.21
		c-0.63,0-1.13-0.19-1.5-0.57s-0.56-0.9-0.56-1.58c0-0.74,0.21-1.33,0.62-1.76c0.41-0.43,0.96-0.64,1.64-0.64
		c0.49,0,0.91,0.12,1.27,0.37c0.36,0.25,0.64,0.61,0.84,1.09S270.82,46.17,270.82,46.82z M268.42,44.36c-0.47,0-0.83,0.15-1.08,0.45
		s-0.38,0.72-0.38,1.25c0,0.47,0.12,0.84,0.35,1.11s0.59,0.4,1.07,0.4c0.3,0,0.57-0.06,0.82-0.18c0.25-0.12,0.45-0.28,0.59-0.49
		s0.21-0.43,0.21-0.65c0-0.34-0.07-0.66-0.2-0.95s-0.32-0.52-0.56-0.68C269,44.44,268.73,44.36,268.42,44.36z"/>
	<path class="st7" d="M276.58,47.33c0,1.23-0.19,2.15-0.58,2.76c-0.39,0.61-0.98,0.91-1.79,0.91c-0.77,0-1.35-0.31-1.75-0.94
		s-0.6-1.54-0.6-2.74c0-1.24,0.19-2.17,0.58-2.77s0.98-0.9,1.77-0.9c0.77,0,1.36,0.31,1.77,0.94
		C276.38,45.23,276.58,46.14,276.58,47.33z M272.68,47.33c0,1.04,0.12,1.79,0.37,2.27s0.63,0.71,1.17,0.71
		c0.54,0,0.93-0.24,1.17-0.72c0.24-0.48,0.36-1.23,0.36-2.26s-0.12-1.78-0.36-2.25c-0.24-0.48-0.63-0.72-1.17-0.72
		c-0.53,0-0.92,0.24-1.17,0.71S272.68,46.29,272.68,47.33z"/>
	<path class="st7" d="M280.49,45.9c0,0.74-0.12,1.3-0.37,1.68c-0.25,0.38-0.62,0.57-1.1,0.57c-0.46,0-0.81-0.19-1.06-0.58
		c-0.25-0.39-0.38-0.94-0.38-1.67c0-0.74,0.12-1.3,0.36-1.67c0.24-0.37,0.6-0.56,1.08-0.56c0.47,0,0.83,0.19,1.09,0.58
		S280.49,45.19,280.49,45.9z M278.26,45.9c0,0.55,0.06,0.97,0.18,1.25s0.32,0.42,0.59,0.42c0.53,0,0.8-0.55,0.8-1.66
		c0-1.1-0.27-1.65-0.8-1.65c-0.27,0-0.47,0.14-0.59,0.41S278.26,45.35,278.26,45.9z M283.54,43.77l-3.96,7.14h-0.72l3.96-7.14
		H283.54z M284.8,48.76c0,0.74-0.12,1.3-0.37,1.68c-0.25,0.38-0.61,0.57-1.1,0.57c-0.46,0-0.82-0.19-1.07-0.58
		c-0.25-0.39-0.37-0.94-0.37-1.67c0-0.74,0.12-1.3,0.36-1.67c0.24-0.37,0.6-0.56,1.08-0.56c0.46,0,0.82,0.19,1.08,0.57
		C284.67,47.49,284.8,48.04,284.8,48.76z M282.55,48.76c0,0.56,0.06,0.97,0.18,1.25s0.32,0.41,0.59,0.41s0.48-0.14,0.61-0.41
		s0.2-0.69,0.2-1.25c0-0.56-0.07-0.97-0.2-1.24s-0.33-0.4-0.61-0.4s-0.47,0.13-0.59,0.4S282.55,48.2,282.55,48.76z"/>
</g>
<g>
	<text transform="matrix(1 0 0 1 49.7718 79.9757)" class="st4 st5 st6">JavaScript</text>
</g>
<g>
	<text transform="matrix(1 0 0 1 63.3993 109.0423)" class="st4 st5 st6">CSS</text>
</g>
<g>
	<text transform="matrix(1 0 0 1 54.2782 138.1089)" class="st4 st5 st6">VSCode</text>
</g>
<g>
	<text transform="matrix(1 0 0 1 48.9832 167.1755)" class="st4 st5 st6">GitKraken</text>
</g>
<g>
	<text transform="matrix(1 0 0 1 48.4774 196.2421)" class="st4 st5 st6">Bootstrap</text>
</g>
</svg>
