<svg xmlns="http://www.w3.org/2000/svg" viewBox="0 0 196.21 140.41"><defs><style>.cls-1{fill:#64a7b2;}.cls-2{fill:#b1e1ec;}.cls-3{fill:#31708f;}</style></defs><title>Education</title><g id="DarkBlue"><path class="cls-1" d="M43.7,76.51l-5.6-2.66L32.19,90.79a80.76,80.76,0,0,0,8.19,15.93L43.7,76.54Z" transform="translate(0 0)"/><ellipse class="cls-1" cx="97.9" cy="45.84" rx="6.28" ry="3.68" transform="translate(-2.97 6.98) rotate(-4.02)"/></g><g id="LightBlue"><path class="cls-2" d="M49.93,80.41l7,57s-1.56,3-7.15,3-6.77-3-6.77-3Z" transform="translate(0 0)"/><path class="cls-2" d="M194.14,44.56S107.47,3,105.39,2.08,100.29,0,98,0a15.08,15.08,0,0,0-4.91,1.13S5.88,42.67,1.92,44.75s-.57,4.72-.57,4.72L46.7,71.11l40.18-22a.67.67,0,0,1,0-.2,6.92,6.92,0,0,1-.18-1.28,8,8,0,0,1,3.8-7.17,13.91,13.91,0,0,1,6.81-2.24h1.11c5.89,0,10.39,3.31,10.71,7.87a8,8,0,0,1-3.8,7.17,13.91,13.91,0,0,1-6.81,2.24h-1.1a13.58,13.58,0,0,1-5.34-1L53.84,74.2,90.29,92.14S95.38,94,99,94A12,12,0,0,0,105.39,92S192.06,51,194,50a3.51,3.51,0,0,0,2.26-3.21c0-.95-2.07-2.27-2.07-2.27Z" transform="translate(0 0)"/><path class="cls-1" d="M87.82,97.8c-.22-.09-.45-.18-.66-.29l-30-14.77,5.54,40.81a90.45,90.45,0,0,0,35.86,7.74V100.12A38.13,38.13,0,0,1,87.82,97.8Z" transform="translate(0 0)"/></g><g id="Shadow"><path class="cls-3" d="M161.14,93l-7.2-17.28c-21.17,10-39.4,18.75-45,21.42a18.8,18.8,0,0,1-9.92,3h-.41v31.17a70.25,70.25,0,0,0,24.7-4.23C153.67,115.8,161.14,93,161.14,93Z" transform="translate(0 0)"/></g></svg>