<svg xmlns="http://www.w3.org/2000/svg" viewBox="0 0 103.74 141.09"><defs><style>.cls-1{fill:#fefefe;}.cls-2{fill:#032b7c;}.cls-3{fill:#b8d3ef;}</style></defs><title>HourGlass</title><g id="Sand"><path class="cls-1" d="M97.78,120.19q-10.87-8.59-21.72-17.25a21.64,21.64,0,0,0-2.41-1.7l-1-.79a9.12,9.12,0,0,0-5.47,0l-1,.79a20.75,20.75,0,0,0-2.41,1.7C56.53,108.73,49.27,114.46,42,120.2Z" transform="translate(-18.02 -1.06)"/></g><g id="Frame"><g id="B0Fyvk.tif"><path class="cls-2" d="M111.94,124.35a9.58,9.58,0,0,1,7,2.41,8.9,8.9,0,0,1,2.27,9.64,8.69,8.69,0,0,1-8.06,5.72q-18.47,0-36.94,0-24.64,0-49.3,0a8.86,8.86,0,0,1-.14-17.72l1.09-.06H36.6a.48.48,0,0,0,.2.07c.33,0,.65,0,1,0H102c.33,0,.65,0,1,0a.64.64,0,0,0,.18-.06Q107.56,124.5,111.94,124.35Z" transform="translate(-18.02 -1.06)"/><path class="cls-2" d="M27.84,18.83A9.55,9.55,0,0,1,21,16.51a8.89,8.89,0,0,1-2.36-9.72,8.72,8.72,0,0,1,8.06-5.72c11.21,0,22.42,0,33.63,0q26.3,0,52.6,0A8.86,8.86,0,0,1,113,18.78l-1.09,0h-8.77c-.4,0-.81,0-1.21,0q-32.09,0-64.15,0c-.41,0-.81,0-1.22,0Z" transform="translate(-18.02 -1.06)"/><path class="cls-2" d="M85.83,92.22c8.52,6.67,14.19,15.1,16.34,25.77.14.69.29,1.39.43,2.08l.74,0c1.36.05,2.77.07,4.19.07h0c1.23,0,2.5,0,3.79-.06-.17-1-.35-2.07-.56-3.1-2.12-10.31-6.55-19.37-14.2-26.78C93,86.77,89,83.78,85.32,80.45c-5.53-5-5.78-12.4-.25-17.45,2.86-2.61,5.89-5,8.8-7.56a49.12,49.12,0,0,0,13.69-18.65,64.39,64.39,0,0,0,3.77-13.71h-8.25l-.46,0a53.67,53.67,0,0,1-1.53,6.37A39,39,0,0,1,94.62,42.2a54.81,54.81,0,0,1-8.32,8.36c-3.47,2.86-7.09,5.58-9.83,9.21A18.91,18.91,0,0,0,72.53,70a19.34,19.34,0,0,0,5.41,15.22A62.71,62.71,0,0,0,85.83,92.22Z" transform="translate(-18.02 -1.06)"/><path class="cls-2" d="M45.9,55.45c3.31,2.89,6.85,5.51,9.9,8.7a11.08,11.08,0,0,1-.07,15c-3,3.15-6.56,5.74-9.82,8.61A50,50,0,0,0,32.18,106.5a64.23,64.23,0,0,0-3.72,13.6h8.75C38.5,112.75,41.09,105.9,46,100a77.15,77.15,0,0,1,10.56-9.88c3.67-3,7.21-6.21,9.18-10.73a20.15,20.15,0,0,0,1.5-9.13c-.23-5.4-2.76-9.65-6.42-13.27-2.74-2.71-5.82-5.07-8.75-7.57A40.93,40.93,0,0,1,39.74,32.42a55,55,0,0,1-2.55-9.36l-.49,0H28.47a73.53,73.53,0,0,0,2,8.88A49.68,49.68,0,0,0,45.9,55.45Z" transform="translate(-18.02 -1.06)"/></g></g><g id="Glass"><path class="cls-3" d="M85.83,92.22a62.71,62.71,0,0,1-7.89-7A19.34,19.34,0,0,1,72.53,70a18.91,18.91,0,0,1,3.94-10.19c2.74-3.63,6.36-6.35,9.83-9.21a54.81,54.81,0,0,0,8.32-8.36,39,39,0,0,0,6.47-12.77,53.67,53.67,0,0,0,1.53-6.37h-.07L102,23H37.82l-.59,0h0a55,55,0,0,0,2.55,9.36A40.93,40.93,0,0,0,52.1,49.37c2.93,2.5,6,4.86,8.75,7.57,3.66,3.62,6.19,7.87,6.42,13.27a20.15,20.15,0,0,1-1.5,9.13c-2,4.52-5.51,7.7-9.18,10.73A77.15,77.15,0,0,0,46,100c-4.94,6-7.53,12.8-8.82,20.15h.44l.18.1H42c7.25-5.74,14.51-11.47,21.72-17.26a20.75,20.75,0,0,1,2.41-1.7l1-.79a6.89,6.89,0,0,1,.7-.21l.12,0,.57-.11h.08l.61-.06h0c.22,0,.43,0,.64,0h0a7.14,7.14,0,0,1,2.73.42l1,.79h0c.4.24.8.5,1.19.78l0,0c.39.28.78.58,1.17.89q10.81,8.69,21.72,17.25h4.14l.25-.14.43,0c-.14-.69-.29-1.39-.43-2.08C100,107.32,94.35,98.89,85.83,92.22Z" transform="translate(-18.02 -1.06)"/></g></svg>