<?xml version="1.0" encoding="utf-8"?>
<!-- Generator: Adobe Illustrator 23.0.3, SVG Export Plug-In . SVG Version: 6.00 Build 0)  -->
<svg version="1.1" id="Layer_1" xmlns="http://www.w3.org/2000/svg" xmlns:xlink="http://www.w3.org/1999/xlink" x="0px" y="0px"
	 viewBox="0 0 124.46 200.05" style="enable-background:new 0 0 124.46 200.05;" xml:space="preserve">
<style type="text/css">
	.st0{fill:#01265B;}
	.st1{fill:#00BAE5;}
</style>
<path class="st0" d="M54.44,37.4c0,0,8.29-19.35,28.53-17.02c17.83,2.05,17.72,17.51,17.72,17.51v135c0,0-2.09,16.74-19.67,16.74
	s-22.67-16.88-23.44-17.37c-0.77-0.49-12.98-2.23-18.84-15.14s-3.35-22.47-3.63-23.16c-0.28-0.7-13.72-9.35-14.58-28.05
	c-0.7-15.21,5.09-20.23,5.37-22.05s-3.07-17.79,6.71-31.48C41.41,40.07,51.79,39.01,54.44,37.4z"/>
<path class="st1" d="M94.51,74.89V36.75c0,0-2.51-8.93-13.21-9.49C70.6,26.7,55.68,38.05,60.09,53.77
	c1.49,5.3,13.21,1.58,13.12-3.54c-0.06-3.29,1.44-8.55,3.65-9.48c2.21-0.93,4.17,0.56,3.42,3.44c-0.74,2.88-1.02,5.16-0.93,6.74
	c0.09,1.58,4.19,3.49,7.26,7.12c3.07,3.63,0.37,6.6-1.49,6.79c-1.86,0.19-5.08-5.49-8.26-5.49s-9.99,6.23-17.74,3.16
	c-7.75-3.07-6.84-14.79-7.02-16.47c0,0-6.79,0.09-12.93,8s-8.84,16.07-6.79,29.58c0.47,3.07-0.37,2.7-1.4,4.09
	c-1.02,1.4-5.77,9.95-3.81,19.72s6,17.31,12.93,21.02c1.17,0.63,1.12,2.14,0.93,4.65s0.06,17.28,3.26,22.23
	c4.65,7.21,12.09,10.33,12.09,10.33s-0.37-8.28,1.77-13.02c2.14-4.74,3.81-7.44,3.81-8.74s-5.67-6.98-6.79-9.86
	c-1.12-2.88-2.74-6.51,0.37-7.91c1.99-0.89,4.78,4.6,6.14,6.23c1.52,1.82,4.14,3.63,5.81,3.81s10.19-1.58,12.6-1.02
	s3.44,4.19,0.65,5.86c-2.79,1.67-8.47-0.28-11.81,4c-3.35,4.28-16.46,29.49,9.21,37.49c12.09,3.77,16.93-11.91,16.93-11.91V158
	c0,0-6.42-1.44-9.67,1.17c-2.52,2.01-4.28,6.14-6.98,6.42s-3.26-6.6-1.12-9.4c2.14-2.79,3.26-4.47,7.53-5.4
	c4.28-0.93,11.26-0.93,11.26-0.93V118.8c0,0-9.95,5.21-17.3,3.16s-14.35-8.04-18.2-16.09c-1.42-2.98-7.28,3.26-12.77,4.65
	c0,0-0.93,9.3-5.12,8.65s-0.65-8.56-1.58-10.88c-0.93-2.33-5.4-5.12-5.95-6.51c-0.56-1.4,0.09-3.26,1.3-4
	c1.21-0.74,3.35-0.84,5.4,1.3c2.05,2.14,2.7,4,4.09,3.91c1.4-0.09,9.42-4.39,10.51-5.49c1.95-1.95,2.38-3.16,4.68-2.79
	c2.3,0.37,2.58,6.23,3.97,8.84c1.4,2.6,6.7,11.44,15.91,12.28c9.21,0.84,13.49-6.51,13.49-6.51V80.66c0,0-5.3-1.12-8.56,0.28
	c-3.26,1.4-6.33,3.16-7.07,5.4c-0.74,2.23,0.84,7.53,0.74,9.02c-0.09,1.49-1.95,3.72-3.63,3.63c-1.67-0.09-2.05-6.05-2.88-9.4
	c-0.84-3.35-4.09-6.51-9.21-7.72c-5.12-1.21-12.93,3.07-14.23,6.7s-7.16,1.4-5.67-2.88s6.42-5.49,5.95-8.09s-4.19-6.7-4-8.65
	s1.58-2.6,3.07-2.51c1.49,0.09,4.58,5.93,8.84,9.77c0,0,10.05-3.77,16.56,4.56c0,0,8.19-5.77,12-6.23
	C90.23,74.05,94.51,74.89,94.51,74.89z"/>
</svg>
