<svg xmlns="http://www.w3.org/2000/svg" viewBox="0 0 518.37 239.34"><defs><style>.cls-1{fill:#01265b;}.cls-2{fill:#00bae5;}.cls-3{fill:#770069;}.cls-4{fill:#d01481;}.cls-5{fill:#fff;}</style></defs><title>LeftRightBrain</title><g id="Layer_2" data-name="Layer 2"><path class="cls-1" d="M224.26,91.13c0,.21,8.3-21,28.55-22.32,17.82-.76,17.71,16.71,17.71,16.61v148.5c0,.09-2.08,17.78-19.66,13.1-17.59-4.52-22.69-22-23.46-22.6s-13-4.36-18.85-17-3.35-21.26-3.62-22-13.72-8.84-14.57-25.37c-.7-13.58,5.08-18.81,5.36-20.52s-3.07-15.58,6.7-30.05C211.21,96.31,221.61,93.12,224.26,91.13Z" transform="translate(-10.74 -17.98)"/><path class="cls-2" d="M264.33,126.11V84.33a11.64,11.64,0,0,0-13.2-8.22c-10.69,1.51-25.64,16-21.22,30.73,1.49,5,13.22-.14,13.13-5.45-.06-3.39,1.43-9,3.65-10.37s4.16,0,3.42,3.13a27.25,27.25,0,0,0-.93,7.22c.09,1.64,4.19,3.19,7.25,6.85s.38,7.08-1.48,7.37-5.08-5.47-8.26-5.14-10,7.35-17.75,5.22-6.85-13.43-7-15.06c0,0-6.8,1.49-12.94,10.15s-8.83,16.42-6.78,28.5c.46,2.76-.38,2.52-1.4,3.91S195,152.82,197,161.42s6,15.38,12.92,19c1.17.62,1.12,2,.93,4.4s.06,16.21,3.26,21.26a39.76,39.76,0,0,0,12.1,11.62s-.37-8.19,1.77-12.61,3.81-6.94,3.81-8.24-5.67-7.54-6.79-10.4-2.75-6.52.37-7.75c2-.8,4.78,4.81,6.15,6.57,1.52,1.94,4.14,4,5.81,4.38s10.2-.51,12.61.4,3.45,4.92.66,6.27-8.47-1.45-11.82,2.51c-3.36,4.51-16.47,26.16,9.21,40.61,12.1,7.34,16.92-8.2,16.92-8.32V217.28s-6.41-3-9.66-.85c-2.52,1.63-4.28,5.61-7,5.32s-3.26-7.53-1.12-10.06,3.26-4.11,7.54-4.32,11.24,1.19,11.24,1.2V174.39S256,178.84,248.62,176s-14.36-9.27-18.21-17.27c-1.43-3-7.29,3.26-12.78,4.65,0,0-.93,8.93-5.12,8.29s-.65-8.06-1.58-10.24-5.4-4.53-6-5.76a3.29,3.29,0,0,1,1.3-3.8c1.21-.78,3.34-1,5.39.84s2.7,3.65,4.09,3.5,9.43-4.59,10.52-5.72c2-2,2.39-3.22,4.69-2.92s2.57,6.19,4,8.83,6.7,11.68,15.91,13.32a12.91,12.91,0,0,0,13.48-5.91V132.43s-5.29-1.22-8.55.34-6.32,3.48-7.07,5.83.84,7.91.75,9.49-2,3.87-3.63,3.74-2.05-6.3-2.88-9.74-4.1-6.62-9.22-7.51-12.94,4-14.24,7.57a3.06,3.06,0,1,1-5.68-2.28c1.49-4.21,6.42-5.88,6-8.35s-4.19-6-4-7.83a3.09,3.09,0,0,1,3.08-2.84c1.49-.13,4.58,5.1,8.84,8.52,0,0,10-4.82,16.57,3.53,0,0,8.19-6.37,12-7A26.16,26.16,0,0,1,264.33,126.11Z" transform="translate(-10.74 -17.98)"/><path class="cls-3" d="M316.78,91.23c0,.21-8.3-21-28.55-22.32-17.83-.76-17.71,16.71-17.71,16.61V234c0,.09,2.08,17.78,19.66,13.1,17.59-4.52,22.69-22,23.46-22.6s13-4.36,18.84-17,3.35-21.27,3.63-22,13.72-8.84,14.57-25.37c.7-13.58-5.09-18.81-5.37-20.52s3.07-15.58-6.7-30.05C329.82,96.41,319.43,93.22,316.78,91.23Z" transform="translate(-10.74 -17.98)"/><path class="cls-4" d="M276.7,126.21V84.43a11.65,11.65,0,0,1,13.2-8.22c10.7,1.51,25.64,16.05,21.22,30.73-1.49,5-13.22-.14-13.12-5.45.06-3.39-1.44-9-3.65-10.37s-4.17,0-3.42,3.13a27.25,27.25,0,0,1,.93,7.22c-.1,1.64-4.19,3.19-7.26,6.85s-.37,7.08,1.49,7.37,5.07-5.47,8.26-5.14,10,7.35,17.75,5.22,6.84-13.43,7-15.06c0,0,6.79,1.49,12.93,10.15s8.83,16.42,6.79,28.5c-.47,2.75.37,2.52,1.39,3.91s5.76,9.65,3.81,18.25-6,15.38-12.92,19c-1.17.61-1.11,2-.93,4.4s-.06,16.21-3.25,21.26a39.88,39.88,0,0,1-12.1,11.62s.37-8.19-1.77-12.61-3.82-6.94-3.82-8.24,5.68-7.54,6.8-10.4,2.74-6.52-.38-7.75c-2-.8-4.78,4.81-6.14,6.57-1.52,1.94-4.14,4-5.82,4.38s-10.19-.51-12.61.4-3.44,4.92-.65,6.27,8.47-1.45,11.82,2.51c3.35,4.51,16.47,26.16-9.21,40.61-12.1,7.34-16.93-8.2-16.93-8.32V217.38s6.41-3,9.67-.85c2.52,1.63,4.28,5.61,7,5.32s3.25-7.54,1.11-10.06-3.25-4.11-7.53-4.32-11.25,1.19-11.25,1.2V174.49s9.94,4.45,17.29,1.62,14.36-9.27,18.22-17.27c1.42-3,7.29,3.26,12.78,4.65,0,0,.93,8.93,5.12,8.29s.65-8.06,1.58-10.24,5.39-4.53,5.95-5.76a3.29,3.29,0,0,0-1.3-3.8c-1.21-.78-3.35-1-5.4.84s-2.69,3.65-4.09,3.5-9.42-4.59-10.52-5.72c-1.95-2-2.38-3.22-4.68-2.92s-2.58,6.19-4,8.83-6.71,11.68-15.92,13.32a12.9,12.9,0,0,1-13.48-5.92V132.53s5.3-1.22,8.55.34,6.33,3.48,7.07,5.83-.84,7.91-.74,9.49,1.95,3.87,3.63,3.74,2-6.3,2.88-9.74,4.1-6.62,9.22-7.52,12.94,4,14.24,7.58a3.06,3.06,0,1,0,5.68-2.28c-1.49-4.21-6.43-5.88-6-8.35s4.19-6,4-7.83A3.07,3.07,0,0,0,322.2,121c-1.49-.13-4.58,5.1-8.84,8.52,0,.05-10.06-4.82-16.57,3.53,0,0-8.19-6.37-12-7A26.24,26.24,0,0,0,276.7,126.21Z" transform="translate(-10.74 -17.98)"/></g><g id="Layer_3" data-name="Layer 3"><path class="cls-4" d="M289.33,27.35v5.93h-1.66V19h3.91a6.18,6.18,0,0,1,3.89,1,3.66,3.66,0,0,1,1.25,3,3.8,3.8,0,0,1-2.87,3.83l3.88,6.41h-2l-3.45-5.93Zm0-1.43h2.27a3.9,3.9,0,0,0,2.58-.7,2.57,2.57,0,0,0,.82-2.09,2.38,2.38,0,0,0-.83-2,4.5,4.5,0,0,0-2.68-.63h-2.16Z" transform="translate(-10.74 -17.98)"/><path class="cls-4" d="M299.65,19.68a1.11,1.11,0,0,1,.27-.82,1,1,0,0,1,.69-.26.94.94,0,0,1,.67.27,1,1,0,0,1,.28.81,1,1,0,0,1-.28.81.94.94,0,0,1-.67.27,1,1,0,0,1-.69-.27A1.08,1.08,0,0,1,299.65,19.68Zm1.76,13.6h-1.62V22.58h1.62Z" transform="translate(-10.74 -17.98)"/><path class="cls-4" d="M313.61,22.58v1l-2,.24a3.24,3.24,0,0,1,.49.89,3.52,3.52,0,0,1,.22,1.25,3.16,3.16,0,0,1-1.08,2.51,4.35,4.35,0,0,1-2.95.94,5.11,5.11,0,0,1-.9-.08,1.58,1.58,0,0,0-1,1.37.69.69,0,0,0,.36.65,2.62,2.62,0,0,0,1.24.21h1.9a4.26,4.26,0,0,1,2.67.74,2.52,2.52,0,0,1,.93,2.12A3,3,0,0,1,312,37.15a7.54,7.54,0,0,1-4.16.94,5.65,5.65,0,0,1-3.23-.78,2.54,2.54,0,0,1-1.14-2.21,2.5,2.5,0,0,1,.62-1.69,3.2,3.2,0,0,1,1.76-1,1.71,1.71,0,0,1-.69-.57,1.58,1.58,0,0,1-.28-.91,1.75,1.75,0,0,1,.32-1,3.27,3.27,0,0,1,1-.85,2.84,2.84,0,0,1-1.35-1.16,3.4,3.4,0,0,1-.52-1.87,3.45,3.45,0,0,1,1-2.71,4.3,4.3,0,0,1,3-1,5.36,5.36,0,0,1,1.51.2Zm-8.54,12.5a1.45,1.45,0,0,0,.73,1.32,4,4,0,0,0,2.1.45,5.91,5.91,0,0,0,3-.61,1.87,1.87,0,0,0,1-1.66,1.29,1.29,0,0,0-.54-1.2,4.1,4.1,0,0,0-2-.34h-2a2.5,2.5,0,0,0-1.71.53A1.87,1.87,0,0,0,305.07,35.08ZM306,26a2.2,2.2,0,0,0,.63,1.7,2.58,2.58,0,0,0,1.77.57,2.07,2.07,0,0,0,2.37-2.3,2.12,2.12,0,0,0-2.4-2.41,2.38,2.38,0,0,0-1.76.61A2.48,2.48,0,0,0,306,26Z" transform="translate(-10.74 -17.98)"/><path class="cls-4" d="M323.13,33.28V26.36a2.78,2.78,0,0,0-.6-1.95,2.43,2.43,0,0,0-1.86-.65,3.07,3.07,0,0,0-2.47.92,4.62,4.62,0,0,0-.78,3v5.59H315.8V18.09h1.62v4.6a10.42,10.42,0,0,1-.07,1.37h.09a3.3,3.3,0,0,1,1.37-1.21,4.34,4.34,0,0,1,2-.45,4.12,4.12,0,0,1,2.95.94,3.94,3.94,0,0,1,1,3v7Z" transform="translate(-10.74 -17.98)"/><path class="cls-4" d="M331.54,32.14a5.69,5.69,0,0,0,.83-.06,6.32,6.32,0,0,0,.63-.14v1.24a2.59,2.59,0,0,1-.78.21,5.37,5.37,0,0,1-.92.09q-3.1,0-3.1-3.27V23.84h-1.54v-.78l1.54-.68.68-2.28h.94v2.48h3.1v1.26h-3.1v6.3a2.13,2.13,0,0,0,.46,1.48A1.57,1.57,0,0,0,331.54,32.14Z" transform="translate(-10.74 -17.98)"/><path class="cls-4" d="M340.58,19h4a7.65,7.65,0,0,1,4.11.84A3,3,0,0,1,350,22.54a3.09,3.09,0,0,1-.71,2.1,3.38,3.38,0,0,1-2.06,1.06v.1q3.25.56,3.25,3.42a3.68,3.68,0,0,1-1.29,3,5.56,5.56,0,0,1-3.62,1.07h-5Zm1.66,6.11H345a4.52,4.52,0,0,0,2.53-.55,2.12,2.12,0,0,0,.77-1.86,1.89,1.89,0,0,0-.86-1.74,5.4,5.4,0,0,0-2.73-.53h-2.44Zm0,1.4v5.35h3a4.27,4.27,0,0,0,2.6-.67,2.49,2.49,0,0,0,.87-2.1,2.21,2.21,0,0,0-.89-2,4.75,4.75,0,0,0-2.72-.63Z" transform="translate(-10.74 -17.98)"/><path class="cls-4" d="M358.18,22.38a6.26,6.26,0,0,1,1.28.12L359.23,24a5.35,5.35,0,0,0-1.17-.15,2.84,2.84,0,0,0-2.22,1.05,3.84,3.84,0,0,0-.93,2.63v5.74h-1.62V22.58h1.34l.19,2h.07A4.82,4.82,0,0,1,356.33,23,3.21,3.21,0,0,1,358.18,22.38Z" transform="translate(-10.74 -17.98)"/><path class="cls-4" d="M367,33.28l-.32-1.52h-.08a4.59,4.59,0,0,1-1.6,1.36,4.82,4.82,0,0,1-2,.36,3.59,3.59,0,0,1-2.49-.82,3,3,0,0,1-.9-2.34c0-2.16,1.72-3.29,5.18-3.39l1.82-.06V26.2a2.72,2.72,0,0,0-.54-1.86,2.25,2.25,0,0,0-1.74-.6,7,7,0,0,0-3,.82l-.5-1.24a7.15,7.15,0,0,1,1.73-.67,7.67,7.67,0,0,1,1.89-.25,4.12,4.12,0,0,1,2.84.85,3.58,3.58,0,0,1,.92,2.73v7.3Zm-3.66-1.14a3.27,3.27,0,0,0,2.37-.83,3.05,3.05,0,0,0,.87-2.32V28l-1.62.07a5.78,5.78,0,0,0-2.79.6,1.79,1.79,0,0,0-.85,1.65,1.66,1.66,0,0,0,.53,1.34A2.18,2.18,0,0,0,363.38,32.14Z" transform="translate(-10.74 -17.98)"/><path class="cls-4" d="M371.44,19.68a1.07,1.07,0,0,1,.28-.82,1,1,0,0,1,.68-.26.92.92,0,0,1,.67.27,1,1,0,0,1,.29.81,1.05,1.05,0,0,1-.29.81,1,1,0,0,1-1.35,0A1,1,0,0,1,371.44,19.68Zm1.76,13.6h-1.62V22.58h1.62Z" transform="translate(-10.74 -17.98)"/><path class="cls-4" d="M384,33.28V26.36a2.82,2.82,0,0,0-.59-1.95,2.44,2.44,0,0,0-1.87-.65,3.06,3.06,0,0,0-2.46.91,4.57,4.57,0,0,0-.78,3v5.61h-1.62V22.58H378l.26,1.46h.08a3.34,3.34,0,0,1,1.4-1.22,4.49,4.49,0,0,1,2-.44,4.07,4.07,0,0,1,2.91.94,4,4,0,0,1,1,3v7Z" transform="translate(-10.74 -17.98)"/><path class="cls-5" d="M436.24,68a3.28,3.28,0,0,0-2.6,1.1,4.39,4.39,0,0,0-.95,3,4.46,4.46,0,0,0,.92,3,3.23,3.23,0,0,0,2.62,1.07,8.87,8.87,0,0,0,2.38-.37v1a7.3,7.3,0,0,1-2.56.39,4.36,4.36,0,0,1-3.41-1.34,5.54,5.54,0,0,1-1.2-3.81,6.11,6.11,0,0,1,.58-2.71,4.19,4.19,0,0,1,1.67-1.79,5,5,0,0,1,2.57-.63,6.07,6.07,0,0,1,2.74.58l-.49,1A5.37,5.37,0,0,0,436.24,68Z" transform="translate(-10.74 -17.98)"/><path class="cls-5" d="M444.74,69.42a4.86,4.86,0,0,1,.9.08l-.16,1.06a3.79,3.79,0,0,0-.82-.11,2,2,0,0,0-1.55.74,2.66,2.66,0,0,0-.65,1.84v4h-1.14V69.56h.94l.13,1.39h.06a3.17,3.17,0,0,1,1-1.13A2.21,2.21,0,0,1,444.74,69.42Z" transform="translate(-10.74 -17.98)"/><path class="cls-5" d="M450.9,77.19a3.46,3.46,0,0,1-2.62-1,3.94,3.94,0,0,1-1-2.81,4.37,4.37,0,0,1,.89-2.88,3,3,0,0,1,2.4-1.07,2.83,2.83,0,0,1,2.23.93,3.53,3.53,0,0,1,.82,2.44v.72H448.5a2.9,2.9,0,0,0,.67,2,2.28,2.28,0,0,0,1.78.69,6,6,0,0,0,2.39-.51v1a5.79,5.79,0,0,1-1.14.37A6.06,6.06,0,0,1,450.9,77.19Zm-.3-6.82a1.87,1.87,0,0,0-1.44.59,2.66,2.66,0,0,0-.63,1.63h3.91a2.5,2.5,0,0,0-.48-1.65A1.68,1.68,0,0,0,450.6,70.37Z" transform="translate(-10.74 -17.98)"/><path class="cls-5" d="M460.9,77.05,460.67,76h-.05a3.2,3.2,0,0,1-1.12,1,3.49,3.49,0,0,1-1.39.25,2.46,2.46,0,0,1-1.74-.58,2.05,2.05,0,0,1-.64-1.63c0-1.51,1.21-2.31,3.63-2.38l1.27,0v-.47a1.87,1.87,0,0,0-.38-1.3,1.54,1.54,0,0,0-1.21-.42,4.88,4.88,0,0,0-2.12.58l-.35-.87a5.24,5.24,0,0,1,1.22-.47,5,5,0,0,1,1.32-.18,2.87,2.87,0,0,1,2,.6,2.49,2.49,0,0,1,.64,1.91v5.11Zm-2.56-.8a2.29,2.29,0,0,0,1.66-.58,2.17,2.17,0,0,0,.61-1.63v-.67l-1.14,0a4.34,4.34,0,0,0-2,.42,1.27,1.27,0,0,0-.6,1.16,1.18,1.18,0,0,0,.38.94A1.54,1.54,0,0,0,458.34,76.25Z" transform="translate(-10.74 -17.98)"/><path class="cls-5" d="M467.2,76.25a3.69,3.69,0,0,0,.58,0,2.24,2.24,0,0,0,.44-.1V77a2,2,0,0,1-.54.15,3.91,3.91,0,0,1-.64.06c-1.45,0-2.18-.77-2.18-2.29V70.44h-1.07v-.55l1.07-.47.48-1.6H466v1.74h2.17v.88H466v4.41a1.49,1.49,0,0,0,.32,1A1.12,1.12,0,0,0,467.2,76.25Z" transform="translate(-10.74 -17.98)"/><path class="cls-5" d="M470.33,67.53a.74.74,0,0,1,.19-.57.66.66,0,0,1,.48-.18.67.67,0,0,1,.47.18.74.74,0,0,1,.2.57.77.77,0,0,1-.2.57.68.68,0,0,1-.47.19.67.67,0,0,1-.48-.19A.77.77,0,0,1,470.33,67.53Zm1.23,9.52h-1.14V69.56h1.14Z" transform="translate(-10.74 -17.98)"/><path class="cls-5" d="M476.3,77.05l-2.84-7.49h1.22L476.29,74a21.09,21.09,0,0,1,.64,2H477c.05-.24.21-.74.47-1.5s.87-2.41,1.8-5h1.21l-2.84,7.49Z" transform="translate(-10.74 -17.98)"/><path class="cls-5" d="M485.54,77.19a3.45,3.45,0,0,1-2.62-1,3.94,3.94,0,0,1-1-2.81,4.37,4.37,0,0,1,.89-2.88,3,3,0,0,1,2.4-1.07,2.83,2.83,0,0,1,2.23.93,3.58,3.58,0,0,1,.82,2.44v.72h-5.16a2.94,2.94,0,0,0,.66,2,2.3,2.3,0,0,0,1.78.69,6,6,0,0,0,2.4-.51v1a5.66,5.66,0,0,1-2.44.49Zm-.31-6.82a1.83,1.83,0,0,0-1.43.59,2.72,2.72,0,0,0-.64,1.63h3.92a2.5,2.5,0,0,0-.48-1.65A1.68,1.68,0,0,0,485.23,70.37Z" transform="translate(-10.74 -17.98)"/><path class="cls-5" d="M63.08,52a3.26,3.26,0,0,0-2.6,1.1,4.39,4.39,0,0,0-1,3,4.52,4.52,0,0,0,.92,3,3.25,3.25,0,0,0,2.62,1.07,8.94,8.94,0,0,0,2.39-.37v1a7.33,7.33,0,0,1-2.56.39,4.34,4.34,0,0,1-3.41-1.34A5.54,5.54,0,0,1,58.28,56a6,6,0,0,1,.58-2.71,4.17,4.17,0,0,1,1.66-1.79,5.07,5.07,0,0,1,2.57-.63,6.12,6.12,0,0,1,2.75.58l-.49,1A5.41,5.41,0,0,0,63.08,52Z" transform="translate(-10.74 -17.98)"/><path class="cls-5" d="M74.63,57.3a4.12,4.12,0,0,1-.93,2.86,3.26,3.26,0,0,1-2.55,1,3.4,3.4,0,0,1-1.78-.47,3.12,3.12,0,0,1-1.2-1.36,4.6,4.6,0,0,1-.43-2.06,4.15,4.15,0,0,1,.92-2.86,3.24,3.24,0,0,1,2.54-1,3.17,3.17,0,0,1,2.5,1A4.09,4.09,0,0,1,74.63,57.3Zm-5.71,0a3.56,3.56,0,0,0,.57,2.18,2.27,2.27,0,0,0,3.38,0,3.51,3.51,0,0,0,.58-2.19,3.43,3.43,0,0,0-.58-2.17,2.32,2.32,0,0,0-3.39,0A3.55,3.55,0,0,0,68.92,57.3Z" transform="translate(-10.74 -17.98)"/><path class="cls-5" d="M82.41,60.05h-.06A2.65,2.65,0,0,1,80,61.19a2.8,2.8,0,0,1-2.29-1,5.44,5.44,0,0,1,0-5.73,3,3,0,0,1,4.62.08h.09L82.38,54l0-.53V50.41h1.14V61.05h-.93Zm-2.27.19a2,2,0,0,0,1.69-.64,3.18,3.18,0,0,0,.52-2v-.24a3.72,3.72,0,0,0-.53-2.27,2,2,0,0,0-1.69-.68,1.75,1.75,0,0,0-1.53.78,3.85,3.85,0,0,0-.53,2.19,3.71,3.71,0,0,0,.53,2.17A1.8,1.8,0,0,0,80.14,60.24Z" transform="translate(-10.74 -17.98)"/><path class="cls-5" d="M89.76,61.19a3.45,3.45,0,0,1-2.62-1,3.94,3.94,0,0,1-1-2.81,4.31,4.31,0,0,1,.89-2.88,3,3,0,0,1,2.39-1.07,2.81,2.81,0,0,1,2.23.93,3.53,3.53,0,0,1,.82,2.44v.72H87.35a3,3,0,0,0,.67,2,2.28,2.28,0,0,0,1.78.69,6,6,0,0,0,2.39-.51v1a5.79,5.79,0,0,1-1.14.37A6,6,0,0,1,89.76,61.19Zm-.31-6.82A1.87,1.87,0,0,0,88,55a2.66,2.66,0,0,0-.63,1.63H91.3a2.5,2.5,0,0,0-.48-1.65A1.7,1.7,0,0,0,89.45,54.37Z" transform="translate(-10.74 -17.98)"/><path class="cls-5" d="M41.38,74.39a2.44,2.44,0,0,1-1,2.06,4.18,4.18,0,0,1-2.6.74,6.56,6.56,0,0,1-2.73-.46V75.61a7.26,7.26,0,0,0,1.34.41,7,7,0,0,0,1.43.15,2.91,2.91,0,0,0,1.75-.44,1.47,1.47,0,0,0,.59-1.23,1.55,1.55,0,0,0-.21-.85,1.87,1.87,0,0,0-.7-.61,9.52,9.52,0,0,0-1.48-.64,4.82,4.82,0,0,1-2-1.18,2.61,2.61,0,0,1-.59-1.79,2.21,2.21,0,0,1,.86-1.83,3.6,3.6,0,0,1,2.3-.69,6.67,6.67,0,0,1,2.74.55l-.36,1A6.16,6.16,0,0,0,38.36,68a2.3,2.3,0,0,0-1.44.4,1.29,1.29,0,0,0-.52,1.1,1.78,1.78,0,0,0,.19.85,1.93,1.93,0,0,0,.65.61,8.17,8.17,0,0,0,1.39.61,5.38,5.38,0,0,1,2.16,1.2A2.35,2.35,0,0,1,41.38,74.39Z" transform="translate(-10.74 -17.98)"/><path class="cls-5" d="M47.12,77.19a3.46,3.46,0,0,1-2.62-1,3.94,3.94,0,0,1-1-2.81,4.37,4.37,0,0,1,.89-2.88,3,3,0,0,1,2.4-1.07,2.83,2.83,0,0,1,2.23.93,3.58,3.58,0,0,1,.82,2.44v.72H44.72a2.94,2.94,0,0,0,.66,2,2.3,2.3,0,0,0,1.78.69,6,6,0,0,0,2.4-.51v1a5.79,5.79,0,0,1-1.14.37A6.06,6.06,0,0,1,47.12,77.19Zm-.3-6.82a1.84,1.84,0,0,0-1.44.59,2.72,2.72,0,0,0-.64,1.63h3.92a2.5,2.5,0,0,0-.48-1.65A1.68,1.68,0,0,0,46.82,70.37Z" transform="translate(-10.74 -17.98)"/><path class="cls-5" d="M55.17,77.19a2.73,2.73,0,0,1-2.26-1,5.43,5.43,0,0,1,0-5.72,3,3,0,0,1,4.64.13h.07l.16-1h.9V80.41H57.55v-3.2a7.43,7.43,0,0,1,.08-1.16h-.09A2.7,2.7,0,0,1,55.17,77.19Zm.17-1A2.09,2.09,0,0,0,57,75.63a3.33,3.33,0,0,0,.55-2v-.26A3.8,3.8,0,0,0,57,71.06a2,2,0,0,0-1.69-.69,1.73,1.73,0,0,0-1.53.78,3.85,3.85,0,0,0-.53,2.19,3.77,3.77,0,0,0,.52,2.15A1.77,1.77,0,0,0,55.34,76.24Z" transform="translate(-10.74 -17.98)"/><path class="cls-5" d="M62.86,69.56v4.86a2,2,0,0,0,.41,1.37,1.72,1.72,0,0,0,1.31.45,2.13,2.13,0,0,0,1.72-.65,3.21,3.21,0,0,0,.54-2.09V69.56H68v7.49H67l-.16-1h-.06a2.33,2.33,0,0,1-1,.84,3.18,3.18,0,0,1-1.41.3,2.88,2.88,0,0,1-2-.65,2.8,2.8,0,0,1-.68-2.08v-4.9Z" transform="translate(-10.74 -17.98)"/><path class="cls-5" d="M74.25,77.19a3.45,3.45,0,0,1-2.62-1,3.94,3.94,0,0,1-1-2.81,4.31,4.31,0,0,1,.89-2.88A3,3,0,0,1,74,69.42a2.8,2.8,0,0,1,2.22.93A3.53,3.53,0,0,1,77,72.79v.72H71.84a3,3,0,0,0,.67,2,2.28,2.28,0,0,0,1.78.69,6,6,0,0,0,2.39-.51v1a5.93,5.93,0,0,1-1.13.37A6.12,6.12,0,0,1,74.25,77.19Zm-.31-6.82A1.87,1.87,0,0,0,72.5,71a2.66,2.66,0,0,0-.63,1.63h3.92a2.5,2.5,0,0,0-.48-1.65A1.7,1.7,0,0,0,73.94,70.37Z" transform="translate(-10.74 -17.98)"/><path class="cls-5" d="M84.77,77.05V72.2a1.93,1.93,0,0,0-.42-1.36A1.7,1.7,0,0,0,83,70.39a2.16,2.16,0,0,0-1.72.63,3.22,3.22,0,0,0-.55,2.1v3.93H79.64V69.56h.92l.19,1h0a2.26,2.26,0,0,1,1-.85,3.09,3.09,0,0,1,1.4-.31,2.89,2.89,0,0,1,2,.65,2.82,2.82,0,0,1,.68,2.09v4.89Z" transform="translate(-10.74 -17.98)"/><path class="cls-5" d="M91.93,77.19a3.21,3.21,0,0,1-2.52-1,4.12,4.12,0,0,1-.9-2.84,4.25,4.25,0,0,1,.91-2.9,3.23,3.23,0,0,1,2.58-1,5,5,0,0,1,1.08.12,4.07,4.07,0,0,1,.85.27l-.35,1a4.65,4.65,0,0,0-.82-.24,3.48,3.48,0,0,0-.79-.1q-2.28,0-2.28,2.91a3.48,3.48,0,0,0,.56,2.12,1.94,1.94,0,0,0,1.65.74,5.07,5.07,0,0,0,1.92-.41v1A4.07,4.07,0,0,1,91.93,77.19Z" transform="translate(-10.74 -17.98)"/><path class="cls-5" d="M96.2,67.53a.74.74,0,0,1,.19-.57.68.68,0,0,1,.48-.18.67.67,0,0,1,.47.18.74.74,0,0,1,.2.57.77.77,0,0,1-.2.57.69.69,0,0,1-1,0A.77.77,0,0,1,96.2,67.53Zm1.23,9.52H96.3V69.56h1.13Z" transform="translate(-10.74 -17.98)"/><path class="cls-5" d="M105.66,77.05V72.2a1.93,1.93,0,0,0-.41-1.36,1.72,1.72,0,0,0-1.31-.45,2.16,2.16,0,0,0-1.72.63,3.17,3.17,0,0,0-.55,2.1v3.93h-1.13V69.56h.92l.18,1h.06a2.26,2.26,0,0,1,1-.85,3.06,3.06,0,0,1,1.4-.31,2.89,2.89,0,0,1,2,.65,2.82,2.82,0,0,1,.68,2.09v4.89Z" transform="translate(-10.74 -17.98)"/><path class="cls-5" d="M116,69.56v.72l-1.39.16a2.4,2.4,0,0,1,.5,1.5,2.17,2.17,0,0,1-.76,1.75,3,3,0,0,1-2.06.66,4.23,4.23,0,0,1-.63,0,1.1,1.1,0,0,0-.72,1,.47.47,0,0,0,.25.45,1.83,1.83,0,0,0,.87.15h1.32a3,3,0,0,1,1.87.51,1.79,1.79,0,0,1,.66,1.49,2.14,2.14,0,0,1-1,1.9,5.32,5.32,0,0,1-2.91.65,4,4,0,0,1-2.27-.54,1.78,1.78,0,0,1-.8-1.55,1.74,1.74,0,0,1,.44-1.18,2.24,2.24,0,0,1,1.23-.68,1.15,1.15,0,0,1-.48-.4,1.08,1.08,0,0,1-.2-.64,1.22,1.22,0,0,1,.22-.71,2.33,2.33,0,0,1,.69-.6,2,2,0,0,1-.94-.81,2.37,2.37,0,0,1-.37-1.32,2.41,2.41,0,0,1,.74-1.89,3,3,0,0,1,2.09-.67,3.83,3.83,0,0,1,1.06.14Zm-6,8.75a1,1,0,0,0,.51.92,2.81,2.81,0,0,0,1.47.32,4.18,4.18,0,0,0,2.12-.43,1.32,1.32,0,0,0,.68-1.16.9.9,0,0,0-.37-.84,2.9,2.9,0,0,0-1.42-.24h-1.36a1.78,1.78,0,0,0-1.2.37A1.3,1.3,0,0,0,110,78.31ZM110.6,72a1.52,1.52,0,0,0,.45,1.19,1.75,1.75,0,0,0,1.23.4A1.45,1.45,0,0,0,114,71.94a1.5,1.5,0,0,0-1.69-1.69,1.66,1.66,0,0,0-1.23.43A1.77,1.77,0,0,0,110.6,72Z" transform="translate(-10.74 -17.98)"/><path class="cls-5" d="M85.65,238H84.49v-9H81.33v-1h7.49v1H85.65Z" transform="translate(-10.74 -17.98)"/><path class="cls-5" d="M90.75,228.43a.74.74,0,0,1,.2-.57.64.64,0,0,1,.47-.18.66.66,0,0,1,.48.19.73.73,0,0,1,.19.56.78.78,0,0,1-.19.58.7.7,0,0,1-.48.18A.64.64,0,0,1,91,229,.78.78,0,0,1,90.75,228.43ZM92,238H90.85v-7.5H92Z" transform="translate(-10.74 -17.98)"/><path class="cls-5" d="M104.64,238v-4.88a2.06,2.06,0,0,0-.38-1.34,1.48,1.48,0,0,0-1.19-.45,1.92,1.92,0,0,0-1.57.61,2.94,2.94,0,0,0-.5,1.87V238H99.86v-4.88a2,2,0,0,0-.38-1.34,1.48,1.48,0,0,0-1.2-.45,1.84,1.84,0,0,0-1.56.64,3.49,3.49,0,0,0-.49,2.1V238H95.09v-7.5H96l.19,1h0a2.26,2.26,0,0,1,.91-.85,2.72,2.72,0,0,1,1.31-.31,2.23,2.23,0,0,1,2.3,1.27h0a2.42,2.42,0,0,1,1-.93,3,3,0,0,1,1.45-.34,2.54,2.54,0,0,1,1.9.65,2.89,2.89,0,0,1,.64,2.09V238Z" transform="translate(-10.74 -17.98)"/><path class="cls-5" d="M112,238.09a3.41,3.41,0,0,1-2.62-1,3.91,3.91,0,0,1-1-2.81,4.37,4.37,0,0,1,.89-2.88,3,3,0,0,1,2.4-1.06,2.83,2.83,0,0,1,2.22.92,3.56,3.56,0,0,1,.82,2.45v.72h-5.16a3,3,0,0,0,.67,2,2.31,2.31,0,0,0,1.78.68,6.1,6.1,0,0,0,2.39-.5v1a5.93,5.93,0,0,1-1.13.37A6.12,6.12,0,0,1,112,238.09Zm-.31-6.81a1.84,1.84,0,0,0-1.44.59,2.71,2.71,0,0,0-.63,1.62h3.92a2.49,2.49,0,0,0-.48-1.64A1.7,1.7,0,0,0,111.67,231.28Z" transform="translate(-10.74 -17.98)"/><path class="cls-5" d="M57.61,254l-3.39-8.86h0c.06.7.09,1.53.09,2.5V254H53.19V244h1.75l3.16,8.25h.06L61.35,244h1.74v10H61.92v-6.44c0-.74,0-1.54.1-2.41H62L58.55,254Z" transform="translate(-10.74 -17.98)"/><path class="cls-5" d="M71,254l-.22-1.07h-.06a3,3,0,0,1-1.11,1,3.41,3.41,0,0,1-1.4.25,2.5,2.5,0,0,1-1.74-.57,2.1,2.1,0,0,1-.63-1.63q0-2.28,3.63-2.38l1.27,0V249a1.9,1.9,0,0,0-.38-1.3,1.57,1.57,0,0,0-1.22-.42,4.92,4.92,0,0,0-2.11.57l-.35-.87a5.64,5.64,0,0,1,1.21-.47,5.43,5.43,0,0,1,1.32-.17,2.84,2.84,0,0,1,2,.6,2.46,2.46,0,0,1,.64,1.9V254Zm-2.56-.8a2.35,2.35,0,0,0,1.67-.58,2.17,2.17,0,0,0,.6-1.63v-.68l-1.13,0a4.1,4.1,0,0,0-2,.42A1.27,1.27,0,0,0,67,251.9a1.18,1.18,0,0,0,.37.94A1.56,1.56,0,0,0,68.4,253.16Z" transform="translate(-10.74 -17.98)"/><path class="cls-5" d="M80,254v-4.85a2,2,0,0,0-.42-1.37,1.69,1.69,0,0,0-1.3-.45,2.15,2.15,0,0,0-1.73.64A3.23,3.23,0,0,0,76,250V254H74.84v-7.5h.93l.18,1h0a2.34,2.34,0,0,1,1-.86,3.23,3.23,0,0,1,1.4-.3,2.87,2.87,0,0,1,2,.65,2.77,2.77,0,0,1,.68,2.09V254Z" transform="translate(-10.74 -17.98)"/><path class="cls-5" d="M88.74,254l-.22-1.07h-.06a3,3,0,0,1-1.12,1,3.32,3.32,0,0,1-1.39.25,2.5,2.5,0,0,1-1.74-.57,2.1,2.1,0,0,1-.64-1.63q0-2.28,3.63-2.38l1.28,0V249a1.9,1.9,0,0,0-.38-1.3,1.58,1.58,0,0,0-1.22-.42,5,5,0,0,0-2.12.57l-.34-.87a5.44,5.44,0,0,1,2.53-.64,2.85,2.85,0,0,1,2,.6,2.46,2.46,0,0,1,.64,1.9V254Zm-2.56-.8a2.31,2.31,0,0,0,1.66-.58,2.13,2.13,0,0,0,.61-1.63v-.68l-1.14,0a4.09,4.09,0,0,0-2,.42,1.27,1.27,0,0,0-.6,1.16,1.18,1.18,0,0,0,.38.94A1.56,1.56,0,0,0,86.18,253.16Z" transform="translate(-10.74 -17.98)"/><path class="cls-5" d="M98.75,246.46v.72l-1.38.17a2.53,2.53,0,0,1,.34.62,2.41,2.41,0,0,1,.15.87,2.22,2.22,0,0,1-.75,1.76,3,3,0,0,1-2.07.66,3.21,3.21,0,0,1-.63-.06,1.13,1.13,0,0,0-.72,1,.48.48,0,0,0,.25.45,1.83,1.83,0,0,0,.87.15h1.32a3,3,0,0,1,1.87.51,1.77,1.77,0,0,1,.66,1.49,2.15,2.15,0,0,1-1,1.9,5.41,5.41,0,0,1-2.91.65,4,4,0,0,1-2.27-.55,1.76,1.76,0,0,1-.8-1.54,1.73,1.73,0,0,1,.44-1.18,2.18,2.18,0,0,1,1.23-.68,1.23,1.23,0,0,1-.48-.4,1.1,1.1,0,0,1-.19-.64,1.27,1.27,0,0,1,.21-.72,2.38,2.38,0,0,1,.7-.59,2,2,0,0,1-1-.82,2.33,2.33,0,0,1-.37-1.31A2.45,2.45,0,0,1,93,247a3,3,0,0,1,2.09-.66,3.85,3.85,0,0,1,1.06.13Zm-6,8.75a1,1,0,0,0,.51.93,2.82,2.82,0,0,0,1.47.31,4.07,4.07,0,0,0,2.12-.43,1.31,1.31,0,0,0,.68-1.15.92.92,0,0,0-.37-.85,2.93,2.93,0,0,0-1.42-.23H94.41a1.83,1.83,0,0,0-1.2.36A1.32,1.32,0,0,0,92.78,255.21Zm.61-6.35a1.51,1.51,0,0,0,.45,1.19,1.77,1.77,0,0,0,1.24.41,1.45,1.45,0,0,0,1.66-1.62,1.5,1.5,0,0,0-1.69-1.69,1.67,1.67,0,0,0-1.23.44A1.74,1.74,0,0,0,93.39,248.86Z" transform="translate(-10.74 -17.98)"/><path class="cls-5" d="M104.16,254.09a3.44,3.44,0,0,1-2.63-1,3.91,3.91,0,0,1-1-2.81,4.32,4.32,0,0,1,.9-2.88,3,3,0,0,1,2.39-1.06,2.85,2.85,0,0,1,2.23.92,3.56,3.56,0,0,1,.82,2.45v.72h-5.16a3,3,0,0,0,.67,2,2.31,2.31,0,0,0,1.78.68,6.17,6.17,0,0,0,2.39-.5v1a5.79,5.79,0,0,1-1.14.37A6.08,6.08,0,0,1,104.16,254.09Zm-.31-6.81a1.84,1.84,0,0,0-1.44.59,2.65,2.65,0,0,0-.63,1.62h3.91a2.49,2.49,0,0,0-.47-1.64A1.7,1.7,0,0,0,103.85,247.28Z" transform="translate(-10.74 -17.98)"/><path class="cls-5" d="M119.1,254v-4.88a2,2,0,0,0-.39-1.34,1.47,1.47,0,0,0-1.19-.45,1.91,1.91,0,0,0-1.56.61,2.88,2.88,0,0,0-.51,1.87V254h-1.13v-4.88a2,2,0,0,0-.39-1.34,1.47,1.47,0,0,0-1.19-.45,1.84,1.84,0,0,0-1.56.64,3.49,3.49,0,0,0-.5,2.1V254h-1.13v-7.5h.92l.18,1h.06a2.17,2.17,0,0,1,.9-.85,2.72,2.72,0,0,1,1.31-.31,2.23,2.23,0,0,1,2.3,1.27h0a2.44,2.44,0,0,1,1-.93,3,3,0,0,1,1.44-.34,2.57,2.57,0,0,1,1.91.65,2.94,2.94,0,0,1,.63,2.09V254Z" transform="translate(-10.74 -17.98)"/><path class="cls-5" d="M126.43,254.09a3.43,3.43,0,0,1-2.62-1,3.91,3.91,0,0,1-1-2.81,4.37,4.37,0,0,1,.89-2.88,3,3,0,0,1,2.4-1.06,2.85,2.85,0,0,1,2.23.92,3.56,3.56,0,0,1,.82,2.45v.72H124a3,3,0,0,0,.66,2,2.34,2.34,0,0,0,1.78.68,6.18,6.18,0,0,0,2.4-.5v1a5.79,5.79,0,0,1-1.14.37A6.12,6.12,0,0,1,126.43,254.09Zm-.3-6.81a1.82,1.82,0,0,0-1.44.59,2.72,2.72,0,0,0-.64,1.62H128a2.49,2.49,0,0,0-.48-1.64A1.68,1.68,0,0,0,126.13,247.28Z" transform="translate(-10.74 -17.98)"/><path class="cls-5" d="M137,254v-4.85a2,2,0,0,0-.42-1.37,1.69,1.69,0,0,0-1.3-.45,2.15,2.15,0,0,0-1.73.64A3.23,3.23,0,0,0,133,250V254h-1.14v-7.5h.93l.18,1h0a2.34,2.34,0,0,1,1-.86,3.23,3.23,0,0,1,1.4-.3,2.87,2.87,0,0,1,2,.65,2.77,2.77,0,0,1,.68,2.09V254Z" transform="translate(-10.74 -17.98)"/><path class="cls-5" d="M143.54,253.16a3.68,3.68,0,0,0,.58,0l.44-.09v.87a2,2,0,0,1-.54.15,5.42,5.42,0,0,1-.65.05c-1.45,0-2.17-.76-2.17-2.29v-4.45h-1.08v-.55l1.08-.47.48-1.6h.65v1.73h2.18v.89h-2.18v4.41a1.51,1.51,0,0,0,.32,1A1.11,1.11,0,0,0,143.54,253.16Z" transform="translate(-10.74 -17.98)"/><path class="cls-5" d="M449,124h-5.57V114H449v1h-4.41v3.22h4.14v1h-4.14V123H449Z" transform="translate(-10.74 -17.98)"/><path class="cls-5" d="M461.24,124v-4.87a2.07,2.07,0,0,0-.38-1.35,1.48,1.48,0,0,0-1.19-.45,2,2,0,0,0-1.57.61,2.89,2.89,0,0,0-.5,1.88V124h-1.14v-4.87a2.07,2.07,0,0,0-.38-1.35,1.5,1.5,0,0,0-1.2-.45,1.87,1.87,0,0,0-1.56.64,3.49,3.49,0,0,0-.49,2.1V124h-1.14V116.5h.92l.19,1h.05a2.26,2.26,0,0,1,.91-.85,2.7,2.7,0,0,1,1.31-.31,2.21,2.21,0,0,1,2.29,1.27h.06a2.42,2.42,0,0,1,1-.93,3,3,0,0,1,1.45-.34,2.54,2.54,0,0,1,1.9.65,2.94,2.94,0,0,1,.64,2.09V124Z" transform="translate(-10.74 -17.98)"/><path class="cls-5" d="M468.9,124.13a3.27,3.27,0,0,1-1.34-.27,2.53,2.53,0,0,1-1-.83h-.09a9.05,9.05,0,0,1,.09,1.24v3.08h-1.14V116.5h.93l.15,1h.06a2.68,2.68,0,0,1,1-.89,3.1,3.1,0,0,1,1.33-.27,2.77,2.77,0,0,1,2.3,1,5.43,5.43,0,0,1,0,5.72A2.77,2.77,0,0,1,468.9,124.13Zm-.17-6.81a2,2,0,0,0-1.66.64,3.28,3.28,0,0,0-.52,2v.26a3.78,3.78,0,0,0,.52,2.26,2,2,0,0,0,1.69.68,1.76,1.76,0,0,0,1.52-.79,3.71,3.71,0,0,0,.55-2.17,3.58,3.58,0,0,0-.55-2.15A1.8,1.8,0,0,0,468.73,117.32Z" transform="translate(-10.74 -17.98)"/><path class="cls-5" d="M479.3,124l-.23-1.07H479a3.29,3.29,0,0,1-1.12,1,3.49,3.49,0,0,1-1.39.25,2.53,2.53,0,0,1-1.75-.58,2.1,2.1,0,0,1-.63-1.63c0-1.51,1.21-2.31,3.63-2.38l1.27,0V119a1.87,1.87,0,0,0-.38-1.3,1.54,1.54,0,0,0-1.21-.42,4.88,4.88,0,0,0-2.12.58L475,117a5.24,5.24,0,0,1,1.22-.47,5,5,0,0,1,1.32-.18,2.83,2.83,0,0,1,2,.6,2.49,2.49,0,0,1,.65,1.91V124Zm-2.56-.8a2.29,2.29,0,0,0,1.66-.58A2.17,2.17,0,0,0,479,121v-.67l-1.13,0a4.09,4.09,0,0,0-1.95.42,1.27,1.27,0,0,0-.6,1.16,1.18,1.18,0,0,0,.37.94A1.59,1.59,0,0,0,476.74,123.19Z" transform="translate(-10.74 -17.98)"/><path class="cls-5" d="M485.6,123.19a3.69,3.69,0,0,0,.58,0,3.77,3.77,0,0,0,.44-.1v.87a2,2,0,0,1-.54.15,3.93,3.93,0,0,1-.65.06c-1.45,0-2.17-.77-2.17-2.29v-4.46h-1.07v-.55l1.07-.47.48-1.6h.65v1.74h2.18v.88h-2.18v4.41a1.49,1.49,0,0,0,.33,1A1.1,1.1,0,0,0,485.6,123.19Z" transform="translate(-10.74 -17.98)"/><path class="cls-5" d="M494,124v-4.85a1.93,1.93,0,0,0-.42-1.36,1.67,1.67,0,0,0-1.31-.46,2.13,2.13,0,0,0-1.72.65,3.26,3.26,0,0,0-.55,2.1V124h-1.13V113.35H490v3.22a6.69,6.69,0,0,1-.05,1H490a2.25,2.25,0,0,1,.95-.85,3.05,3.05,0,0,1,1.41-.32,2.85,2.85,0,0,1,2.06.66,2.72,2.72,0,0,1,.69,2.07V124Z" transform="translate(-10.74 -17.98)"/><path class="cls-5" d="M496.92,116.5h1.22l1.64,4.27a16.71,16.71,0,0,1,.67,2.11h.05c.06-.23.19-.63.38-1.19s.81-2.29,1.85-5.19H504L500.73,125a4.21,4.21,0,0,1-1.12,1.79,2.33,2.33,0,0,1-1.57.53,5.05,5.05,0,0,1-1-.11v-.91a4.28,4.28,0,0,0,.84.08,1.74,1.74,0,0,0,1.67-1.31l.41-1.07Z" transform="translate(-10.74 -17.98)"/><path class="cls-5" d="M513.58,117.38h-1.91V124h-1.13v-6.61H509.2v-.51l1.34-.41V116c0-1.84.8-2.76,2.41-2.76a5,5,0,0,1,1.4.24l-.3.91a3.49,3.49,0,0,0-1.12-.22,1.11,1.11,0,0,0-.95.43,2.43,2.43,0,0,0-.31,1.37v.49h1.91Z" transform="translate(-10.74 -17.98)"/><path class="cls-5" d="M522.12,120.24a4.12,4.12,0,0,1-.93,2.86,3.26,3.26,0,0,1-2.55,1,3.32,3.32,0,0,1-1.78-.48,3,3,0,0,1-1.2-1.35,4.6,4.6,0,0,1-.43-2.06,4.15,4.15,0,0,1,.92-2.86,3.24,3.24,0,0,1,2.54-1,3.17,3.17,0,0,1,2.5,1A4.09,4.09,0,0,1,522.12,120.24Zm-5.71,0a3.56,3.56,0,0,0,.57,2.18,2.27,2.27,0,0,0,3.38,0,3.51,3.51,0,0,0,.58-2.19,3.43,3.43,0,0,0-.58-2.17,2.3,2.3,0,0,0-3.39,0A3.55,3.55,0,0,0,516.41,120.24Z" transform="translate(-10.74 -17.98)"/><path class="cls-5" d="M528.22,116.36a4.94,4.94,0,0,1,.9.08L529,117.5a3.79,3.79,0,0,0-.82-.11,2,2,0,0,0-1.55.74,2.66,2.66,0,0,0-.65,1.84v4H524.8V116.5h.94l.13,1.39h0a3.29,3.29,0,0,1,1-1.13A2.21,2.21,0,0,1,528.22,116.36Z" transform="translate(-10.74 -17.98)"/><path class="cls-5" d="M459.1,139.19a3.69,3.69,0,0,0,.58,0,3.77,3.77,0,0,0,.44-.1v.87a2,2,0,0,1-.54.15,3.93,3.93,0,0,1-.65.06c-1.45,0-2.17-.77-2.17-2.29v-4.46h-1.07v-.55l1.07-.47.48-1.6h.65v1.74h2.18v.88h-2.18v4.41a1.49,1.49,0,0,0,.33,1A1.1,1.1,0,0,0,459.1,139.19Z" transform="translate(-10.74 -17.98)"/><path class="cls-5" d="M467.45,140v-4.85a1.93,1.93,0,0,0-.42-1.36,1.67,1.67,0,0,0-1.31-.46A2.13,2.13,0,0,0,464,134a3.27,3.27,0,0,0-.54,2.1V140h-1.14V129.35h1.14v3.22a6.51,6.51,0,0,1-.06,1h.07a2.25,2.25,0,0,1,.95-.85,3.11,3.11,0,0,1,1.41-.32,2.89,2.89,0,0,1,2.07.66,2.76,2.76,0,0,1,.68,2.07V140Z" transform="translate(-10.74 -17.98)"/><path class="cls-5" d="M474.78,140.13a3.42,3.42,0,0,1-2.62-1,3.9,3.9,0,0,1-1-2.8,4.31,4.31,0,0,1,.89-2.88,3,3,0,0,1,2.39-1.07,2.81,2.81,0,0,1,2.23.93,3.51,3.51,0,0,1,.82,2.44v.72h-5.16a2.94,2.94,0,0,0,.67,2,2.28,2.28,0,0,0,1.78.69,6,6,0,0,0,2.39-.51v1a5.79,5.79,0,0,1-1.14.37A6,6,0,0,1,474.78,140.13Zm-.31-6.82a1.87,1.87,0,0,0-1.44.59,2.66,2.66,0,0,0-.63,1.63h3.92a2.5,2.5,0,0,0-.48-1.65A1.7,1.7,0,0,0,474.47,133.31Z" transform="translate(-10.74 -17.98)"/><path class="cls-5" d="M492.22,130v6.46a3.52,3.52,0,0,1-1,2.69,4,4,0,0,1-2.84,1,3.77,3.77,0,0,1-2.79-1,3.64,3.64,0,0,1-1-2.71V130h1.16v6.52a2.56,2.56,0,0,0,.69,1.92,2.77,2.77,0,0,0,2,.67,2.67,2.67,0,0,0,1.95-.68,2.59,2.59,0,0,0,.68-1.93V130Z" transform="translate(-10.74 -17.98)"/><path class="cls-5" d="M500.23,138a1.88,1.88,0,0,1-.78,1.61,3.66,3.66,0,0,1-2.19.57,4.66,4.66,0,0,1-2.32-.48V138.6a5.34,5.34,0,0,0,1.16.43,4.59,4.59,0,0,0,1.19.16,2.72,2.72,0,0,0,1.37-.28.94.94,0,0,0,.48-.87,1,1,0,0,0-.38-.75,6.41,6.41,0,0,0-1.48-.73,8.13,8.13,0,0,1-1.49-.68,2.3,2.3,0,0,1-.66-.66,1.76,1.76,0,0,1-.21-.88,1.7,1.7,0,0,1,.74-1.45,3.51,3.51,0,0,1,2-.53,5.94,5.94,0,0,1,2.36.49l-.4.93a5.42,5.42,0,0,0-2-.47,2.44,2.44,0,0,0-1.22.25.77.77,0,0,0-.41.7.85.85,0,0,0,.15.51,1.54,1.54,0,0,0,.5.41,12.29,12.29,0,0,0,1.31.55,4.78,4.78,0,0,1,1.8,1A1.74,1.74,0,0,1,500.23,138Z" transform="translate(-10.74 -17.98)"/><path class="cls-5" d="M505.94,140.13a3.42,3.42,0,0,1-2.62-1,3.9,3.9,0,0,1-1-2.8,4.37,4.37,0,0,1,.89-2.88,3,3,0,0,1,2.4-1.07,2.83,2.83,0,0,1,2.23.93,3.56,3.56,0,0,1,.82,2.44v.72h-5.17a3,3,0,0,0,.67,2,2.3,2.3,0,0,0,1.78.69,5.94,5.94,0,0,0,2.39-.51v1a5.93,5.93,0,0,1-1.13.37A6.06,6.06,0,0,1,505.94,140.13Zm-.31-6.82a1.87,1.87,0,0,0-1.44.59,2.78,2.78,0,0,0-.63,1.63h3.92a2.5,2.5,0,0,0-.48-1.65A1.68,1.68,0,0,0,505.63,133.31Z" transform="translate(-10.74 -17.98)"/><path class="cls-5" d="M514.75,132.36a4.74,4.74,0,0,1,.89.08l-.15,1.06a3.87,3.87,0,0,0-.82-.11,2,2,0,0,0-1.56.74,2.7,2.7,0,0,0-.65,1.84v4h-1.13V132.5h.94l.13,1.39h.05a3.19,3.19,0,0,1,1-1.13A2.21,2.21,0,0,1,514.75,132.36Z" transform="translate(-10.74 -17.98)"/><path class="cls-5" d="M453.23,189.19h-1.32l-5.47-8.39h-.05c.07,1,.11,1.89.11,2.71v5.68h-1.07v-10h1.31l5.45,8.35h.05c0-.12,0-.52-.06-1.19s0-1.14,0-1.43V179.2h1.08Z" transform="translate(-10.74 -17.98)"/><path class="cls-5" d="M463,185.44a4.12,4.12,0,0,1-.93,2.86,3.26,3.26,0,0,1-2.55,1,3.32,3.32,0,0,1-1.78-.48,3,3,0,0,1-1.2-1.35,4.6,4.6,0,0,1-.43-2.06,4.15,4.15,0,0,1,.92-2.86,3.24,3.24,0,0,1,2.54-1,3.17,3.17,0,0,1,2.5,1.05A4.09,4.09,0,0,1,463,185.44Zm-5.71,0a3.56,3.56,0,0,0,.57,2.18,2.27,2.27,0,0,0,3.38,0,3.51,3.51,0,0,0,.58-2.19,3.43,3.43,0,0,0-.58-2.17,2.29,2.29,0,0,0-3.38,0A3.48,3.48,0,0,0,457.27,185.44Z" transform="translate(-10.74 -17.98)"/><path class="cls-5" d="M470.79,189.19v-4.85a2,2,0,0,0-.41-1.36,1.72,1.72,0,0,0-1.31-.46,2.16,2.16,0,0,0-1.72.64,3.17,3.17,0,0,0-.55,2.1v3.93h-1.13V181.7h.92l.18,1h.06a2.26,2.26,0,0,1,1-.85,3,3,0,0,1,1.4-.31,2.84,2.84,0,0,1,2,.65,2.78,2.78,0,0,1,.69,2.09v4.89Z" transform="translate(-10.74 -17.98)"/><path class="cls-5" d="M474.33,186v-1h3.36v1Z" transform="translate(-10.74 -17.98)"/><path class="cls-5" d="M486,179.2h1.25l-3.6,10h-1.15l-3.58-10h1.23l2.3,6.46a20.73,20.73,0,0,1,.63,2.17,16.72,16.72,0,0,1,.64-2.21Z" transform="translate(-10.74 -17.98)"/><path class="cls-5" d="M492.36,189.33a3.42,3.42,0,0,1-2.62-1,3.9,3.9,0,0,1-1-2.8,4.37,4.37,0,0,1,.89-2.88,3,3,0,0,1,2.4-1.07,2.83,2.83,0,0,1,2.23.93,3.56,3.56,0,0,1,.82,2.44v.72H490a2.94,2.94,0,0,0,.66,2,2.3,2.3,0,0,0,1.78.69,6,6,0,0,0,2.4-.51v1a6.25,6.25,0,0,1-1.14.37A6.06,6.06,0,0,1,492.36,189.33Zm-.31-6.82a1.87,1.87,0,0,0-1.44.59,2.78,2.78,0,0,0-.63,1.63h3.92a2.5,2.5,0,0,0-.48-1.65A1.68,1.68,0,0,0,492.05,182.51Z" transform="translate(-10.74 -17.98)"/><path class="cls-5" d="M501.17,181.56a4.74,4.74,0,0,1,.89.08l-.15,1.06a3.87,3.87,0,0,0-.82-.11,2,2,0,0,0-1.56.74,2.7,2.7,0,0,0-.64,1.84v4h-1.14V181.7h.94l.13,1.39h.05a3.29,3.29,0,0,1,1-1.13A2.21,2.21,0,0,1,501.17,181.56Z" transform="translate(-10.74 -17.98)"/><path class="cls-5" d="M507.65,181.57a2.81,2.81,0,0,1,2.3,1,4.49,4.49,0,0,1,.81,2.86,4.43,4.43,0,0,1-.82,2.86,2.76,2.76,0,0,1-2.29,1,3.23,3.23,0,0,1-1.33-.27,2.49,2.49,0,0,1-1-.83h-.08l-.24,1h-.81V178.55h1.13v2.59c0,.58,0,1.1-.05,1.56h.05A2.69,2.69,0,0,1,507.65,181.57Zm-.16,1a2,2,0,0,0-1.68.67,5.15,5.15,0,0,0,0,4.51,2,2,0,0,0,1.69.68,1.74,1.74,0,0,0,1.55-.77,3.81,3.81,0,0,0,.52-2.19,3.71,3.71,0,0,0-.52-2.18A1.81,1.81,0,0,0,507.49,182.52Z" transform="translate(-10.74 -17.98)"/><path class="cls-5" d="M518.05,189.19l-.22-1.07h-.06a3.11,3.11,0,0,1-1.12,1,3.49,3.49,0,0,1-1.39.25,2.46,2.46,0,0,1-1.74-.58,2.05,2.05,0,0,1-.64-1.63c0-1.51,1.21-2.31,3.63-2.38l1.28,0v-.47a1.92,1.92,0,0,0-.38-1.3,1.58,1.58,0,0,0-1.22-.42,4.88,4.88,0,0,0-2.12.58l-.35-.87a5.24,5.24,0,0,1,1.22-.47,5,5,0,0,1,1.32-.18,2.85,2.85,0,0,1,2,.6,2.49,2.49,0,0,1,.64,1.91v5.11Zm-2.56-.8a2.29,2.29,0,0,0,1.66-.58,2.13,2.13,0,0,0,.61-1.63v-.67l-1.14,0a4.09,4.09,0,0,0-2,.42,1.27,1.27,0,0,0-.6,1.16,1.18,1.18,0,0,0,.38.94A1.54,1.54,0,0,0,515.49,188.39Z" transform="translate(-10.74 -17.98)"/><path class="cls-5" d="M523.07,189.19h-1.14V178.55h1.14Z" transform="translate(-10.74 -17.98)"/><path class="cls-5" d="M50.41,129.49H49.25v-10h5.57v1H50.41v3.66h4.15v1H50.41Z" transform="translate(-10.74 -17.98)"/><path class="cls-5" d="M56.91,120a.74.74,0,0,1,.19-.57.68.68,0,0,1,.48-.18.67.67,0,0,1,.47.18.76.76,0,0,1,.2.57.77.77,0,0,1-.2.57.64.64,0,0,1-.47.19.65.65,0,0,1-.48-.19A.77.77,0,0,1,56.91,120Zm1.23,9.52H57V122h1.13Z" transform="translate(-10.74 -17.98)"/><path class="cls-5" d="M62.38,129.49H61.25V118.86h1.13Z" transform="translate(-10.74 -17.98)"/><path class="cls-5" d="M68.65,129.63a3.46,3.46,0,0,1-2.62-1,3.93,3.93,0,0,1-1-2.81,4.37,4.37,0,0,1,.89-2.88,3,3,0,0,1,2.4-1.07,2.83,2.83,0,0,1,2.23.93,3.58,3.58,0,0,1,.82,2.44V126H66.25a2.94,2.94,0,0,0,.66,2,2.3,2.3,0,0,0,1.78.69,6,6,0,0,0,2.4-.51v1a5.86,5.86,0,0,1-1.14.38A6.85,6.85,0,0,1,68.65,129.63Zm-.3-6.82a1.84,1.84,0,0,0-1.44.59,2.75,2.75,0,0,0-.64,1.63h3.92a2.5,2.5,0,0,0-.48-1.65A1.68,1.68,0,0,0,68.35,122.81Z" transform="translate(-10.74 -17.98)"/><path class="cls-5" d="M18.55,145.49H17.22l-5.46-8.39h0c.07,1,.11,1.89.11,2.71v5.68H10.74v-10h1.32l5.44,8.35h.06c0-.12,0-.52-.06-1.18s-.05-1.15,0-1.44V135.5h1.09Z" transform="translate(-10.74 -17.98)"/><path class="cls-5" d="M28.29,141.74a4.12,4.12,0,0,1-.92,2.86,3.22,3.22,0,0,1-2.55,1,3.4,3.4,0,0,1-1.78-.47,3.21,3.21,0,0,1-1.21-1.36,4.7,4.7,0,0,1-.42-2.06,4.12,4.12,0,0,1,.92-2.85,3.22,3.22,0,0,1,2.54-1,3.17,3.17,0,0,1,2.5,1A4.1,4.1,0,0,1,28.29,141.74Zm-5.7,0a3.58,3.58,0,0,0,.57,2.19,2,2,0,0,0,1.69.75,2,2,0,0,0,1.69-.75,3.51,3.51,0,0,0,.58-2.19,3.44,3.44,0,0,0-.58-2.17,2,2,0,0,0-1.7-.74,2,2,0,0,0-1.69.73A3.57,3.57,0,0,0,22.59,141.74Z" transform="translate(-10.74 -17.98)"/><path class="cls-5" d="M40.53,145.49v-4.87a2,2,0,0,0-.38-1.35,1.5,1.5,0,0,0-1.19-.44,1.88,1.88,0,0,0-1.56.61,2.86,2.86,0,0,0-.51,1.87v4.18H35.75v-4.87a2,2,0,0,0-.38-1.35,1.5,1.5,0,0,0-1.19-.44,1.85,1.85,0,0,0-1.57.64,3.44,3.44,0,0,0-.49,2.09v3.93H31V138h.93l.18,1h.06a2.2,2.2,0,0,1,.9-.86,2.84,2.84,0,0,1,1.31-.31,2.24,2.24,0,0,1,2.3,1.27h.05a2.48,2.48,0,0,1,1-.93,3.13,3.13,0,0,1,1.45-.34,2.55,2.55,0,0,1,1.91.66,2.91,2.91,0,0,1,.63,2.08v4.89Z" transform="translate(-10.74 -17.98)"/><path class="cls-5" d="M47.87,145.63a3.45,3.45,0,0,1-2.62-1,3.93,3.93,0,0,1-1-2.81,4.37,4.37,0,0,1,.89-2.88,3,3,0,0,1,2.4-1.07,2.83,2.83,0,0,1,2.23.93,3.58,3.58,0,0,1,.82,2.44V142H45.46a3,3,0,0,0,.67,2,2.3,2.3,0,0,0,1.78.69,5.94,5.94,0,0,0,2.39-.51v1a5.78,5.78,0,0,1-1.13.38A6.85,6.85,0,0,1,47.87,145.63Zm-.31-6.82a1.87,1.87,0,0,0-1.44.59,2.81,2.81,0,0,0-.63,1.63h3.92a2.5,2.5,0,0,0-.48-1.65A1.68,1.68,0,0,0,47.56,138.81Z" transform="translate(-10.74 -17.98)"/><path class="cls-5" d="M58.39,145.49v-4.84a1.94,1.94,0,0,0-.42-1.37,1.7,1.7,0,0,0-1.31-.45,2.17,2.17,0,0,0-1.72.63,3.27,3.27,0,0,0-.54,2.1v3.93H53.26V138h.92l.19,1h.05a2.29,2.29,0,0,1,1-.86,3.09,3.09,0,0,1,1.4-.31,2.84,2.84,0,0,1,2,.66,2.78,2.78,0,0,1,.68,2.08v4.89Z" transform="translate(-10.74 -17.98)"/><path class="cls-5" d="M65.55,145.63a3.21,3.21,0,0,1-2.52-1,4.12,4.12,0,0,1-.89-2.84,4.25,4.25,0,0,1,.9-2.9,3.26,3.26,0,0,1,2.58-1,5,5,0,0,1,1.08.12,3.88,3.88,0,0,1,.85.27l-.35,1a4.64,4.64,0,0,0-.82-.25,3.4,3.4,0,0,0-.78-.1c-1.53,0-2.29,1-2.29,2.91a3.48,3.48,0,0,0,.56,2.12,1.94,1.94,0,0,0,1.65.74,5.07,5.07,0,0,0,1.92-.41v1A4.07,4.07,0,0,1,65.55,145.63Z" transform="translate(-10.74 -17.98)"/><path class="cls-5" d="M71.05,145.49H69.92V134.86h1.13Z" transform="translate(-10.74 -17.98)"/><path class="cls-5" d="M78.77,145.49l-.23-1.06h-.05a2.77,2.77,0,0,1-2.51,1.2,2.47,2.47,0,0,1-1.75-.58,2.08,2.08,0,0,1-.63-1.63c0-1.51,1.21-2.31,3.63-2.38l1.27,0v-.46a1.93,1.93,0,0,0-.38-1.31,1.56,1.56,0,0,0-1.21-.42,4.85,4.85,0,0,0-2.12.58l-.35-.87a5.16,5.16,0,0,1,1.21-.47,5,5,0,0,1,1.33-.17,2.87,2.87,0,0,1,2,.59,2.49,2.49,0,0,1,.65,1.91v5.11Zm-2.57-.8a2.31,2.31,0,0,0,1.67-.58,2.17,2.17,0,0,0,.6-1.63v-.67l-1.13.05a4.09,4.09,0,0,0-2,.42,1.25,1.25,0,0,0-.6,1.15,1.16,1.16,0,0,0,.37.94A1.52,1.52,0,0,0,76.2,144.69Z" transform="translate(-10.74 -17.98)"/><path class="cls-5" d="M85.07,144.69a3.69,3.69,0,0,0,.58,0l.44-.09v.86a2,2,0,0,1-.54.15,4,4,0,0,1-.65.06c-1.45,0-2.17-.76-2.17-2.29v-4.46H81.65v-.55l1.08-.47.48-1.6h.65V138H86v.88H83.86v4.41a1.54,1.54,0,0,0,.32,1A1.14,1.14,0,0,0,85.07,144.69Z" transform="translate(-10.74 -17.98)"/><path class="cls-5" d="M89.35,138v4.86a2,2,0,0,0,.42,1.37,1.7,1.7,0,0,0,1.31.45A2.17,2.17,0,0,0,92.8,144a3.27,3.27,0,0,0,.54-2.1V138h1.13v7.49h-.93l-.17-1h-.06a2.16,2.16,0,0,1-1,.84,3.18,3.18,0,0,1-1.41.3,2.85,2.85,0,0,1-2-.65,2.74,2.74,0,0,1-.68-2.08V138Z" transform="translate(-10.74 -17.98)"/><path class="cls-5" d="M101,137.86a4,4,0,0,1,.89.09l-.15,1.05a3.79,3.79,0,0,0-.82-.1,2,2,0,0,0-1.56.73,2.71,2.71,0,0,0-.64,1.84v4H97.58V138h.94l.13,1.39h0a3.29,3.29,0,0,1,1-1.13A2.29,2.29,0,0,1,101,137.86Z" transform="translate(-10.74 -17.98)"/><path class="cls-5" d="M107.16,145.63a3.45,3.45,0,0,1-2.62-1,3.93,3.93,0,0,1-1-2.81,4.37,4.37,0,0,1,.89-2.88,3,3,0,0,1,2.4-1.07,2.83,2.83,0,0,1,2.23.93,3.58,3.58,0,0,1,.82,2.44V142h-5.17a3,3,0,0,0,.67,2,2.3,2.3,0,0,0,1.78.69,5.94,5.94,0,0,0,2.39-.51v1a6,6,0,0,1-1.13.38A6.85,6.85,0,0,1,107.16,145.63Zm-.31-6.82a1.87,1.87,0,0,0-1.44.59,2.81,2.81,0,0,0-.63,1.63h3.92a2.5,2.5,0,0,0-.48-1.65A1.68,1.68,0,0,0,106.85,138.81Z" transform="translate(-10.74 -17.98)"/><path class="cls-5" d="M58.39,179.2h1.25l-3.6,10H54.89l-3.58-10h1.23l2.29,6.46a16.81,16.81,0,0,1,.63,2.17,20.43,20.43,0,0,1,.64-2.21Z" transform="translate(-10.74 -17.98)"/><path class="cls-5" d="M64.71,189.33a3.42,3.42,0,0,1-2.62-1,3.9,3.9,0,0,1-1-2.8,4.31,4.31,0,0,1,.89-2.88,3,3,0,0,1,2.39-1.07,2.83,2.83,0,0,1,2.23.93,3.51,3.51,0,0,1,.82,2.44v.72H62.3a2.94,2.94,0,0,0,.67,2,2.28,2.28,0,0,0,1.78.69,6,6,0,0,0,2.39-.51v1a5.79,5.79,0,0,1-1.14.37A6,6,0,0,1,64.71,189.33Zm-.31-6.82a1.87,1.87,0,0,0-1.44.59,2.66,2.66,0,0,0-.63,1.63h3.92a2.5,2.5,0,0,0-.48-1.65A1.7,1.7,0,0,0,64.4,182.51Z" transform="translate(-10.74 -17.98)"/><path class="cls-5" d="M73.51,181.56a4.78,4.78,0,0,1,.9.08l-.16,1.06a3.79,3.79,0,0,0-.82-.11,2,2,0,0,0-1.55.74,2.7,2.7,0,0,0-.65,1.84v4H70.1V181.7H71l.13,1.39h.06a3.27,3.27,0,0,1,1-1.13A2.23,2.23,0,0,1,73.51,181.56Z" transform="translate(-10.74 -17.98)"/><path class="cls-5" d="M80,181.57a2.79,2.79,0,0,1,2.29,1,5.37,5.37,0,0,1,0,5.72,2.75,2.75,0,0,1-2.28,1,3.24,3.24,0,0,1-1.34-.27,2.53,2.53,0,0,1-1-.83h-.09l-.24,1h-.81V178.55h1.14v2.59q0,.87-.06,1.56h.06A2.68,2.68,0,0,1,80,181.57Zm-.17,1a2,2,0,0,0-1.67.67,5.19,5.19,0,0,0,0,4.51,2,2,0,0,0,1.69.68,1.75,1.75,0,0,0,1.56-.77,3.9,3.9,0,0,0,.51-2.19,3.79,3.79,0,0,0-.51-2.18A1.81,1.81,0,0,0,79.83,182.52Z" transform="translate(-10.74 -17.98)"/><path class="cls-5" d="M90.4,189.19l-.23-1.07h0a3.29,3.29,0,0,1-1.12,1,3.53,3.53,0,0,1-1.39.25,2.48,2.48,0,0,1-1.75-.58,2.08,2.08,0,0,1-.63-1.63c0-1.51,1.21-2.31,3.63-2.38l1.27,0v-.47a1.92,1.92,0,0,0-.38-1.3,1.56,1.56,0,0,0-1.21-.42,4.85,4.85,0,0,0-2.12.58l-.35-.87a5.16,5.16,0,0,1,1.21-.47,5,5,0,0,1,1.33-.18,2.83,2.83,0,0,1,2,.6,2.49,2.49,0,0,1,.65,1.91v5.11Zm-2.57-.8a2.31,2.31,0,0,0,1.67-.58,2.17,2.17,0,0,0,.6-1.63v-.67l-1.13,0a4.09,4.09,0,0,0-2,.42,1.27,1.27,0,0,0-.6,1.16,1.18,1.18,0,0,0,.37.94A1.58,1.58,0,0,0,87.83,188.39Z" transform="translate(-10.74 -17.98)"/><path class="cls-5" d="M95.41,189.19H94.28V178.55h1.13Z" transform="translate(-10.74 -17.98)"/><path class="cls-5" d="M424.82,238.47v-10H426v10Z" transform="translate(-10.74 -17.98)"/><path class="cls-5" d="M434.38,238.47v-4.85a2,2,0,0,0-.41-1.37,1.72,1.72,0,0,0-1.31-.45,2.13,2.13,0,0,0-1.72.64,3.17,3.17,0,0,0-.55,2.1v3.93h-1.13V231h.92l.18,1h.06a2.35,2.35,0,0,1,1-.86,3.16,3.16,0,0,1,1.4-.3,2.84,2.84,0,0,1,2,.65,2.77,2.77,0,0,1,.69,2.09v4.89Z" transform="translate(-10.74 -17.98)"/><path class="cls-5" d="M441,237.67a3.68,3.68,0,0,0,.58,0l.44-.09v.87a2,2,0,0,1-.54.15,3.85,3.85,0,0,1-.65,0c-1.44,0-2.17-.76-2.17-2.29v-4.45h-1.07v-.55l1.07-.47.48-1.6h.66V231h2.17v.88h-2.17v4.41a1.51,1.51,0,0,0,.32,1A1.1,1.1,0,0,0,441,237.67Z" transform="translate(-10.74 -17.98)"/><path class="cls-5" d="M445.26,231v4.86a2,2,0,0,0,.41,1.36,1.72,1.72,0,0,0,1.31.45,2.13,2.13,0,0,0,1.72-.64,3.27,3.27,0,0,0,.54-2.1V231h1.14v7.49h-.94l-.16-1h-.07a2.2,2.2,0,0,1-1,.85,3.2,3.2,0,0,1-1.41.29,2.86,2.86,0,0,1-2-.64,2.8,2.8,0,0,1-.68-2.08V231Z" transform="translate(-10.74 -17.98)"/><path class="cls-5" d="M453.39,229a.74.74,0,0,1,.19-.57.65.65,0,0,1,.48-.19.68.68,0,0,1,.47.19.74.74,0,0,1,.2.57.77.77,0,0,1-.2.57.67.67,0,0,1-.47.18.68.68,0,0,1-.48-.18A.77.77,0,0,1,453.39,229Zm1.23,9.52h-1.14V231h1.14Z" transform="translate(-10.74 -17.98)"/><path class="cls-5" d="M460.14,237.67a3.81,3.81,0,0,0,.59,0l.44-.09v.87a2,2,0,0,1-.54.15,3.92,3.92,0,0,1-.65,0c-1.45,0-2.17-.76-2.17-2.29v-4.45h-1.08v-.55l1.08-.47.48-1.6h.65V231h2.18v.88h-2.18v4.41a1.56,1.56,0,0,0,.32,1A1.13,1.13,0,0,0,460.14,237.67Z" transform="translate(-10.74 -17.98)"/><path class="cls-5" d="M463.27,229a.78.78,0,0,1,.19-.57.65.65,0,0,1,.48-.19.68.68,0,0,1,.47.19.71.71,0,0,1,.2.57.74.74,0,0,1-.2.57.67.67,0,0,1-.47.18.68.68,0,0,1-.48-.18A.81.81,0,0,1,463.27,229Zm1.23,9.52h-1.13V231h1.13Z" transform="translate(-10.74 -17.98)"/><path class="cls-5" d="M474.08,234.72a4.12,4.12,0,0,1-.93,2.86,3.25,3.25,0,0,1-2.55,1,3.31,3.31,0,0,1-1.78-.47,3,3,0,0,1-1.2-1.35,4.63,4.63,0,0,1-.43-2.06,4.13,4.13,0,0,1,.92-2.86,3.24,3.24,0,0,1,2.54-1,3.17,3.17,0,0,1,2.5,1A4.09,4.09,0,0,1,474.08,234.72Zm-5.71,0a3.56,3.56,0,0,0,.57,2.18,2.29,2.29,0,0,0,3.38,0,3.51,3.51,0,0,0,.58-2.19,3.43,3.43,0,0,0-.58-2.17,2,2,0,0,0-1.7-.75,2,2,0,0,0-1.69.73A3.61,3.61,0,0,0,468.37,234.72Z" transform="translate(-10.74 -17.98)"/><path class="cls-5" d="M481.89,238.47v-4.85a2,2,0,0,0-.42-1.37,1.68,1.68,0,0,0-1.3-.45,2.11,2.11,0,0,0-1.72.64,3.17,3.17,0,0,0-.55,2.1v3.93h-1.14V231h.93l.18,1h.06a2.32,2.32,0,0,1,1-.86,3.23,3.23,0,0,1,1.4-.3,2.85,2.85,0,0,1,2,.65,2.77,2.77,0,0,1,.69,2.09v4.89Z" transform="translate(-10.74 -17.98)"/><path class="cls-2" d="M161.47,33.28V19h1.66V31.78h6.3v1.5Z" transform="translate(-10.74 -17.98)"/><path class="cls-2" d="M176.13,33.48A4.92,4.92,0,0,1,172.38,32,5.6,5.6,0,0,1,171,28a6.23,6.23,0,0,1,1.27-4.11,4.24,4.24,0,0,1,3.43-1.53,4,4,0,0,1,3.18,1.33,5.06,5.06,0,0,1,1.17,3.49v1h-7.37a4.28,4.28,0,0,0,.95,2.87,3.29,3.29,0,0,0,2.55,1,8.6,8.6,0,0,0,3.41-.72v1.44a8.54,8.54,0,0,1-1.62.54A9.72,9.72,0,0,1,176.13,33.48Zm-.44-9.74a2.65,2.65,0,0,0-2.06.84,3.89,3.89,0,0,0-.9,2.33h5.59a3.52,3.52,0,0,0-.68-2.35A2.38,2.38,0,0,0,175.69,23.74Z" transform="translate(-10.74 -17.98)"/><path class="cls-2" d="M187.65,23.84h-2.72v9.44h-1.62V23.84h-1.92v-.73l1.92-.59v-.59c0-2.64,1.14-3.95,3.44-3.95a7,7,0,0,1,2,.34l-.42,1.3a5.33,5.33,0,0,0-1.6-.3,1.54,1.54,0,0,0-1.35.61,3.34,3.34,0,0,0-.44,2v.69h2.72Z" transform="translate(-10.74 -17.98)"/><path class="cls-2" d="M193.06,32.14a5.59,5.59,0,0,0,.83-.06,6,6,0,0,0,.64-.14v1.24a2.68,2.68,0,0,1-.78.21,5.37,5.37,0,0,1-.92.09q-3.11,0-3.11-3.27V23.84h-1.53v-.78l1.53-.68.68-2.28h.94v2.48h3.11v1.26h-3.11v6.3a2.18,2.18,0,0,0,.46,1.48A1.59,1.59,0,0,0,193.06,32.14Z" transform="translate(-10.74 -17.98)"/><path class="cls-2" d="M202.1,19h4a7.7,7.7,0,0,1,4.11.84,3,3,0,0,1,1.27,2.69,3.14,3.14,0,0,1-.71,2.1,3.38,3.38,0,0,1-2.07,1.06v.1q3.25.56,3.26,3.42a3.66,3.66,0,0,1-1.3,3,5.54,5.54,0,0,1-3.62,1.07h-5Zm1.66,6.11h2.74a4.54,4.54,0,0,0,2.53-.55,2.15,2.15,0,0,0,.77-1.86,1.91,1.91,0,0,0-.86-1.74,5.4,5.4,0,0,0-2.73-.53h-2.45Zm0,1.4v5.35h3a4.31,4.31,0,0,0,2.61-.67,2.49,2.49,0,0,0,.87-2.1,2.23,2.23,0,0,0-.89-2,4.77,4.77,0,0,0-2.72-.63Z" transform="translate(-10.74 -17.98)"/><path class="cls-2" d="M219.7,22.38a6.19,6.19,0,0,1,1.28.12L220.76,24a5.51,5.51,0,0,0-1.18-.15,2.87,2.87,0,0,0-2.22,1.05,3.89,3.89,0,0,0-.92,2.63v5.74h-1.62V22.58h1.34l.18,2h.08A4.82,4.82,0,0,1,217.86,23,3.2,3.2,0,0,1,219.7,22.38Z" transform="translate(-10.74 -17.98)"/><path class="cls-2" d="M228.57,33.28l-.33-1.52h-.08a4.48,4.48,0,0,1-1.59,1.36,4.85,4.85,0,0,1-2,.36,3.59,3.59,0,0,1-2.49-.82,3,3,0,0,1-.91-2.34q0-3.24,5.19-3.39l1.81-.06V26.2a2.72,2.72,0,0,0-.54-1.86,2.23,2.23,0,0,0-1.73-.6,7,7,0,0,0-3,.82l-.5-1.24a7.4,7.4,0,0,1,1.74-.67A7.54,7.54,0,0,1,226,22.4a4.09,4.09,0,0,1,2.83.85,3.55,3.55,0,0,1,.93,2.73v7.3Zm-3.67-1.14a3.31,3.31,0,0,0,2.38-.83,3.05,3.05,0,0,0,.87-2.32V28l-1.63.07a5.73,5.73,0,0,0-2.78.6,1.8,1.8,0,0,0-.86,1.65,1.69,1.69,0,0,0,.53,1.34A2.21,2.21,0,0,0,224.9,32.14Z" transform="translate(-10.74 -17.98)"/><path class="cls-2" d="M233,19.68a1.11,1.11,0,0,1,.27-.82,1,1,0,0,1,.69-.26.94.94,0,0,1,.67.27,1,1,0,0,1,.28.81,1,1,0,0,1-.28.81.94.94,0,0,1-.67.27,1,1,0,0,1-.69-.27A1.08,1.08,0,0,1,233,19.68Zm1.76,13.6h-1.62V22.58h1.62Z" transform="translate(-10.74 -17.98)"/><path class="cls-2" d="M245.49,33.28V26.36a2.78,2.78,0,0,0-.6-1.95,2.41,2.41,0,0,0-1.86-.65,3.06,3.06,0,0,0-2.46.91,4.57,4.57,0,0,0-.78,3v5.61h-1.63V22.58h1.32l.27,1.46h.07a3.4,3.4,0,0,1,1.4-1.22,4.55,4.55,0,0,1,2-.44,4.07,4.07,0,0,1,2.91.94,4,4,0,0,1,1,3v7Z" transform="translate(-10.74 -17.98)"/><rect class="cls-4" x="358.2" y="89.47" width="56.85" height="1.5" transform="translate(-12.84 152.94) rotate(-24.86)"/><rect class="cls-4" x="385.87" y="186.51" width="1.5" height="56.85" transform="translate(18.46 457.58) rotate(-65.17)"/><rect class="cls-4" x="366.49" y="128" width="64.43" height="1.5" transform="translate(-30.3 86.33) rotate(-14.55)"/><rect class="cls-4" x="397.95" y="140.53" width="1.5" height="64.43" transform="translate(120.59 497.29) rotate(-75.45)"/><rect class="cls-2" x="153.29" y="61.8" width="1.5" height="56.85" transform="translate(-3.27 174.16) rotate(-65.17)"/><rect class="cls-2" x="125.62" y="214.19" width="56.85" height="1.5" transform="translate(-86.76 66.58) rotate(-24.83)"/><rect class="cls-2" x="141.21" y="96.53" width="1.5" height="64.43" transform="translate(-29.06 215.84) rotate(-75.45)"/><rect class="cls-2" x="109.75" y="172" width="64.43" height="1.5" transform="translate(-49.59 23.23) rotate(-14.55)"/></g></svg>