<svg xmlns="http://www.w3.org/2000/svg" viewBox="0 0 29.11 28.48"><defs><style>.cls-1{fill:#fff;}</style></defs><title>ojdCiA.tif</title><g id="Layer_2" data-name="Layer 2"><g id="Layer_1-2" data-name="Layer 1"><g id="ojdCiA.tif"><path class="cls-1" d="M20.18,0a5.86,5.86,0,0,1,2,3.05c.15.56.41.7,1,.73,2.39.12,4.36,1,5.43,3.31A6.13,6.13,0,0,1,29,8.38c.24,1.2.11,1.5-1.09,1.73s-2.62.34-4.09.52a15.32,15.32,0,0,0,.29,1.95,1.2,1.2,0,0,0,1.3.92,3.05,3.05,0,0,1,2.76,1.57,1.54,1.54,0,0,1,0,1.14c0,.14-.61.15-.93.14s-.76-.14-1.15-.17c-1-.07-1.95-.16-2.51,1-.24.49-.9.79-1.42,1.23a8.27,8.27,0,0,1-1.42,6.7,6.43,6.43,0,0,1,1.3.81,4.6,4.6,0,0,1,1,1.47c.28.71-.05,1-.83,1-2.52,0-5.05,0-7.57,0a7.21,7.21,0,0,1-3.57-.94,1.78,1.78,0,0,0-1.2-.13,7.13,7.13,0,0,1-9.23-7,6.82,6.82,0,0,1,3.09-5.61c.41-.28.82-.57,1.26-.81,2.72-1.45,1.67-5-.26-6C3.24,7.13,1.73,7.33,0,8.79a11,11,0,0,1,0-1.91A8.15,8.15,0,0,1,8.9.05a8.12,8.12,0,0,1,7.43,9,6.2,6.2,0,0,1-.71,2,1.74,1.74,0,0,1-1.53.94A8.26,8.26,0,0,0,6.92,22.28c.14.53.32,1.09,1,.9s.59-.73.45-1.29a6.71,6.71,0,0,1,6.23-8.38,2.69,2.69,0,0,0,2.66-1.76,23.72,23.72,0,0,0,1.18-4.37c.25-1.5.2-3,.37-4.55A4.53,4.53,0,0,1,20.18,0Z"/></g></g></g></svg>