<?xml version="1.0" encoding="utf-8"?>
<!-- Generator: Adobe Illustrator 23.0.3, SVG Export Plug-In . SVG Version: 6.00 Build 0)  -->
<svg version="1.1" xmlns="http://www.w3.org/2000/svg" xmlns:xlink="http://www.w3.org/1999/xlink" x="0px" y="0px"
	 viewBox="0 0 216 216" style="enable-background:new 0 0 216 216;" xml:space="preserve">
<style type="text/css">
	.st0{fill:#FFFFFF;}
	.st1{fill:#01265B;}
	.st2{fill:#C3C3C3;}
	.st3{fill:#D10081;}
	.st4{fill:none;stroke:#00BAE5;stroke-width:8;stroke-linecap:round;stroke-linejoin:round;stroke-miterlimit:10;}
</style>
<g id="Layer_1">
	<rect x="-1" y="-0.1" class="st0" width="215.8" height="215.8"/>
</g>
<g id="Layer_2">
	<path class="st1" d="M49.1,72.8v57.4c0,2.4,1.9,4.4,4.1,4.4H163c2.3,0,4.1-2,4.1-4.4V72.8H49.1z"/>
	<g id="_x39_vMTiS_1_">
		<g>
			<path class="st2" d="M180.1,141.7c-0.9,4.4-2.7,6.2-6.7,6.2c-43.5,0-87,0-130.6,0c-3.9,0-5.4-2.6-7-6c1.2-0.2,2.2-0.4,3.1-0.4
				c16.4,0,32.9,0,49.3,0c1,0,2.6-0.2,3,0.4c3,3.7,7.1,2.8,11,2.8c4.5,0.1,8.9,0,13.4,0c3.8,0,7.7,0.7,10.6-2.8
				c0.4-0.5,1.5-0.4,2.2-0.4c16.8,0,33.7,0,50.5,0C179.4,141.4,179.7,141.6,180.1,141.7z"/>
		</g>
	</g>
	<circle cx="160.7" cy="67.7" r="2.8"/>
	<circle cx="153.2" cy="67.7" r="2.8"/>
	<circle cx="144.9" cy="67.7" r="2.8"/>
	<path d="M173.8,133.7v-3.9c0-22.6,0-45.2,0-67.8c0-5.8-0.3-6.2-5.9-6.2c-39.8,0-79.7,0-119.5,0c-5.5,0-5.9,0.4-5.9,5.8
		c0,22.7,0,45.5,0,68.2c0,1.5,0,3,0,4.9c-2.8,0-5-0.3-7.2,0.1c-2.1,0.3-4.1,1.2-6.1,1.9v7.1c0.3,0.3,0.6,0.5,0.7,0.8
		c2.8,7,7.6,9.9,15.3,9.7c14.7-0.4,29.5-0.1,44.2-0.1c27.6,0,55.3,0,82.9,0.1c6.8,0,11.2-3,13.8-9c0.2-0.6,0.6-1.1,1-1.6v-7.1
		C182.8,135.8,178.5,134.8,173.8,133.7z M49.1,66.6c0-2.3,1.9-4.1,4.1-4.1H163c2.3,0,4.1,1.9,4.1,4.1v63.7c0,2.3-1.9,4.1-4.1,4.1
		H53.2c-2.3,0-4.1-1.9-4.1-4.1V66.6z M173.4,147.9c-43.5,0-87,0-130.6,0c-3.9,0-5.4-2.6-7-6c1.2-0.2,2.2-0.4,3.1-0.4
		c16.4,0,32.9,0,49.3,0c1,0,2.6-0.2,3,0.4c3,3.7,7.1,2.8,11,2.8c4.5,0.1,8.9,0,13.4,0c3.8,0,7.7,0.7,10.6-2.8
		c0.4-0.5,1.5-0.4,2.2-0.4c16.8,0,33.7,0,50.5,0c0.4,0,0.7,0.2,1.1,0.3C179.2,146.1,177.4,147.9,173.4,147.9z"/>
	<g id="hMtz5r.tif">
		<g>
			<path class="st3" d="M90,126.2c2.2-0.9,3.3-2.5,3.8-4.6c0.4-1.8,1.1-3.6,2.4-5c0.8-1,1.8-1.7,3.1-2.1c1.8-0.6,3.4-0.1,4.8,1.1
				c0.9,0.7,1.6,1.6,1.8,2.8c0.2,1.2-0.1,2.2-0.7,3.2c-1.5,2.4-3.5,4.1-6.3,5c-2.1,0.7-4.2,0.6-6.3,0.3
				C91.8,126.7,91,126.4,90,126.2z"/>
		</g>
	</g>
	<path class="st3" d="M122,83.2c-0.1-0.6-0.6-1-1.3-1.1c-0.7-0.1-1.2,0.2-1.7,0.7c-3.2,4.2-6.4,8.5-9.6,12.7
		c-3.5,4.6-6,9.6-7.2,15.3c-0.1,0.3-0.1,0.6-0.2,0.9c1.3,0.2,2.5,0.8,3.7,1.8c0,0,0.1,0.1,0.1,0.1c0.7-0.7,1.4-1.3,2.1-2
		c2.1-2.1,3.9-4.4,5.3-7c1.3-2.3,2.3-4.8,3.3-7.2c1.7-4.3,3.5-8.5,5.2-12.8C122,84.1,122.1,83.6,122,83.2z"/>
	<polyline class="st4" points="87.1,92.3 57.9,102.8 86.4,115.6 	"/>
	<polyline class="st4" points="127.7,92.3 156.9,102.8 128.4,115.6 	"/>
</g>
</svg>
