<?xml version="1.0" encoding="utf-8"?>
<!-- Generator: Adobe Illustrator 23.0.3, SVG Export Plug-In . SVG Version: 6.00 Build 0)  -->
<svg version="1.1" id="Layer_1" xmlns="http://www.w3.org/2000/svg" xmlns:xlink="http://www.w3.org/1999/xlink" x="0px" y="0px"
	 viewBox="0 0 124.46 200.05" style="enable-background:new 0 0 124.46 200.05;" xml:space="preserve">
<style type="text/css">
	.st0{fill:#770069;}
	.st1{fill:#D01481;}
</style>
<path class="st0" d="M71.25,33.74c0,0-8.29-19.35-28.53-17.02C24.89,18.76,25,34.22,25,34.22v135c0,0,2.09,16.74,19.67,16.74
	s22.67-16.88,23.44-17.37s12.98-2.23,18.84-15.14s3.35-22.47,3.63-23.16c0.28-0.7,13.72-9.35,14.58-28.05
	c0.7-15.21-5.09-20.23-5.37-22.05s3.07-17.79-6.71-31.48C84.28,36.4,73.9,35.34,71.25,33.74z"/>
<path class="st1" d="M31.18,71.22V33.08c0,0,2.51-8.93,13.21-9.49S70.01,34.38,65.6,50.11c-1.49,5.3-13.21,1.58-13.12-3.54
	c0.06-3.29-1.44-8.55-3.65-9.48c-2.21-0.93-4.17,0.56-3.42,3.44c0.74,2.88,1.02,5.16,0.93,6.74c-0.09,1.58-4.19,3.49-7.26,7.12
	c-3.07,3.63-0.37,6.6,1.49,6.79c1.86,0.19,5.08-5.49,8.26-5.49s9.99,6.23,17.74,3.16c7.75-3.07,6.84-14.79,7.02-16.47
	c0,0,6.79,0.09,12.93,8c6.14,7.91,8.84,16.07,6.79,29.58c-0.47,3.07,0.37,2.7,1.4,4.09c1.02,1.4,5.77,9.95,3.81,19.72
	c-1.95,9.77-6,17.31-12.93,21.02c-1.17,0.63-1.12,2.14-0.93,4.65c0.19,2.51-0.06,17.28-3.26,22.23
	c-4.65,7.21-12.09,10.33-12.09,10.33s0.37-8.28-1.77-13.02c-2.14-4.74-3.81-7.44-3.81-8.74s5.67-6.98,6.79-9.86s2.74-6.51-0.37-7.91
	c-1.99-0.89-4.78,4.6-6.14,6.23c-1.52,1.82-4.14,3.63-5.81,3.81c-1.67,0.19-10.19-1.58-12.6-1.02c-2.42,0.56-3.44,4.19-0.65,5.86
	c2.79,1.67,8.47-0.28,11.81,4c3.35,4.28,16.46,29.49-9.21,37.49c-12.09,3.77-16.93-11.91-16.93-11.91v-12.61
	c0,0,6.42-1.44,9.67,1.17c2.52,2.01,4.28,6.14,6.98,6.42s3.26-6.6,1.12-9.4c-2.14-2.79-3.26-4.47-7.53-5.4
	c-4.28-0.93-11.26-0.93-11.26-0.93v-31.07c0,0,9.95,5.21,17.3,3.16c7.35-2.05,14.35-8.04,18.2-16.09c1.42-2.98,7.28,3.26,12.77,4.65
	c0,0,0.93,9.3,5.12,8.65c4.19-0.65,0.65-8.56,1.58-10.88c0.93-2.33,5.4-5.12,5.95-6.51c0.56-1.4-0.09-3.26-1.3-4
	c-1.21-0.74-3.35-0.84-5.4,1.3c-2.05,2.14-2.7,4-4.09,3.91c-1.4-0.09-9.42-4.39-10.51-5.49c-1.95-1.95-2.38-3.16-4.68-2.79
	c-2.3,0.37-2.58,6.23-3.97,8.84c-1.4,2.6-6.7,11.44-15.91,12.28c-9.21,0.84-13.49-6.51-13.49-6.51V76.99c0,0,5.3-1.12,8.56,0.28
	c3.26,1.4,6.33,3.16,7.07,5.4c0.74,2.23-0.84,7.53-0.74,9.02c0.09,1.49,1.95,3.72,3.63,3.63c1.67-0.09,2.05-6.05,2.88-9.4
	s4.09-6.51,9.21-7.72c5.12-1.21,12.93,3.07,14.23,6.7s7.16,1.4,5.67-2.88c-1.49-4.28-6.42-5.49-5.95-8.09c0.47-2.6,4.19-6.7,4-8.65
	c-0.19-1.95-1.58-2.6-3.07-2.51c-1.49,0.09-4.58,5.93-8.84,9.77c0,0-10.05-3.77-16.56,4.56c0,0-8.19-5.77-12-6.23
	C35.46,70.39,31.18,71.22,31.18,71.22z"/>
</svg>
