<?xml version="1.0" encoding="utf-8"?>
<!-- Generator: Adobe Illustrator 23.0.3, SVG Export Plug-In . SVG Version: 6.00 Build 0)  -->
<svg version="1.1" id="Layer_1" xmlns="http://www.w3.org/2000/svg" xmlns:xlink="http://www.w3.org/1999/xlink" x="0px" y="0px"
	 viewBox="0 0 216 216" style="enable-background:new 0 0 216 216;" xml:space="preserve">
<style type="text/css">
	.st0{fill:#FFFFFF;}
	.st1{fill:#F9DBCE;}
	.st2{fill:#006E78;}
	.st3{fill:#D10081;}
	.st4{fill:#00BAE5;}
	.st5{fill:#D8AB9C;}
	.st6{fill:#FEFEFE;}
	.st7{fill:#242021;}
	.st8{fill:#01265B;}
	.st9{fill:none;}
	.st10{fill:#4F4543;}
	.st11{fill:#998885;}
	.st12{fill:#F7DED5;}
	.st13{fill:#352E2D;}
</style>
<rect x="-1" y="-0.1" class="st0" width="215.8" height="215.8"/>
<path class="st1" d="M153,95.3c-1.7-2-3.8-3.3-6.5-3.6c-0.5,0-1-0.1-1.1-0.8c-0.2-1.2-0.4-2.4-0.6-3.5c0.8-3.3,1.8-7.7,2.4-11.1
	c1.3-6.3,3.6-46.7-34.4-46.7h0c38.1,0,35.7,40.4,34.4,46.7c-0.6,2.8-1.3,6.2-2,9.2c-1.5-2.7-3.7-6-5.9-8c-1.7-1.6,3.8-12.3,1.7-18.3
	c-2.1-6-6.9-11.2-8.8-10.7c-1.8,0.5-7.5,12.5-23.8,12.5c-2.3,0-4.5-0.3-6.4-0.7c-0.4-0.1-0.7-0.2-1.1-0.3
	c-10.4-2.9-14-11.1-15.5-11.5c-1.8-0.5-6.7,4.7-8.8,10.7c-2.1,6,3.5,16.7,1.7,18.3c-2.3,2-4.4,5.3-5.9,8c0.9,3.7,1.6,6.7,1.6,6.7
	c-2.8,0.4-5.3,1.3-7.2,3.4c-4.7,5.3-2.7,13.4,4,15.5c2.7,0.9,3.3,2.2,3.3,4.5l0,0l-0.5-15.3c0,0,6.8,19.4,9.1,22.5
	c2.2,3.2,6.1,5.5,6.1,7.1c0,1.6,2.6,2.2,2.6,2.2s0.2-5.6,1.2-6.5c0.9-0.9,12.6-4.7,12.6-4.7s2.5,1.1,4,1.1c0.1,0,0.1,0,0.1,0.1
	c0,0,0,0,0,0c0,0.1,0.1,0.1,0.1,0.2c0.1-0.2,0.2-0.3,0.3-0.3c1.5,0,4-1.1,4-1.1s11.7,3.8,12.6,4.7c0.9,0.9,1.2,6.5,1.2,6.5
	s2.6-0.6,2.6-2.2c0-1.6,3.9-3.9,6.1-7.1c2.2-3.2,9.1-22.5,9.1-22.5l-0.5,15.3c0,0.1,0,0.3,0,0.5c0.1-0.4,0.1-0.7,0.1-0.8
	c0.4-0.8,0.6-2.3,0.6-3.1c0-0.6,0.2-1.1,0.9-1.1c2.3-0.2,4.2-1.3,5.9-3C155.9,104.6,156.1,99,153,95.3z M71.3,106
	c-1.7-0.4-3.3-2-3.3-3.7c-0.1-2,1.1-3.7,3-4.2c1-0.3,1.3,0,1.2,1c0,1,0,2,0,2.9c0,1.1,0,2.2,0,3.2C72.2,105.9,72,106.1,71.3,106z
	 M97.5,104.4c-5.2,2-11.3-1.8-11.9-7.3c-0.2-2,0.2-3.9,1-5.7c0.4-0.9,0.9-1.2,1.8-1.1c2.3,0.2,4.6,0.4,6.9,0.5
	c2.1,0.2,4.1,0.3,6.2,0.5c1.9,0.1,2.2,0.4,2.4,2.2C104.5,98.3,102.2,102.6,97.5,104.4z M149.8,105.6c-0.2,0.2-0.5,0.3-0.7,0.3
	c-0.3-0.1-0.2-0.5-0.2-0.7c0-1.1,0-2.2,0-3.2h0v-3.1c0-0.3-0.1-0.6,0.2-0.8c0.3-0.2,0.5,0.1,0.7,0.3
	C151.5,99.7,151.5,104.3,149.8,105.6z"/>
<g>
	<g id="BokI5X_2_">
		<g>
			<path class="st2" d="M190.4,45.5c-0.5-0.2-0.8-0.6-0.9-1.1C190.1,44.6,190.5,44.9,190.4,45.5z"/>
			<path class="st2" d="M40.3,183.8c0,0.1,0,0.2,0,0.3c-0.3,0-0.5,0-0.5-0.4C40,183.7,40.2,183.7,40.3,183.8z"/>
			<path class="st2" d="M189.6,44.4c-0.2,0-0.3-0.2-0.4-0.3C189.3,44.2,189.4,44.3,189.6,44.4z"/>
			<path class="st1" d="M106.9,164.4l-12.3-8l3.3-11.6H108C108,144.8,106.6,164.1,106.9,164.4z"/>
			<path class="st1" d="M112.7,164.4l12.3-8l-3.3-11.6h-10.1C111.7,144.8,113,164.1,112.7,164.4z"/>
			<path class="st3" d="M117.7,158.7c0,0.1,14.9-6.8,14.9-6.8c2.5,2.6,5,5.2,7.4,7.8c0.2,0.2,0.5,0.4,0.6,0.8
				c-5.4,3.3-10.8,6.6-16.2,9.9c-0.6,0.4-0.9,0.8-1,1.6c-0.9,8.5-1.7,17-2.6,25.4c-0.4,4-0.9,8-1.3,12c-0.7-8.6-1.3-17.1-2-25.6
				c-0.2-2-0.3-3.9-0.5-5.9c0-0.6-0.3-0.9-0.9-0.9c-4.6,0-9.3,0-13.9,0c-0.8,0-1,0.3-1,1.1c-0.7,10.1-1.5,20.1-2.3,30.1
				c0,0.3-0.1,0.6-0.2,1c-0.5-7-1-13.9-1.5-20.9c-0.3-5-0.7-10-1-15c0-0.5-0.1-1-0.6-1.3c-6-4-11.9-8.1-17.9-12.2
				c-0.5-0.7,0.3-0.9,0.6-1.2c2.3-2.2,5.8-5,8.1-7.2c0,0.2,13.6,7.5,13.4,7.4c0.9,0.6,1.8,1.3,2.7,1.9c-0.1,0.6-0.1,1.3-0.2,2
				c-0.4,3.7-1.1,7.3-1.2,11c0,1,0.2,1.5,1.3,1.4c4.3-0.1,8.6-0.1,12.9,0c1,0,1.3-0.3,1.2-1.3c-0.4-4.4-0.8-8.8-1.2-13.2
				C115.8,159.6,117,159.4,117.7,158.7z"/>
			<path class="st4" d="M132.8,190.1c3.7-2.1,7.1-4.1,10.5-6.1c0.5-0.3,0.8-0.2,1.3,0c3.2,2,6.4,3.9,9.9,6
				C147.2,190.1,140.1,190.1,132.8,190.1z"/>
			<path class="st1" d="M117.7,158.7c-0.8,0.7-1.9,0.9-2.3,1.9c-0.2-0.2-0.3-0.4-0.7-0.4c-3.8,0.1-7.7,0.2-11.5-0.1
				c-0.3,0-0.5,0.2-0.7,0.4c-0.9-0.6-1.8-1.3-2.7-1.9c1.5-2.5,3.2-4.8,6.2-5.8c3.4-1.2,6.2-0.3,8.8,1.9
				C116,155.9,117,157.2,117.7,158.7z"/>
			<path class="st5" d="M72.2,102c0,1.1,0,2.2,0,3.2c0,0.7-0.2,0.9-0.9,0.7c-1.7-0.4-3.2-2-3.3-3.7c-0.1-2,1.1-3.7,3-4.2
				c1-0.3,1.3,0,1.2,1C72.2,100.1,72.2,101.1,72.2,102C72.2,102,72.2,102,72.2,102z"/>
			<path class="st5" d="M148.9,102c0-1,0-2.1,0-3.1c0-0.3-0.1-0.6,0.2-0.8c0.3-0.2,0.5,0.1,0.7,0.3c1.7,1.3,1.7,5.9,0,7.2
				c-0.2,0.2-0.5,0.3-0.7,0.3c-0.3-0.1-0.2-0.4-0.2-0.7C148.9,104.1,148.9,103,148.9,102C148.9,102,148.9,102,148.9,102z"/>
			<path class="st4" d="M102.6,160.6c0.2-0.2,0.3-0.5,0.7-0.4c3.8,0.4,7.7,0.1,11.5,0.1c0.4,0,0.5,0.2,0.7,0.4
				c0.4,4.4,0.8,8.8,1.2,13.2c0.1,1-0.2,1.3-1.2,1.3c-4.3-0.1-8.6-0.1-12.9,0c-1.2,0-1.4-0.4-1.3-1.4c0.1-3.7,0.9-7.4,1.2-11
				C102.5,161.9,102.5,161.3,102.6,160.6z"/>
			<path class="st6" d="M95.3,90.9c2.1,0.2,4.1,0.3,6.2,0.5c1.9,0.1,2.2,0.4,2.4,2.2c0.6,4.8-1.7,9.1-6.4,10.9
				c-5.2,2-11.3-1.8-11.9-7.3c-0.2-2,0.2-3.9,1-5.7c0.4-0.9,0.9-1.2,1.8-1.1C90.7,90.6,93,90.7,95.3,90.9z M96.6,93.7
				c-0.2,1.4-0.9,2.2-2.2,2.3c-1.2,0.1-1.8-0.8-2.2-1.8c-1.4,2-1.2,4.1,0.4,5.3c1.4,1,3.4,0.8,4.6-0.5
				C98.6,97.5,98.4,95.5,96.6,93.7z"/>
			<path class="st7" d="M96.6,93.7c1.8,1.7,2,3.8,0.6,5.3c-1.1,1.3-3.2,1.5-4.6,0.5c-1.6-1.2-1.8-3.2-0.4-5.3c0.4,1,1,1.9,2.2,1.8
				C95.7,95.9,96.4,95.1,96.6,93.7z"/>
		</g>
	</g>
	<path class="st8" d="M175.6,185.4c-1-4.6-2.2-9.2-3-13.8c-0.4-2.1-1.3-2.8-3.3-3.3c-9.6-2.5-19.1-5.2-28.6-7.8
		c-5.4,3.3-10.8,6.6-16.2,9.9c-0.6,0.4-0.9,0.8-1,1.6c-0.9,8.5-1.7,17-2.6,25.4c-0.4,4-0.9,8-1.3,12l-0.5,6.2h62.5L175.6,185.4z
		 M143.3,184.1c0.5-0.3,0.8-0.2,1.3,0c3.2,2,6.4,3.9,9.9,6h-21.7C136.4,188,139.9,186.1,143.3,184.1z"/>
	<path class="st8" d="M98.7,209.7c0-0.2,0-0.4,0-0.6c-0.5-7-1-13.9-1.5-20.9c-0.3-5-0.7-10-1-15c0-0.5-0.1-1-0.6-1.3
		c-6-4-11.9-8.1-17.9-12.2c-0.4,0.1-0.7,0.2-1.1,0.3c-10.6,2.9-21.1,5.7-31.7,8.6c-0.8,0.2-1.3,0.4-1.5,1.4c-1,4.6-2,9.2-3.1,13.8
		c0,0.1,0,0.2,0,0.3l-6.6,31.5h65L98.7,209.7z"/>
	<path class="st4" d="M119.5,209.3L119.5,209.3L119.5,209.3L119.5,209.3c-0.7-8.6-1.3-17.1-2-25.6c-0.2-2-0.3-3.9-0.5-5.9
		c0-0.6-0.3-0.9-0.9-0.9c-4.6,0-9.3,0-13.9,0c-0.8,0-1,0.3-1,1.1c-0.7,10.1-1.5,20.1-2.3,30.1c0,0.3-0.1,0.6-0.2,1
		c0,0.2,0,0.4,0,0.6l0,5.9h20.3l0.5-5.9h0C119.5,209.5,119.5,209.4,119.5,209.3z"/>
</g>
<g>
	<path class="st9" d="M101.5,91.3c-2.1-0.2-4.1-0.3-6.2-0.5c-2.3-0.2-4.6-0.3-6.9-0.5c-1-0.1-1.5,0.2-1.8,1.1
		c-0.8,1.8-1.2,3.7-1,5.7c0.6,5.5,6.8,9.3,11.9,7.3c4.7-1.8,7-6.1,6.4-10.9C103.7,91.7,103.4,91.4,101.5,91.3z"/>
	<path class="st9" d="M72.2,99.1c0-1-0.3-1.3-1.2-1c-1.9,0.5-3.1,2.2-3,4.2c0.1,1.6,1.6,3.3,3.3,3.7c0.7,0.2,1-0.1,0.9-0.7
		c0-1.1,0-2.1,0-3.2C72.2,101.1,72.2,100.1,72.2,99.1z"/>
	<path class="st9" d="M149.8,98.4c-0.2-0.2-0.4-0.4-0.7-0.3c-0.3,0.1-0.2,0.5-0.2,0.8c0,1,0,2,0,3.1h0c0,1.1,0,2.1,0,3.2
		c0,0.3-0.1,0.7,0.2,0.7c0.2,0,0.5-0.2,0.7-0.3C151.5,104.3,151.5,99.7,149.8,98.4z"/>
	<path class="st1" d="M74.3,115.5L74.3,115.5C74.2,115.5,74.2,115.5,74.3,115.5C74.2,115.5,74.2,115.5,74.3,115.5z"/>
</g>
<path class="st1" d="M110.6,155.6C110.7,155.6,110.7,155.6,110.6,155.6c9.7,0,30.8-19.4,32.3-28.6c0.6-3.5,1-6,1.4-7.9
	c-0.4,1.8-0.9,4.4-1.5,7.9C141.4,136.2,120.3,155.6,110.6,155.6z"/>
<path class="st10" d="M80.7,91.6c-0.1,0,1.6-6.1,6.6-5.6c5,0.3,13.6,2.4,15.2,2.6c1.8,0.1,3.2-0.1,3.2-0.1c0,0-1-2.8-2.7-3.6
	c-1.4-1-14.5-4.4-16.8-4.1C84,80.7,79.1,86.2,80.7,91.6z"/>
<path class="st10" d="M139.9,91.6c0.1,0-1.6-6.1-6.6-5.6c-5,0.3-13.6,2.4-15.2,2.6c-1.8,0.1-3.2-0.1-3.2-0.1c0,0,1-2.8,2.7-3.6
	c1.4-1,14.5-4.4,16.8-4.1C136.5,80.7,141.5,86.2,139.9,91.6z"/>
<path class="st6" d="M131.1,90.3c1-0.1,1.5,0.2,1.8,1.1c0.8,1.8,1.2,3.7,1,5.7c-0.6,5.5-6.8,9.3-11.9,7.3c-4.7-1.8-7-6.1-6.4-10.9
	c0.2-1.8,0.5-2,2.4-2.2c2.1-0.2,4.1-0.3,6.2-0.5C126.5,90.7,128.8,90.6,131.1,90.3z M122.3,99.1c1.1,1.3,3.2,1.5,4.6,0.5
	c1.6-1.2,1.8-3.2,0.4-5.3c-0.4,1-1,1.9-2.2,1.8c-1.3-0.1-2-1-2.2-2.3C121.1,95.5,121,97.5,122.3,99.1z"/>
<path class="st7" d="M125.1,96.1c1.2,0.1,1.8-0.8,2.2-1.8c1.4,2.1,1.2,4.1-0.4,5.3c-1.4,1-3.4,0.8-4.6-0.5c-1.4-1.6-1.2-3.6,0.6-5.3
	C123.1,95.1,123.8,95.9,125.1,96.1z"/>
<path class="st11" d="M136.4,122.7c-2.2,3.2-6.1,5.5-6.1,7.1c0,1.6-2.6,2.2-2.6,2.2s-0.2-5.6-1.2-6.5c-0.9-0.9-12.6-4.7-12.6-4.7
	s-2.5,1.1-4,1.1c-0.1,0-0.2,0.1-0.3,0.3c-0.1-0.2-0.2-0.3-0.3-0.3c-1.5,0-4-1.1-4-1.1s-11.7,3.8-12.6,4.7c-0.9,0.9-1.2,6.5-1.2,6.5
	s-2.6-0.6-2.6-2.2c0-1.6-3.9-3.9-6.1-7.1c-2.2-3.2-9.1-22.5-9.1-22.5l0.5,15.3c-0.1,1.1,1,4.4,2.1,11.5c1.5,9.3,22.6,28.6,32.3,28.6
	c0.2,0,0.5,0,0.7,0h0.5c0.2,0,0.5,0,0.7,0c9.7,0,30.8-19.4,32.3-28.6c1.1-7.1,2.1-10.4,2.1-11.5l0.5-15.3
	C145.5,100.1,138.6,119.5,136.4,122.7z"/>
<path class="st12" d="M97.7,130.2l8.1,5c0,0-1.1,3.6-4.2,3.7C98.6,139.1,97.7,130.2,97.7,130.2"/>
<path class="st12" d="M121.3,129.8l-8.1,5c0,0,1.1,3.6,4.2,3.7C120.5,138.6,121.3,129.8,121.3,129.8"/>
<path class="st1" d="M97.7,130.2l8.1,5c0,0,5,0.4,7.5-0.5c2.4-0.9,8.1-4.9,8.1-4.9l-11.3-1.3L97.7,130.2"/>
<g>
	<path class="st9" d="M149.8,98.4c-0.2-0.2-0.4-0.4-0.7-0.3c-0.3,0.1-0.2,0.5-0.2,0.8v3.1h0c0,1.1,0,2.1,0,3.2
		c0,0.3-0.1,0.7,0.2,0.7c0.2,0,0.5-0.2,0.7-0.3C151.5,104.3,151.5,99.7,149.8,98.4z"/>
	<path class="st9" d="M101.5,91.3c-2.1-0.2-4.1-0.3-6.2-0.5c-2.3-0.2-4.6-0.3-6.9-0.5c-1-0.1-1.5,0.2-1.8,1.1
		c-0.8,1.8-1.2,3.7-1,5.7c0.6,5.5,6.8,9.3,11.9,7.3c4.7-1.8,7-6.1,6.4-10.9C103.7,91.7,103.4,91.4,101.5,91.3z"/>
	<path class="st9" d="M72.2,99.1c0-1-0.3-1.3-1.2-1c-1.9,0.5-3.1,2.2-3,4.2c0.1,1.6,1.6,3.3,3.3,3.7c0.7,0.2,1-0.1,0.9-0.7
		c0-1.1,0-2.1,0-3.2C72.2,101.1,72.2,100.1,72.2,99.1z"/>
</g>
<path class="st10" d="M112.8,29.5h-3.5h-0.8h-0.2H105c-38.1,0-35.7,40.4-34.4,46.7c0.6,2.8,1.3,6.2,2,9.2c1.5-2.7,3.7-6,5.9-8
	c1.7-1.6-3.8-12.3-1.7-18.3c2.1-6,6.9-11.2,8.8-10.7c1.8,0.5,6.7,12.5,23,12.5s22-12,23.8-12.5c1.8-0.5,6.7,4.7,8.8,10.7
	c2.1,6-3.5,16.7-1.7,18.3c2.3,2,4.4,5.3,5.9,8c0.7-2.9,1.4-6.4,2-9.2C148.5,69.9,150.9,29.5,112.8,29.5z"/>
<path class="st13" d="M112.8,29.5h-3.5h-0.8h-0.2H105c-38.1,0-35.7,40.4-34.4,46.7c0.6,2.8,1.3,6.2,2,9.2c1.5-2.7,3.7-6,5.9-8
	c1.7-1.6-3.8-12.3-1.7-18.3c2.1-6,6.9-11.2,8.8-10.7c1.8,0.5,6.7,12.5,23,12.5s22-12,23.8-12.5c1.8-0.5,6.7,4.7,8.8,10.7
	c2.1,6-3.5,16.7-1.7,18.3c2.3,2,4.4,5.3,5.9,8c0.7-2.9,1.4-6.4,2-9.2C148.5,69.9,150.9,29.5,112.8,29.5z"/>
<path class="st5" d="M97.7,130.2c0,0,5.6-4.8,8.5-4.4c1.3,0.2,1.9,0.9,3.7,0.9s3.3-0.9,4.8-0.9c2.8,0,6.5,4,6.5,4s-8,1.5-11.8,1.5
	S97.7,130.2,97.7,130.2z"/>
</svg>
