<?xml version="1.0" encoding="utf-8"?>
<!-- Generator: Adobe Illustrator 23.0.3, SVG Export Plug-In . SVG Version: 6.00 Build 0)  -->
<svg version="1.1" id="Layer_1" xmlns="http://www.w3.org/2000/svg" xmlns:xlink="http://www.w3.org/1999/xlink" x="0px" y="0px"
	 viewBox="0 0 329.62 239.45" style="enable-background:new 0 0 329.62 239.45;" xml:space="preserve">
<style type="text/css">
	.st0{fill:#0875B5;}
	.st1{fill:#EBF7FA;}
	.st2{fill:#0DBAE5;}
	.st3{fill:#1B2B59;}
	.st4{fill:#FFFFFF;}
	.st5{font-family:'OpenSans';}
	.st6{font-size:10px;}
	.st7{fill:#131024;}
</style>
<path class="st0" d="M297.34,228.05H31.67c-12.67,0-22.94-10.27-22.94-22.94V33.16c0-12.67,10.27-22.94,22.94-22.94h265.66
	c12.67,0,22.94,10.27,22.94,22.94v171.96C320.27,217.78,310,228.05,297.34,228.05z"/>
<rect x="35.28" y="39.49" class="st1" width="254.33" height="15.91"/>
<rect x="35.28" y="39.49" class="st2" width="225.63" height="15.91"/>
<rect x="35.28" y="68.59" class="st1" width="254.33" height="15.91"/>
<rect x="35.28" y="68.59" class="st2" width="225.63" height="15.91"/>
<rect x="35.28" y="39.49" class="st3" width="79.06" height="15.91"/>
<rect x="35.28" y="68.56" class="st3" width="79.06" height="15.91"/>
<rect x="35.28" y="97.62" class="st1" width="254.33" height="15.91"/>
<rect x="35.28" y="97.62" class="st2" width="168.27" height="15.91"/>
<rect x="35.28" y="97.62" class="st3" width="79.06" height="15.91"/>
<rect x="35.28" y="126.69" class="st1" width="254.33" height="15.91"/>
<rect x="35.28" y="126.69" class="st3" width="79.06" height="15.91"/>
<rect x="35.28" y="155.76" class="st2" width="254.33" height="15.91"/>
<rect x="35.28" y="155.76" class="st3" width="79.06" height="15.91"/>
<rect x="35.28" y="184.82" class="st2" width="254.33" height="15.91"/>
<rect x="35.28" y="184.82" class="st3" width="79.06" height="15.91"/>
<g>
	<text transform="matrix(1 0 0 1 47.5826 50.909)" class="st4 st5 st6">Photoshop</text>
</g>
<text transform="matrix(1 0 0 1 265.3781 50.909)" class="st7 st5 st6">90%</text>
<text transform="matrix(1 0 0 1 265.3781 80.0048)" class="st7 st5 st6">90%</text>
<g>
	<text transform="matrix(1 0 0 1 50.2143 79.9756)" class="st4 st5 st6">Illustrator</text>
</g>
<g>
	<text transform="matrix(1 0 0 1 66.4743 109.6572)" class="st4 st5 st6">XD</text>
</g>
<g>
	<text transform="matrix(1 0 0 1 50.5438 138.1089)" class="st4 st5 st6">Sketching</text>
</g>
<g>
	<text transform="matrix(1 0 0 1 42.7264 167.1755)" class="st4 st5 st6">Wire framing</text>
</g>
<g>
	<text transform="matrix(1 0 0 1 45.2802 196.2421)" class="st4 st5 st6">Style guides</text>
</g>
</svg>
