<svg id="Layer_5" data-name="Layer 5" xmlns="http://www.w3.org/2000/svg" viewBox="0 0 518.84 234.28"><defs><style>.cls-1{fill:#0074b5;}.cls-2{fill:#e9ffff;}.cls-3{fill:#00bae5;}.cls-4{fill:#01265b;}.cls-5,.cls-6{font-size:7.86px;font-family:OpenSans, Open Sans;}.cls-5{fill:#fff;}.cls-6{fill:#0b0124;}.cls-7{fill:#750462;}.cls-8{fill:#d10081;}.cls-9{fill:#48004c;}</style></defs><title>UXUIDevSkills</title><rect class="cls-1" y="63.08" width="244.85" height="171.2" rx="22.94"/><rect class="cls-2" x="20.86" y="86.08" width="199.88" height="12.5"/><rect class="cls-3" x="20.86" y="86.08" width="177.33" height="12.5"/><rect class="cls-4" x="20.86" y="86.08" width="62.14" height="12.5"/><rect class="cls-2" x="20.86" y="108.93" width="199.88" height="12.5"/><rect class="cls-3" x="20.86" y="108.93" width="89.99" height="12.5"/><rect class="cls-4" x="20.86" y="108.93" width="62.14" height="12.5"/><rect class="cls-2" x="20.86" y="131.77" width="199.88" height="12.5"/><rect class="cls-3" x="20.86" y="131.77" width="132.25" height="12.5"/><rect class="cls-4" x="20.86" y="131.77" width="62.14" height="12.5"/><rect class="cls-3" x="20.86" y="154.62" width="199.88" height="12.5"/><rect class="cls-4" x="20.86" y="154.62" width="62.14" height="12.5"/><rect class="cls-3" x="20.86" y="177.46" width="199.88" height="12.5"/><rect class="cls-4" x="20.86" y="177.46" width="62.14" height="12.5"/><rect class="cls-3" x="20.86" y="200.31" width="199.88" height="12.5"/><rect class="cls-4" x="20.86" y="200.31" width="62.14" height="12.5"/><text class="cls-5" transform="translate(38.89 95.06)">HTML</text><text class="cls-6" transform="translate(201.71 95.06)">90%</text><text class="cls-5" transform="translate(32.05 117.9)">JavaScript</text><text class="cls-5" transform="translate(42.76 140.75)">CSS</text><text class="cls-5" transform="translate(35.59 163.59)">VSCode</text><text class="cls-5" transform="translate(31.43 186.44)">GitKraken</text><text class="cls-5" transform="translate(31.03 209.28)">Bootstrap</text><rect class="cls-7" x="273.99" y="63.08" width="244.85" height="171.2" rx="22.94"/><rect class="cls-2" x="294.85" y="86.08" width="199.88" height="12.5"/><rect class="cls-8" x="294.85" y="86.08" width="177.33" height="12.5"/><rect class="cls-9" x="294.85" y="86.08" width="62.14" height="12.5"/><rect class="cls-9" x="294.85" y="108.93" width="62.14" height="12.5"/><rect class="cls-2" x="294.85" y="131.77" width="199.88" height="12.5"/><rect class="cls-8" x="294.85" y="131.77" width="132.25" height="12.5"/><rect class="cls-9" x="294.85" y="131.77" width="62.14" height="12.5"/><rect class="cls-8" x="294.85" y="154.62" width="199.88" height="12.5"/><rect class="cls-9" x="294.85" y="154.62" width="62.14" height="12.5"/><rect class="cls-8" x="294.85" y="177.46" width="199.88" height="12.5"/><rect class="cls-9" x="294.85" y="177.46" width="62.14" height="12.5"/><rect class="cls-8" x="294.85" y="200.31" width="199.88" height="12.5"/><rect class="cls-9" x="294.85" y="200.31" width="62.14" height="12.5"/><text class="cls-5" transform="translate(304.52 95.06)">Photoshop</text><text class="cls-6" transform="translate(475.69 95.06)">90%</text><text class="cls-5" transform="translate(306.59 117.9)">Illustrator</text><text class="cls-5" transform="translate(319.37 141.23)">XD</text><text class="cls-5" transform="translate(306.85 163.59)">Sketching</text><text class="cls-5" transform="translate(300.7 186.44)">Wire framing</text><text class="cls-5" transform="translate(302.71 209.28)">Style guides</text><path class="cls-8" d="M360.26,33.6v5.94H358.6V25.26h3.92a6.15,6.15,0,0,1,3.88,1,3.64,3.64,0,0,1,1.26,3,3.79,3.79,0,0,1-2.87,3.83l3.87,6.42h-2l-3.46-5.94Zm0-1.43h2.28a3.92,3.92,0,0,0,2.58-.7,2.57,2.57,0,0,0,.82-2.09,2.37,2.37,0,0,0-.84-2,4.48,4.48,0,0,0-2.68-.63h-2.16Z" transform="translate(-10.68 -24.34)"/><path class="cls-8" d="M370.59,25.93a1.07,1.07,0,0,1,.27-.81.92.92,0,0,1,.68-.26,1,1,0,0,1,.68.26,1.33,1.33,0,0,1,0,1.63,1,1,0,0,1-.68.27.93.93,0,0,1-.68-.27A1.11,1.11,0,0,1,370.59,25.93Zm1.75,13.61h-1.62V28.83h1.62Z" transform="translate(-10.68 -24.34)"/><path class="cls-8" d="M384.54,28.83v1l-2,.23a3.47,3.47,0,0,1,.7,2.14,3.14,3.14,0,0,1-1.07,2.51,4.32,4.32,0,0,1-2.95.94,5.11,5.11,0,0,1-.9-.08,1.58,1.58,0,0,0-1,1.38.7.7,0,0,0,.36.65,2.62,2.62,0,0,0,1.24.21h1.89a4.22,4.22,0,0,1,2.67.73,2.56,2.56,0,0,1,.94,2.13A3,3,0,0,1,383,43.41a7.65,7.65,0,0,1-4.16.93,5.7,5.7,0,0,1-3.24-.78,2.53,2.53,0,0,1-1.14-2.21,2.48,2.48,0,0,1,.63-1.69,3.21,3.21,0,0,1,1.76-1,1.68,1.68,0,0,1-.69-.58,1.49,1.49,0,0,1-.28-.91,1.69,1.69,0,0,1,.31-1,3.18,3.18,0,0,1,1-.85,2.92,2.92,0,0,1-1.35-1.17,3.38,3.38,0,0,1-.53-1.87,3.47,3.47,0,0,1,1.06-2.71,4.28,4.28,0,0,1,3-.95,5.43,5.43,0,0,1,1.51.19ZM376,41.33a1.45,1.45,0,0,0,.73,1.32,4,4,0,0,0,2.1.45,5.81,5.81,0,0,0,3-.61,1.86,1.86,0,0,0,1-1.66,1.31,1.31,0,0,0-.53-1.2,4.14,4.14,0,0,0-2-.34h-1.94a2.58,2.58,0,0,0-1.72.53A1.87,1.87,0,0,0,376,41.33Zm.88-9.07a2.18,2.18,0,0,0,.63,1.7,2.55,2.55,0,0,0,1.77.58,2.07,2.07,0,0,0,2.37-2.31,2.12,2.12,0,0,0-2.4-2.41,2.38,2.38,0,0,0-1.76.61A2.48,2.48,0,0,0,376.89,32.26Z" transform="translate(-10.68 -24.34)"/><path class="cls-8" d="M394.06,39.54V32.61a2.78,2.78,0,0,0-.59-1.95A2.44,2.44,0,0,0,391.6,30a3,3,0,0,0-2.46.92,4.64,4.64,0,0,0-.78,3v5.6h-1.62V24.34h1.62v4.6a9,9,0,0,1-.08,1.38h.1a3.3,3.3,0,0,1,1.36-1.22,4.38,4.38,0,0,1,2-.44,4.12,4.12,0,0,1,2.94.93,3.9,3.9,0,0,1,1,3v7Z" transform="translate(-10.68 -24.34)"/><path class="cls-8" d="M402.47,38.39a5.49,5.49,0,0,0,.83-.06,6.4,6.4,0,0,0,.64-.13v1.24a3.51,3.51,0,0,1-.78.21,6.48,6.48,0,0,1-.92.08q-3.11,0-3.11-3.27V30.09H397.6v-.78l1.53-.67.69-2.29h.93v2.48h3.11v1.26h-3.11v6.3a2.21,2.21,0,0,0,.46,1.49A1.62,1.62,0,0,0,402.47,38.39Z" transform="translate(-10.68 -24.34)"/><path class="cls-8" d="M411.51,25.26h4a7.59,7.59,0,0,1,4.11.85,3,3,0,0,1,1.27,2.68,3.12,3.12,0,0,1-.71,2.1A3.44,3.44,0,0,1,418.16,32v.1c2.16.37,3.25,1.51,3.25,3.41a3.66,3.66,0,0,1-1.3,3,5.46,5.46,0,0,1-3.61,1.08h-5Zm1.66,6.11h2.74a4.45,4.45,0,0,0,2.53-.55,2.15,2.15,0,0,0,.77-1.86,1.88,1.88,0,0,0-.86-1.73,5.28,5.28,0,0,0-2.73-.54h-2.45Zm0,1.41v5.34h3a4.24,4.24,0,0,0,2.61-.67,2.47,2.47,0,0,0,.87-2.09,2.24,2.24,0,0,0-.89-2,4.86,4.86,0,0,0-2.72-.62Z" transform="translate(-10.68 -24.34)"/><path class="cls-8" d="M429.11,28.64a7,7,0,0,1,1.28.11l-.22,1.51a5.5,5.5,0,0,0-1.17-.15,2.85,2.85,0,0,0-2.23,1.06,3.84,3.84,0,0,0-.92,2.62v5.75h-1.62V28.83h1.34l.18,2h.08a4.82,4.82,0,0,1,1.44-1.61A3.27,3.27,0,0,1,429.11,28.64Z" transform="translate(-10.68 -24.34)"/><path class="cls-8" d="M438,39.54,437.65,38h-.07a4.48,4.48,0,0,1-1.6,1.36,4.82,4.82,0,0,1-2,.36,3.54,3.54,0,0,1-2.49-.82,3,3,0,0,1-.91-2.33q0-3.26,5.19-3.4l1.81-.06v-.66a2.72,2.72,0,0,0-.54-1.86,2.19,2.19,0,0,0-1.73-.61,7.19,7.19,0,0,0-3,.82l-.5-1.24a7.86,7.86,0,0,1,1.74-.67,7.65,7.65,0,0,1,1.89-.24,4,4,0,0,1,2.83.85,3.51,3.51,0,0,1,.93,2.72v7.31Zm-3.67-1.15a3.26,3.26,0,0,0,2.38-.83,3.05,3.05,0,0,0,.87-2.32v-1l-1.63.07a6,6,0,0,0-2.78.6,1.83,1.83,0,0,0-.86,1.66,1.67,1.67,0,0,0,.53,1.33A2.21,2.21,0,0,0,434.31,38.39Z" transform="translate(-10.68 -24.34)"/><path class="cls-8" d="M442.38,25.93a1.07,1.07,0,0,1,.27-.81.94.94,0,0,1,.69-.26,1,1,0,0,1,.67.26,1.33,1.33,0,0,1,0,1.63.94.94,0,0,1-.67.27,1,1,0,0,1-.69-.27A1.11,1.11,0,0,1,442.38,25.93Zm1.76,13.61h-1.62V28.83h1.62Z" transform="translate(-10.68 -24.34)"/><path class="cls-8" d="M454.9,39.54V32.61a2.78,2.78,0,0,0-.6-1.95,2.4,2.4,0,0,0-1.86-.65,3.09,3.09,0,0,0-2.46.91,4.61,4.61,0,0,0-.78,3v5.62h-1.62V28.83h1.31l.27,1.47h.08a3.27,3.27,0,0,1,1.39-1.23,4.54,4.54,0,0,1,2-.43,4.07,4.07,0,0,1,2.91.93,3.93,3.93,0,0,1,1,3v7Z" transform="translate(-10.68 -24.34)"/><path class="cls-8" d="M367.15,49.26V58.5a5,5,0,0,1-1.48,3.83,5.6,5.6,0,0,1-4.05,1.4,5.4,5.4,0,0,1-4-1.41,5.19,5.19,0,0,1-1.41-3.86v-9.2h1.66v9.31a3.68,3.68,0,0,0,1,2.75,4,4,0,0,0,2.88,1,3.81,3.81,0,0,0,2.78-1,3.69,3.69,0,0,0,1-2.75v-9.3Z" transform="translate(-10.68 -24.34)"/><path class="cls-8" d="M380.43,63.54h-1.89l-3.84-6.28-3.9,6.28H369l4.75-7.47-4.43-6.81h1.84l3.54,5.65,3.58-5.65h1.77L375.66,56Z" transform="translate(-10.68 -24.34)"/><path class="cls-8" d="M388.64,49.26l-5.32,14.28H381.7L387,49.26Z" transform="translate(-10.68 -24.34)"/><path class="cls-8" d="M401.59,49.26V58.5a5,5,0,0,1-1.47,3.83,5.62,5.62,0,0,1-4.05,1.4,5.4,5.4,0,0,1-4-1.41,5.19,5.19,0,0,1-1.41-3.86v-9.2h1.66v9.31a3.68,3.68,0,0,0,1,2.75,3.93,3.93,0,0,0,2.87,1,3.81,3.81,0,0,0,2.79-1,3.69,3.69,0,0,0,1-2.75v-9.3Z" transform="translate(-10.68 -24.34)"/><path class="cls-8" d="M405.37,63.54V49.26H407V63.54Z" transform="translate(-10.68 -24.34)"/><path class="cls-8" d="M424.2,59.74a3.5,3.5,0,0,1-1.37,2.94,6,6,0,0,1-3.71,1,9.37,9.37,0,0,1-3.9-.65V61.47a9.7,9.7,0,0,0,1.91.59,10.28,10.28,0,0,0,2.05.22,4.13,4.13,0,0,0,2.5-.63,2.08,2.08,0,0,0,.84-1.76,2.21,2.21,0,0,0-.3-1.21,2.8,2.8,0,0,0-1-.88,15.21,15.21,0,0,0-2.13-.91,6.69,6.69,0,0,1-2.84-1.68,3.76,3.76,0,0,1-.86-2.55A3.19,3.19,0,0,1,416.64,50a5.17,5.17,0,0,1,3.28-1,9.7,9.7,0,0,1,3.92.78l-.52,1.45a8.75,8.75,0,0,0-3.44-.74,3.38,3.38,0,0,0-2.06.56,1.9,1.9,0,0,0-.74,1.58,2.41,2.41,0,0,0,.27,1.21,2.54,2.54,0,0,0,.93.87,11.6,11.6,0,0,0,2,.88,7.93,7.93,0,0,1,3.1,1.71A3.42,3.42,0,0,1,424.2,59.74Z" transform="translate(-10.68 -24.34)"/><path class="cls-8" d="M428.48,58.06a18,18,0,0,1,1.28-1.57l3.45-3.66h1.93l-4.34,4.56,4.64,6.15h-2l-3.78-5.06-1.22,1.05v4h-1.6V48.34h1.6V56.4c0,.35,0,.91-.08,1.66Z" transform="translate(-10.68 -24.34)"/><path class="cls-8" d="M437.24,49.93a1.07,1.07,0,0,1,.27-.81.92.92,0,0,1,.68-.26,1,1,0,0,1,.68.26,1.33,1.33,0,0,1,0,1.63.94.94,0,0,1-.68.27.93.93,0,0,1-.68-.27A1.11,1.11,0,0,1,437.24,49.93ZM439,63.54h-1.63V52.83H439Z" transform="translate(-10.68 -24.34)"/><path class="cls-8" d="M444.05,63.54h-1.62V48.34h1.62Z" transform="translate(-10.68 -24.34)"/><path class="cls-8" d="M449.11,63.54h-1.62V48.34h1.62Z" transform="translate(-10.68 -24.34)"/><path class="cls-8" d="M459.45,60.62a2.68,2.68,0,0,1-1.11,2.3,5.22,5.22,0,0,1-3.12.81,6.78,6.78,0,0,1-3.32-.67V61.55a7.92,7.92,0,0,0,1.65.62,6.9,6.9,0,0,0,1.7.22,3.9,3.9,0,0,0,2-.4,1.4,1.4,0,0,0,.14-2.31,9.09,9.09,0,0,0-2.11-1,11.18,11.18,0,0,1-2.13-1,3,3,0,0,1-.94-.94,2.5,2.5,0,0,1-.3-1.26,2.41,2.41,0,0,1,1.06-2.07,5,5,0,0,1,2.92-.75,8.53,8.53,0,0,1,3.38.7l-.58,1.32a7.78,7.78,0,0,0-2.92-.67,3.35,3.35,0,0,0-1.73.37,1.1,1.1,0,0,0-.59,1,1.17,1.17,0,0,0,.22.73,2,2,0,0,0,.71.58,15.15,15.15,0,0,0,1.87.79,7,7,0,0,1,2.58,1.4A2.49,2.49,0,0,1,459.45,60.62Z" transform="translate(-10.68 -24.34)"/><path class="cls-3" d="M90.19,39.64V25.36h1.66V38.14h6.3v1.5Z" transform="translate(-10.68 -24.34)"/><path class="cls-3" d="M104.85,39.84a4.9,4.9,0,0,1-3.75-1.45,5.6,5.6,0,0,1-1.37-4A6.18,6.18,0,0,1,101,30.27a4.23,4.23,0,0,1,3.43-1.53,4,4,0,0,1,3.18,1.33,5.06,5.06,0,0,1,1.17,3.49v1h-7.37a4.23,4.23,0,0,0,1,2.86,3.26,3.26,0,0,0,2.54,1,8.61,8.61,0,0,0,3.42-.72v1.44a8.54,8.54,0,0,1-1.62.54A9.72,9.72,0,0,1,104.85,39.84Zm-.44-9.74a2.65,2.65,0,0,0-2.06.84,3.88,3.88,0,0,0-.9,2.32H107a3.51,3.51,0,0,0-.68-2.34A2.4,2.4,0,0,0,104.41,30.1Z" transform="translate(-10.68 -24.34)"/><path class="cls-3" d="M115.94,30.2h-2.72v9.44H111.6V30.2h-1.92v-.73l1.92-.59v-.6q0-3.95,3.44-3.94a7,7,0,0,1,2,.34l-.42,1.3a5.44,5.44,0,0,0-1.6-.3,1.54,1.54,0,0,0-1.36.61,3.34,3.34,0,0,0-.44,2v.69h2.72Z" transform="translate(-10.68 -24.34)"/><path class="cls-3" d="M121.78,38.5a5.59,5.59,0,0,0,.83-.06,5.24,5.24,0,0,0,.63-.14v1.24a2.51,2.51,0,0,1-.77.21,5.37,5.37,0,0,1-.92.09c-2.08,0-3.11-1.09-3.11-3.27V30.2h-1.53v-.78l1.53-.68.68-2.28h.94v2.48h3.11V30.2h-3.11v6.3a2.13,2.13,0,0,0,.46,1.48A1.59,1.59,0,0,0,121.78,38.5Z" transform="translate(-10.68 -24.34)"/><path class="cls-3" d="M130.82,25.36h4a7.68,7.68,0,0,1,4.11.85,3,3,0,0,1,1.27,2.69,3.09,3.09,0,0,1-.71,2.09,3.39,3.39,0,0,1-2.07,1.07v.1q3.25.56,3.25,3.42a3.68,3.68,0,0,1-1.29,3,5.54,5.54,0,0,1-3.62,1.07h-5Zm1.66,6.12h2.74a4.54,4.54,0,0,0,2.53-.55,2.15,2.15,0,0,0,.77-1.86,1.9,1.9,0,0,0-.86-1.74,5.44,5.44,0,0,0-2.74-.53h-2.44Zm0,1.4v5.35h3a4.27,4.27,0,0,0,2.6-.67,2.47,2.47,0,0,0,.88-2.1,2.22,2.22,0,0,0-.9-2,4.73,4.73,0,0,0-2.72-.63Z" transform="translate(-10.68 -24.34)"/><path class="cls-3" d="M148.42,28.74a6.19,6.19,0,0,1,1.28.12l-.23,1.5a6,6,0,0,0-1.17-.14,2.87,2.87,0,0,0-2.22,1.05,3.89,3.89,0,0,0-.92,2.63v5.74h-1.62V28.94h1.34l.18,2h.08a4.71,4.71,0,0,1,1.43-1.61A3.23,3.23,0,0,1,148.42,28.74Z" transform="translate(-10.68 -24.34)"/><path class="cls-3" d="M157.28,39.64,157,38.12h-.08a4.48,4.48,0,0,1-1.59,1.36,4.85,4.85,0,0,1-2,.36,3.64,3.64,0,0,1-2.5-.82,3,3,0,0,1-.9-2.34q0-3.24,5.19-3.4l1.81-.05v-.67a2.72,2.72,0,0,0-.54-1.86,2.23,2.23,0,0,0-1.73-.6,7,7,0,0,0-3,.82l-.5-1.24a7.4,7.4,0,0,1,1.74-.67,7.09,7.09,0,0,1,1.88-.25,4.1,4.1,0,0,1,2.84.85,3.55,3.55,0,0,1,.92,2.73v7.3Zm-3.66-1.14a3.31,3.31,0,0,0,2.38-.83,3,3,0,0,0,.86-2.32v-1l-1.62.07a5.78,5.78,0,0,0-2.79.6,1.79,1.79,0,0,0-.85,1.65,1.69,1.69,0,0,0,.53,1.34A2.2,2.2,0,0,0,153.62,38.5Z" transform="translate(-10.68 -24.34)"/><path class="cls-3" d="M161.69,26a1.11,1.11,0,0,1,.27-.82,1,1,0,0,1,.68-.26.94.94,0,0,1,.68.27,1,1,0,0,1,.28.81,1.06,1.06,0,0,1-.28.81.94.94,0,0,1-.68.27.93.93,0,0,1-.68-.27A1.1,1.1,0,0,1,161.69,26Zm1.76,13.6h-1.63V28.94h1.63Z" transform="translate(-10.68 -24.34)"/><path class="cls-3" d="M174.21,39.64V32.72a2.8,2.8,0,0,0-.6-2,2.46,2.46,0,0,0-1.86-.64,3.06,3.06,0,0,0-2.46.91,4.51,4.51,0,0,0-.79,3v5.61h-1.62V28.94h1.32l.26,1.46h.08a3.4,3.4,0,0,1,1.4-1.22,4.55,4.55,0,0,1,2-.44,4,4,0,0,1,2.91.94,4,4,0,0,1,1,3v7Z" transform="translate(-10.68 -24.34)"/><path class="cls-3" d="M73.09,56.37a7.19,7.19,0,0,1-1.92,5.4,7.58,7.58,0,0,1-5.52,1.87h-4V49.36h4.38a6.42,6.42,0,0,1,7,7Zm-1.76.06a5.75,5.75,0,0,0-1.4-4.21,5.6,5.6,0,0,0-4.17-1.42H63.35V62.21h2a6.18,6.18,0,0,0,4.47-1.46A5.82,5.82,0,0,0,71.33,56.43Z" transform="translate(-10.68 -24.34)"/><path class="cls-3" d="M80.55,63.84a4.92,4.92,0,0,1-3.75-1.45,5.6,5.6,0,0,1-1.37-4,6.18,6.18,0,0,1,1.28-4.11,4.22,4.22,0,0,1,3.42-1.53,4,4,0,0,1,3.18,1.33,5.06,5.06,0,0,1,1.17,3.49v1H77.11a4.23,4.23,0,0,0,1,2.86,3.28,3.28,0,0,0,2.55,1A8.68,8.68,0,0,0,84,61.7v1.44a8.86,8.86,0,0,1-1.63.54A9.72,9.72,0,0,1,80.55,63.84Zm-.44-9.74a2.65,2.65,0,0,0-2.06.84,3.88,3.88,0,0,0-.9,2.32h5.6a3.51,3.51,0,0,0-.69-2.34A2.37,2.37,0,0,0,80.11,54.1Z" transform="translate(-10.68 -24.34)"/><path class="cls-3" d="M89.59,63.64l-4.06-10.7h1.74l2.3,6.35a29.15,29.15,0,0,1,.92,2.89h.08A21.77,21.77,0,0,1,91.25,60c.38-1.08,1.23-3.45,2.56-7.09h1.74l-4.06,10.7Z" transform="translate(-10.68 -24.34)"/><path class="cls-3" d="M101.79,63.84A4.92,4.92,0,0,1,98,62.39a5.6,5.6,0,0,1-1.37-4A6.18,6.18,0,0,1,98,54.27a4.22,4.22,0,0,1,3.42-1.53,4,4,0,0,1,3.18,1.33,5.06,5.06,0,0,1,1.17,3.49v1H98.35a4.23,4.23,0,0,0,1,2.86,3.28,3.28,0,0,0,2.55,1,8.68,8.68,0,0,0,3.42-.72v1.44a8.86,8.86,0,0,1-1.63.54A9.72,9.72,0,0,1,101.79,63.84Zm-.44-9.74a2.65,2.65,0,0,0-2.06.84,3.88,3.88,0,0,0-.9,2.32H104a3.51,3.51,0,0,0-.69-2.34A2.37,2.37,0,0,0,101.35,54.1Z" transform="translate(-10.68 -24.34)"/><path class="cls-3" d="M110.11,63.64h-1.62V48.45h1.62Z" transform="translate(-10.68 -24.34)"/><path class="cls-3" d="M122.79,58.28a5.9,5.9,0,0,1-1.32,4.09,4.66,4.66,0,0,1-3.65,1.47,4.8,4.8,0,0,1-2.54-.68,4.37,4.37,0,0,1-1.72-1.93,6.64,6.64,0,0,1-.61-2.95,5.93,5.93,0,0,1,1.31-4.08,4.63,4.63,0,0,1,3.63-1.46,4.51,4.51,0,0,1,3.57,1.5A5.87,5.87,0,0,1,122.79,58.28Zm-8.16,0a5.08,5.08,0,0,0,.82,3.13,3.26,3.26,0,0,0,4.83,0,5.06,5.06,0,0,0,.83-3.13,5,5,0,0,0-.83-3.1,2.89,2.89,0,0,0-2.44-1.06,2.84,2.84,0,0,0-2.4,1.05A5,5,0,0,0,114.63,58.28Z" transform="translate(-10.68 -24.34)"/><path class="cls-3" d="M130.61,63.84a4.56,4.56,0,0,1-1.91-.39,3.54,3.54,0,0,1-1.45-1.19h-.12a14.12,14.12,0,0,1,.12,1.78v4.41h-1.62V52.94H127l.22,1.46h.08a3.85,3.85,0,0,1,1.45-1.27,4.46,4.46,0,0,1,1.91-.39,3.94,3.94,0,0,1,3.28,1.46,6.35,6.35,0,0,1,1.16,4.08,6.36,6.36,0,0,1-1.18,4.1A4,4,0,0,1,130.61,63.84Zm-.24-9.72A2.86,2.86,0,0,0,128,55a4.63,4.63,0,0,0-.75,2.89v.36a5.39,5.39,0,0,0,.75,3.23,2.86,2.86,0,0,0,2.41,1,2.52,2.52,0,0,0,2.18-1.12,5.36,5.36,0,0,0,.78-3.1,5.16,5.16,0,0,0-.78-3.07A2.62,2.62,0,0,0,130.37,54.12Z" transform="translate(-10.68 -24.34)"/><path class="cls-3" d="M142.4,63.84a4.88,4.88,0,0,1-3.74-1.45,5.56,5.56,0,0,1-1.37-4,6.18,6.18,0,0,1,1.27-4.11A4.22,4.22,0,0,1,142,52.74a4,4,0,0,1,3.19,1.33,5.06,5.06,0,0,1,1.17,3.49v1H139a4.23,4.23,0,0,0,.95,2.86,3.26,3.26,0,0,0,2.54,1,8.64,8.64,0,0,0,3.42-.72v1.44a8.4,8.4,0,0,1-1.63.54A9.64,9.64,0,0,1,142.4,63.84ZM142,54.1a2.65,2.65,0,0,0-2.05.84,3.88,3.88,0,0,0-.9,2.32h5.59a3.57,3.57,0,0,0-.68-2.34A2.4,2.4,0,0,0,142,54.1Z" transform="translate(-10.68 -24.34)"/><path class="cls-3" d="M154,52.74a6.26,6.26,0,0,1,1.28.12l-.23,1.5a6,6,0,0,0-1.17-.14,2.84,2.84,0,0,0-2.22,1.05,3.84,3.84,0,0,0-.93,2.63v5.74H149.1V52.94h1.34l.19,2h.08a4.61,4.61,0,0,1,1.43-1.61A3.23,3.23,0,0,1,154,52.74Z" transform="translate(-10.68 -24.34)"/><path class="cls-3" d="M170.76,59.84a3.49,3.49,0,0,1-1.36,2.94,5.89,5.89,0,0,1-3.71,1.06,9.22,9.22,0,0,1-3.91-.66v-1.6a10.67,10.67,0,0,0,1.91.59,10.34,10.34,0,0,0,2.05.21,4.13,4.13,0,0,0,2.5-.63,2.06,2.06,0,0,0,.84-1.75,2.34,2.34,0,0,0-.29-1.22,2.83,2.83,0,0,0-1-.87,13.89,13.89,0,0,0-2.12-.91,6.74,6.74,0,0,1-2.85-1.69,3.73,3.73,0,0,1-.86-2.55,3.16,3.16,0,0,1,1.25-2.62,5.15,5.15,0,0,1,3.28-1,9.65,9.65,0,0,1,3.91.78l-.52,1.45a8.72,8.72,0,0,0-3.43-.75,3.3,3.3,0,0,0-2.06.57,1.86,1.86,0,0,0-.75,1.57,2.45,2.45,0,0,0,.28,1.22,2.68,2.68,0,0,0,.92.87,11.9,11.9,0,0,0,2,.87,7.92,7.92,0,0,1,3.09,1.72A3.39,3.39,0,0,1,170.76,59.84Z" transform="translate(-10.68 -24.34)"/><path class="cls-3" d="M175,58.16c.28-.39.71-.91,1.28-1.56l3.46-3.66h1.92l-4.33,4.56L182,63.64h-2l-3.78-5.06L175,59.64v4h-1.6V48.45H175v8c0,.36,0,.91-.08,1.66Z" transform="translate(-10.68 -24.34)"/><path class="cls-3" d="M183.8,50a1.11,1.11,0,0,1,.27-.82,1,1,0,0,1,.69-.26.94.94,0,0,1,.67.27,1,1,0,0,1,.28.81,1.06,1.06,0,0,1-.28.81.94.94,0,0,1-.67.27,1,1,0,0,1-.69-.27A1.1,1.1,0,0,1,183.8,50Zm1.76,13.6h-1.62V52.94h1.62Z" transform="translate(-10.68 -24.34)"/><path class="cls-3" d="M190.62,63.64H189V48.45h1.62Z" transform="translate(-10.68 -24.34)"/><path class="cls-3" d="M195.68,63.64h-1.63V48.45h1.63Z" transform="translate(-10.68 -24.34)"/><path class="cls-3" d="M206,60.72A2.67,2.67,0,0,1,204.9,63a5.22,5.22,0,0,1-3.12.81,6.77,6.77,0,0,1-3.32-.68v-1.5a8.12,8.12,0,0,0,1.65.61,7,7,0,0,0,1.71.23,3.83,3.83,0,0,0,2-.41,1.33,1.33,0,0,0,.69-1.23,1.36,1.36,0,0,0-.55-1.07,8.17,8.17,0,0,0-2.11-1,11.85,11.85,0,0,1-2.13-1,2.86,2.86,0,0,1-.93-.94,2.45,2.45,0,0,1-.31-1.26,2.39,2.39,0,0,1,1.06-2.07,5,5,0,0,1,2.92-.76,8.51,8.51,0,0,1,3.38.71l-.57,1.31a7.83,7.83,0,0,0-2.92-.66,3.37,3.37,0,0,0-1.74.36,1.12,1.12,0,0,0-.59,1,1.26,1.26,0,0,0,.22.73,2.43,2.43,0,0,0,.71.58,17.37,17.37,0,0,0,1.88.79A7.12,7.12,0,0,1,205.35,59,2.45,2.45,0,0,1,206,60.72Z" transform="translate(-10.68 -24.34)"/></svg>