<svg id="Layer_5" data-name="Layer 5" xmlns="http://www.w3.org/2000/svg" viewBox="0 0 244.89 501.41"><defs><style>.cls-1{fill:#750462;}.cls-2{fill:#e9ffff;}.cls-3{fill:#d10081;}.cls-4{fill:#48004c;}.cls-5{fill:#fff;}.cls-6{fill:#0b0124;}.cls-7{fill:#0074b5;}.cls-8{fill:#00bae5;}.cls-9{fill:#01265b;}</style></defs><title>UXUIDevSkillsMobile</title><rect class="cls-1" x="0.04" y="329.01" width="244.85" height="172.4" rx="12.67"/><rect class="cls-2" x="7.47" y="342.58" width="226.67" height="14.18"/><rect class="cls-3" x="7.47" y="342.58" width="201.09" height="14.18"/><rect class="cls-4" x="7.47" y="342.58" width="70.46" height="14.18"/><rect class="cls-4" x="7.47" y="368.49" width="70.46" height="14.18"/><rect class="cls-2" x="7.47" y="394.39" width="226.67" height="14.18"/><rect class="cls-3" x="7.47" y="394.39" width="149.98" height="14.18"/><rect class="cls-4" x="7.47" y="394.39" width="70.46" height="14.18"/><rect class="cls-3" x="7.47" y="420.3" width="226.67" height="14.18"/><rect class="cls-4" x="7.47" y="420.3" width="70.46" height="14.18"/><rect class="cls-3" x="7.47" y="446.21" width="226.67" height="14.18"/><rect class="cls-4" x="7.47" y="446.21" width="70.46" height="14.18"/><rect class="cls-3" x="7.47" y="472.11" width="226.67" height="14.18"/><rect class="cls-4" x="7.47" y="472.11" width="70.46" height="14.18"/><path class="cls-5" d="M29.72,354.31a9.1,9.1,0,0,1,1.49-.12,2.48,2.48,0,0,1,1.68.5,1.62,1.62,0,0,1,.53,1.26,1.74,1.74,0,0,1-.47,1.28,2.46,2.46,0,0,1-1.83.66,3,3,0,0,1-.63-.05v2.41h-.77Zm.77,2.9a2.93,2.93,0,0,0,.65.06c.93,0,1.5-.46,1.5-1.28s-.56-1.18-1.42-1.18a3.8,3.8,0,0,0-.73.06Z" transform="translate(-10.61 -7.49)"/><path class="cls-5" d="M34.39,353.92h.78v2.69h0a1.48,1.48,0,0,1,.56-.55,1.56,1.56,0,0,1,.8-.23c.58,0,1.51.36,1.51,1.85v2.57h-.78v-2.48c0-.7-.26-1.29-1-1.29a1.12,1.12,0,0,0-1.05.79.85.85,0,0,0-.06.37v2.61h-.78Z" transform="translate(-10.61 -7.49)"/><path class="cls-5" d="M43.24,358.05a2.11,2.11,0,0,1-2.15,2.29A2,2,0,0,1,39,358.12a2.11,2.11,0,0,1,2.14-2.29A2,2,0,0,1,43.24,358.05Zm-3.42.05c0,.94.54,1.65,1.31,1.65s1.31-.7,1.31-1.67c0-.73-.37-1.66-1.3-1.66S39.82,357.28,39.82,358.1Z" transform="translate(-10.61 -7.49)"/><path class="cls-5" d="M45.17,354.69v1.24H46.3v.6H45.17v2.32c0,.54.15.84.59.84a1.54,1.54,0,0,0,.45-.05l0,.59a2,2,0,0,1-.69.1,1.07,1.07,0,0,1-.85-.33,1.6,1.6,0,0,1-.3-1.12v-2.35h-.67v-.6h.67v-1Z" transform="translate(-10.61 -7.49)"/><path class="cls-5" d="M51,358.05a2.11,2.11,0,0,1-2.15,2.29,2,2,0,0,1-2.07-2.22A2.11,2.11,0,0,1,49,355.83,2,2,0,0,1,51,358.05Zm-3.42.05c0,.94.54,1.65,1.31,1.65s1.31-.7,1.31-1.67c0-.73-.37-1.66-1.3-1.66S47.61,357.28,47.61,358.1Z" transform="translate(-10.61 -7.49)"/><path class="cls-5" d="M51.91,359.44a2.06,2.06,0,0,0,1,.31c.57,0,.84-.28.84-.64s-.22-.58-.8-.79c-.78-.28-1.14-.7-1.14-1.22a1.33,1.33,0,0,1,1.49-1.27,2.2,2.2,0,0,1,1.06.27l-.2.57a1.65,1.65,0,0,0-.88-.25c-.46,0-.72.27-.72.59s.26.52.82.73c.75.29,1.13.66,1.13,1.3s-.59,1.29-1.61,1.29a2.47,2.47,0,0,1-1.22-.29Z" transform="translate(-10.61 -7.49)"/><path class="cls-5" d="M55.55,353.92h.78v2.69h0a1.41,1.41,0,0,1,.56-.55,1.56,1.56,0,0,1,.8-.23c.58,0,1.51.36,1.51,1.85v2.57h-.79v-2.48c0-.7-.25-1.29-1-1.29a1.15,1.15,0,0,0-1.06.79,1,1,0,0,0-.05.37v2.61h-.78Z" transform="translate(-10.61 -7.49)"/><path class="cls-5" d="M64.4,358.05a2.11,2.11,0,0,1-2.15,2.29,2,2,0,0,1-2.07-2.22,2.11,2.11,0,0,1,2.14-2.29A2,2,0,0,1,64.4,358.05ZM61,358.1c0,.94.55,1.65,1.31,1.65s1.31-.7,1.31-1.67c0-.73-.36-1.66-1.29-1.66S61,357.28,61,358.1Z" transform="translate(-10.61 -7.49)"/><path class="cls-5" d="M65.39,357.34c0-.55,0-1,0-1.41h.7l0,.74h0a1.71,1.71,0,0,1,1.53-.84,2,2,0,0,1,1.83,2.2,2,2,0,0,1-2,2.31,1.53,1.53,0,0,1-1.33-.67h0V362h-.77Zm.77,1.15a1.55,1.55,0,0,0,0,.32,1.21,1.21,0,0,0,1.17.92c.83,0,1.31-.68,1.31-1.67s-.45-1.6-1.28-1.6a1.26,1.26,0,0,0-1.19,1,1.64,1.64,0,0,0,0,.32Z" transform="translate(-10.61 -7.49)"/><path class="cls-6" d="M224,359.69a3.55,3.55,0,0,0,.63,0,2.2,2.2,0,0,0,1.21-.57,2.49,2.49,0,0,0,.77-1.54h0a1.73,1.73,0,0,1-3.07-1.15,2,2,0,0,1,2-2.06c1.18,0,1.91,1,1.91,2.45a3.64,3.64,0,0,1-1,2.71,2.86,2.86,0,0,1-1.68.78,3.91,3.91,0,0,1-.72,0Zm.28-3.33a1.12,1.12,0,0,0,1.12,1.23,1.31,1.31,0,0,0,1.14-.61.55.55,0,0,0,.07-.28c0-1-.37-1.75-1.19-1.75C224.77,355,224.29,355.54,224.29,356.36Z" transform="translate(-10.61 -7.49)"/><path class="cls-6" d="M232,357.29c0,2-.73,3-2,3-1.13,0-1.9-1.06-1.91-3s.83-3,2-3S232,355.44,232,357.29Zm-3.14.09c0,1.5.46,2.36,1.18,2.36s1.18-.94,1.18-2.42S230.83,355,230,355,228.83,355.8,228.83,357.38Z" transform="translate(-10.61 -7.49)"/><path class="cls-6" d="M235.31,356.08c0,1.22-.64,1.83-1.39,1.83s-1.35-.58-1.36-1.75.64-1.81,1.4-1.81S235.31,355,235.31,356.08Zm-2.12.06c0,.74.26,1.3.75,1.3s.74-.55.74-1.32-.2-1.29-.74-1.29S233.19,355.41,233.19,356.14Zm.67,4.2,3.41-6h.5l-3.41,6Zm5.22-1.86c0,1.22-.64,1.83-1.38,1.83s-1.35-.58-1.36-1.74.63-1.82,1.4-1.82S239.08,357.38,239.08,358.48Zm-2.12,0c0,.74.27,1.3.75,1.3s.75-.55.75-1.31-.2-1.3-.75-1.3S237,357.8,237,358.53Z" transform="translate(-10.61 -7.49)"/><path class="cls-5" d="M32.84,380.15v6h-.78v-6Z" transform="translate(-10.61 -7.49)"/><path class="cls-5" d="M34.26,379.82H35v6.33h-.78Z" transform="translate(-10.61 -7.49)"/><path class="cls-5" d="M36.36,379.82h.78v6.33h-.78Z" transform="translate(-10.61 -7.49)"/><path class="cls-5" d="M42.07,385c0,.44,0,.83,0,1.17h-.7l0-.7h0a1.63,1.63,0,0,1-1.43.8c-.67,0-1.48-.38-1.48-1.89v-2.52h.78v2.39c0,.82.25,1.37,1,1.37a1.16,1.16,0,0,0,1-.71,1.29,1.29,0,0,0,.07-.4v-2.65h.78Z" transform="translate(-10.61 -7.49)"/><path class="cls-5" d="M43.27,385.35a2.06,2.06,0,0,0,1,.31c.57,0,.84-.28.84-.64s-.22-.58-.8-.79c-.78-.28-1.14-.71-1.14-1.22a1.33,1.33,0,0,1,1.48-1.27,2.17,2.17,0,0,1,1.06.27l-.19.57a1.65,1.65,0,0,0-.88-.25c-.47,0-.73.27-.73.59s.26.51.82.73c.75.28,1.14.66,1.14,1.3s-.59,1.29-1.62,1.29a2.54,2.54,0,0,1-1.21-.29Z" transform="translate(-10.61 -7.49)"/><path class="cls-5" d="M47.85,380.6v1.24H49v.6H47.85v2.32c0,.54.15.84.59.84a2.16,2.16,0,0,0,.45-.05l0,.58a1.83,1.83,0,0,1-.7.11,1.12,1.12,0,0,1-.85-.33,1.6,1.6,0,0,1-.3-1.12v-2.35h-.67v-.6h.67v-1Z" transform="translate(-10.61 -7.49)"/><path class="cls-5" d="M49.85,383.18c0-.5,0-.94,0-1.34h.68l0,.84h0a1.29,1.29,0,0,1,1.19-.94.73.73,0,0,1,.22,0v.74a1,1,0,0,0-.26,0,1.11,1.11,0,0,0-1.06,1,3.48,3.48,0,0,0,0,.36v2.3h-.78Z" transform="translate(-10.61 -7.49)"/><path class="cls-5" d="M55.11,386.15l-.06-.54h0a1.6,1.6,0,0,1-1.32.64A1.23,1.23,0,0,1,52.38,385c0-1,.93-1.61,2.6-1.6v-.09a.89.89,0,0,0-1-1,2.16,2.16,0,0,0-1.13.32l-.17-.52a2.66,2.66,0,0,1,1.41-.38c1.32,0,1.64.9,1.64,1.76v1.62a6.41,6.41,0,0,0,.07,1ZM55,384c-.86,0-1.83.13-1.83,1a.69.69,0,0,0,.74.75,1.07,1.07,0,0,0,1-.72.74.74,0,0,0,0-.25Z" transform="translate(-10.61 -7.49)"/><path class="cls-5" d="M57.93,380.6v1.24h1.12v.6H57.93v2.32c0,.54.15.84.59.84a2.16,2.16,0,0,0,.45-.05l0,.58a1.83,1.83,0,0,1-.7.11,1.12,1.12,0,0,1-.85-.33,1.6,1.6,0,0,1-.3-1.12v-2.35h-.67v-.6h.67v-1Z" transform="translate(-10.61 -7.49)"/><path class="cls-5" d="M63.78,384a2.11,2.11,0,0,1-2.15,2.29A2.05,2.05,0,0,1,59.57,384a2.11,2.11,0,0,1,2.14-2.29A2,2,0,0,1,63.78,384Zm-3.42,0c0,.95.54,1.66,1.31,1.66S63,385,63,384c0-.74-.36-1.66-1.29-1.66S60.36,383.18,60.36,384Z" transform="translate(-10.61 -7.49)"/><path class="cls-5" d="M64.77,383.18c0-.5,0-.94,0-1.34h.68l0,.84h0a1.29,1.29,0,0,1,1.19-.94.73.73,0,0,1,.22,0v.74a1.06,1.06,0,0,0-.27,0,1.1,1.1,0,0,0-1,1,3.48,3.48,0,0,0,0,.36v2.3h-.78Z" transform="translate(-10.61 -7.49)"/><path class="cls-5" d="M49.84,412.61l-.76-1.33c-.31-.51-.51-.84-.7-1.19h0a13.24,13.24,0,0,1-.65,1.2L47,412.61H46.1l1.84-3-1.77-3h.9l.8,1.41c.22.39.39.69.55,1h0c.17-.35.33-.63.55-1l.82-1.41h.89l-1.83,2.92,1.87,3.09Z" transform="translate(-10.61 -7.49)"/><path class="cls-5" d="M51.64,406.68a11.49,11.49,0,0,1,1.65-.12,3.46,3.46,0,0,1,2.44.74,2.79,2.79,0,0,1,.84,2.16,3.21,3.21,0,0,1-.86,2.34,3.71,3.71,0,0,1-2.66.86,13.94,13.94,0,0,1-1.41-.07Zm.78,5.31a4.37,4.37,0,0,0,.78.05,2.31,2.31,0,0,0,2.56-2.55,2.14,2.14,0,0,0-2.43-2.32,4.74,4.74,0,0,0-.91.08Z" transform="translate(-10.61 -7.49)"/><path class="cls-5" d="M32.25,437a2.81,2.81,0,0,0,1.39.39c.8,0,1.26-.42,1.26-1s-.32-.89-1.13-1.2c-1-.35-1.59-.85-1.59-1.7a1.73,1.73,0,0,1,1.94-1.63,2.76,2.76,0,0,1,1.33.29l-.21.64a2.37,2.37,0,0,0-1.14-.29c-.82,0-1.14.49-1.14.9,0,.56.37.84,1.2,1.16,1,.39,1.53.88,1.53,1.76s-.68,1.73-2.1,1.73a3.13,3.13,0,0,1-1.53-.38Z" transform="translate(-10.61 -7.49)"/><path class="cls-5" d="M37.5,435.63h0l.38-.49,1.27-1.49h.94l-1.66,1.77L40.34,438h-1L37.9,435.9l-.4.44V438h-.77v-6.32h.77Z" transform="translate(-10.61 -7.49)"/><path class="cls-5" d="M41.34,436a1.39,1.39,0,0,0,1.48,1.5,2.8,2.8,0,0,0,1.2-.23l.13.57a3.63,3.63,0,0,1-1.44.26,2,2,0,0,1-2.12-2.17,2.1,2.1,0,0,1,2-2.33,1.82,1.82,0,0,1,1.78,2,2.58,2.58,0,0,1,0,.37Zm2.3-.56a1.12,1.12,0,0,0-1.09-1.28,1.3,1.3,0,0,0-1.2,1.28Z" transform="translate(-10.61 -7.49)"/><path class="cls-5" d="M46.32,432.41v1.24h1.12v.6H46.32v2.32c0,.54.15.84.58.84a2.18,2.18,0,0,0,.46-.05l0,.59a2,2,0,0,1-.69.1,1.07,1.07,0,0,1-.85-.33,1.6,1.6,0,0,1-.3-1.12v-2.35h-.67v-.6h.67v-1Z" transform="translate(-10.61 -7.49)"/><path class="cls-5" d="M51.34,437.8a2.83,2.83,0,0,1-1.24.25,2,2,0,0,1-2.14-2.2,2.18,2.18,0,0,1,2.31-2.29,2.72,2.72,0,0,1,1.09.22l-.18.61a1.8,1.8,0,0,0-.91-.2,1.62,1.62,0,0,0,0,3.24,2.36,2.36,0,0,0,1-.21Z" transform="translate(-10.61 -7.49)"/><path class="cls-5" d="M52.26,431.64H53v2.69h0a1.48,1.48,0,0,1,.56-.55,1.59,1.59,0,0,1,.81-.23c.57,0,1.5.36,1.5,1.85V438h-.78v-2.47c0-.7-.26-1.29-1-1.29a1.12,1.12,0,0,0-1,.79.82.82,0,0,0-.06.37V438h-.78Z" transform="translate(-10.61 -7.49)"/><path class="cls-5" d="M58.08,432.44a.49.49,0,0,1-1,0,.47.47,0,0,1,.49-.49A.46.46,0,0,1,58.08,432.44ZM57.21,438v-4.31H58V438Z" transform="translate(-10.61 -7.49)"/><path class="cls-5" d="M59.29,434.82c0-.45,0-.81,0-1.17H60l0,.71h0a1.6,1.6,0,0,1,1.43-.81c.6,0,1.52.36,1.52,1.84V438h-.78v-2.48c0-.7-.26-1.28-1-1.28a1.11,1.11,0,0,0-1,.8,1.07,1.07,0,0,0-.05.37V438h-.79Z" transform="translate(-10.61 -7.49)"/><path class="cls-5" d="M68,433.65c0,.31,0,.66,0,1.19v2.5a2.47,2.47,0,0,1-.62,2,2.29,2.29,0,0,1-1.56.52,2.82,2.82,0,0,1-1.44-.36l.2-.6a2.39,2.39,0,0,0,1.26.34c.8,0,1.39-.42,1.39-1.5v-.49h0a1.54,1.54,0,0,1-1.37.73,1.93,1.93,0,0,1-1.83-2.11,2.07,2.07,0,0,1,1.94-2.29,1.43,1.43,0,0,1,1.34.75h0l0-.65Zm-.81,1.7a1.25,1.25,0,0,0,0-.35,1.13,1.13,0,0,0-1.1-.83c-.75,0-1.28.63-1.28,1.63,0,.85.43,1.55,1.27,1.55a1.14,1.14,0,0,0,1.09-.8,1.26,1.26,0,0,0,.06-.42Z" transform="translate(-10.61 -7.49)"/><path class="cls-5" d="M26.37,463.87l-1.52-6h.82l.71,3c.18.75.34,1.5.45,2.08h0c.1-.6.29-1.31.49-2.09l.81-3H29l.73,3.05c.17.71.33,1.42.42,2.06h0c.13-.66.3-1.33.49-2.08l.79-3h.79l-1.7,6h-.81l-.76-3.13a17.3,17.3,0,0,1-.39-2h0c-.11.6-.24,1.18-.46,2l-.86,3.13Z" transform="translate(-10.61 -7.49)"/><path class="cls-5" d="M33.64,458.34a.49.49,0,0,1-1,0,.48.48,0,0,1,.49-.49A.47.47,0,0,1,33.64,458.34Zm-.88,5.53v-4.31h.79v4.31Z" transform="translate(-10.61 -7.49)"/><path class="cls-5" d="M34.85,460.9c0-.51,0-.94,0-1.34h.69l0,.84h0a1.29,1.29,0,0,1,1.19-.94l.23,0v.74l-.27,0a1.1,1.1,0,0,0-1.05,1,2.1,2.1,0,0,0,0,.37v2.3h-.77Z" transform="translate(-10.61 -7.49)"/><path class="cls-5" d="M38.11,461.85a1.38,1.38,0,0,0,1.48,1.5,2.89,2.89,0,0,0,1.19-.22l.14.56a3.6,3.6,0,0,1-1.44.27,2,2,0,0,1-2.12-2.18,2.09,2.09,0,0,1,2-2.32,1.83,1.83,0,0,1,1.79,2,2.55,2.55,0,0,1,0,.36Zm2.3-.56A1.12,1.12,0,0,0,39.32,460a1.3,1.3,0,0,0-1.2,1.27Z" transform="translate(-10.61 -7.49)"/><path class="cls-5" d="M44.11,463.87v-3.72H43.5v-.59h.61v-.21a2,2,0,0,1,.5-1.51,1.5,1.5,0,0,1,1-.4,1.94,1.94,0,0,1,.67.13l-.11.6a1.28,1.28,0,0,0-.5-.09c-.67,0-.84.58-.84,1.24v.24h1v.59h-1v3.72Z" transform="translate(-10.61 -7.49)"/><path class="cls-5" d="M46.63,460.9c0-.51,0-.94,0-1.34h.69l0,.84h0a1.29,1.29,0,0,1,1.2-.94l.22,0v.74l-.27,0a1.1,1.1,0,0,0-1.05,1,2.1,2.1,0,0,0,0,.37v2.3h-.77Z" transform="translate(-10.61 -7.49)"/><path class="cls-5" d="M51.89,463.87l-.06-.55h0a1.62,1.62,0,0,1-1.32.65,1.23,1.23,0,0,1-1.32-1.24c0-1.05.93-1.62,2.59-1.61V461a.88.88,0,0,0-1-1,2.1,2.1,0,0,0-1.12.32l-.18-.52a2.72,2.72,0,0,1,1.42-.38c1.32,0,1.64.9,1.64,1.76v1.61a6.54,6.54,0,0,0,.07,1Zm-.12-2.2c-.85,0-1.83.13-1.83,1a.69.69,0,0,0,.74.75,1.08,1.08,0,0,0,1-.73,1,1,0,0,0,0-.24Z" transform="translate(-10.61 -7.49)"/><path class="cls-5" d="M53.8,460.72c0-.44,0-.81,0-1.16h.69l0,.69h0a1.48,1.48,0,0,1,1.35-.79,1.26,1.26,0,0,1,1.22.86h0a1.67,1.67,0,0,1,.48-.56,1.47,1.47,0,0,1,1-.3c.57,0,1.41.37,1.41,1.87v2.54h-.76v-2.44c0-.83-.31-1.33-.94-1.33a1,1,0,0,0-.93.71,1.52,1.52,0,0,0-.06.39v2.67H56.5v-2.59c0-.68-.31-1.18-.9-1.18a1.09,1.09,0,0,0-1,.78,1.23,1.23,0,0,0-.06.39v2.6H53.8Z" transform="translate(-10.61 -7.49)"/><path class="cls-5" d="M62.1,458.34a.49.49,0,0,1-1,0,.48.48,0,0,1,.49-.49A.47.47,0,0,1,62.1,458.34Zm-.87,5.53v-4.31H62v4.31Z" transform="translate(-10.61 -7.49)"/><path class="cls-5" d="M63.31,460.72c0-.44,0-.81,0-1.16H64l0,.71h0a1.57,1.57,0,0,1,1.42-.81c.6,0,1.52.35,1.52,1.83v2.58H66.2v-2.49c0-.69-.26-1.27-1-1.27a1.12,1.12,0,0,0-1,.8,1.32,1.32,0,0,0-.05.37v2.59h-.79Z" transform="translate(-10.61 -7.49)"/><path class="cls-5" d="M72,459.56c0,.31,0,.65,0,1.18v2.5a2.51,2.51,0,0,1-.61,2,2.26,2.26,0,0,1-1.57.52,2.72,2.72,0,0,1-1.44-.36l.2-.59a2.39,2.39,0,0,0,1.26.34c.81,0,1.39-.42,1.39-1.51v-.48h0a1.55,1.55,0,0,1-1.38.72,1.92,1.92,0,0,1-1.83-2.1,2.07,2.07,0,0,1,1.94-2.29,1.44,1.44,0,0,1,1.35.75h0l0-.65Zm-.81,1.7a1,1,0,0,0,0-.36,1.14,1.14,0,0,0-1.1-.83c-.74,0-1.28.64-1.28,1.63s.43,1.55,1.28,1.55a1.14,1.14,0,0,0,1.08-.8,1.2,1.2,0,0,0,.07-.42Z" transform="translate(-10.61 -7.49)"/><path class="cls-5" d="M27.56,488.83a2.81,2.81,0,0,0,1.39.39c.79,0,1.26-.42,1.26-1s-.32-.88-1.14-1.2c-1-.34-1.58-.85-1.58-1.7a1.73,1.73,0,0,1,1.94-1.63,2.76,2.76,0,0,1,1.33.29l-.21.64a2.38,2.38,0,0,0-1.15-.29c-.82,0-1.13.49-1.13.9,0,.56.37.84,1.2,1.16,1,.39,1.53.88,1.53,1.76s-.69,1.73-2.1,1.73a3.17,3.17,0,0,1-1.54-.38Z" transform="translate(-10.61 -7.49)"/><path class="cls-5" d="M33,484.22v1.24h1.12v.6H33v2.32c0,.54.15.84.59.84a1.59,1.59,0,0,0,.45-.05l0,.59a2,2,0,0,1-.69.1,1.07,1.07,0,0,1-.85-.33,1.6,1.6,0,0,1-.3-1.12v-2.35h-.67v-.6h.67v-1Z" transform="translate(-10.61 -7.49)"/><path class="cls-5" d="M35.32,485.46l1,2.55c.1.28.2.62.27.88h0c.08-.26.17-.59.28-.9l.85-2.53h.83l-1.17,3.08a6.85,6.85,0,0,1-1.48,2.7,2.15,2.15,0,0,1-1,.5l-.19-.66a2,2,0,0,0,.68-.38,2.23,2.23,0,0,0,.66-.87.5.5,0,0,0,.07-.19.58.58,0,0,0-.06-.2l-1.59-4Z" transform="translate(-10.61 -7.49)"/><path class="cls-5" d="M39.23,483.45H40v6.32h-.79Z" transform="translate(-10.61 -7.49)"/><path class="cls-5" d="M41.77,487.76a1.39,1.39,0,0,0,1.48,1.5,2.94,2.94,0,0,0,1.2-.22l.13.56a3.57,3.57,0,0,1-1.43.26A2,2,0,0,1,41,487.69a2.09,2.09,0,0,1,2-2.33,1.83,1.83,0,0,1,1.78,2,2.55,2.55,0,0,1,0,.36Zm2.3-.56A1.12,1.12,0,0,0,43,485.92a1.31,1.31,0,0,0-1.21,1.28Z" transform="translate(-10.61 -7.49)"/><path class="cls-5" d="M51.41,485.46c0,.31,0,.66,0,1.19v2.5a2.47,2.47,0,0,1-.61,2,2.31,2.31,0,0,1-1.57.52,2.82,2.82,0,0,1-1.44-.36l.2-.6a2.43,2.43,0,0,0,1.27.34c.8,0,1.39-.42,1.39-1.5V489h0a1.55,1.55,0,0,1-1.37.72,1.93,1.93,0,0,1-1.84-2.11,2.07,2.07,0,0,1,1.94-2.29,1.46,1.46,0,0,1,1.35.75h0l0-.65Zm-.81,1.7a1,1,0,0,0-.05-.35,1.12,1.12,0,0,0-1.09-.83c-.75,0-1.29.63-1.29,1.63,0,.85.43,1.55,1.28,1.55a1.15,1.15,0,0,0,1.09-.8,1.58,1.58,0,0,0,.06-.42Z" transform="translate(-10.61 -7.49)"/><path class="cls-5" d="M56.28,488.6c0,.44,0,.84,0,1.17h-.7l0-.7h0a1.61,1.61,0,0,1-1.42.8c-.68,0-1.49-.37-1.49-1.89v-2.52h.78v2.39c0,.82.25,1.37,1,1.37a1.13,1.13,0,0,0,1-.71,1.29,1.29,0,0,0,.07-.4v-2.65h.78Z" transform="translate(-10.61 -7.49)"/><path class="cls-5" d="M58.46,484.25a.49.49,0,0,1-1,0,.47.47,0,0,1,.49-.49A.46.46,0,0,1,58.46,484.25Zm-.87,5.52v-4.31h.78v4.31Z" transform="translate(-10.61 -7.49)"/><path class="cls-5" d="M63.4,483.45v5.21c0,.38,0,.82,0,1.11h-.7l0-.74h0a1.58,1.58,0,0,1-1.47.84,2,2,0,0,1-1.84-2.19,2.07,2.07,0,0,1,1.93-2.32,1.43,1.43,0,0,1,1.3.66h0v-2.57Zm-.79,3.77a1.84,1.84,0,0,0,0-.33,1.16,1.16,0,0,0-1.14-.91c-.81,0-1.29.71-1.29,1.66s.43,1.6,1.28,1.6a1.19,1.19,0,0,0,1.15-.94,1.69,1.69,0,0,0,0-.33Z" transform="translate(-10.61 -7.49)"/><path class="cls-5" d="M65.13,487.76a1.39,1.39,0,0,0,1.48,1.5,3,3,0,0,0,1.2-.22l.13.56a3.57,3.57,0,0,1-1.43.26,2,2,0,0,1-2.12-2.17,2.09,2.09,0,0,1,2-2.33,1.83,1.83,0,0,1,1.78,2,2.55,2.55,0,0,1,0,.36Zm2.3-.56a1.12,1.12,0,0,0-1.08-1.28,1.31,1.31,0,0,0-1.21,1.28Z" transform="translate(-10.61 -7.49)"/><path class="cls-5" d="M69.06,489a2.06,2.06,0,0,0,1,.31c.57,0,.84-.28.84-.64s-.23-.58-.8-.79c-.78-.28-1.15-.7-1.15-1.22a1.34,1.34,0,0,1,1.49-1.27,2.17,2.17,0,0,1,1.06.27l-.19.57a1.65,1.65,0,0,0-.88-.25c-.47,0-.73.27-.73.59s.26.52.82.73c.75.29,1.13.66,1.13,1.3s-.58,1.29-1.61,1.29a2.43,2.43,0,0,1-1.21-.29Z" transform="translate(-10.61 -7.49)"/><path class="cls-3" d="M95.72,295.3v4.75H94.39V288.63h3.14a5,5,0,0,1,3.1.8,2.93,2.93,0,0,1,1,2.43,3,3,0,0,1-2.29,3.06l3.1,5.13h-1.57L98.1,295.3Zm0-1.14h1.82a3.13,3.13,0,0,0,2.06-.56,2.06,2.06,0,0,0,.66-1.67,1.91,1.91,0,0,0-.67-1.64,3.63,3.63,0,0,0-2.14-.5H95.72Z" transform="translate(-10.61 -7.49)"/><path class="cls-3" d="M104,289.17a.82.82,0,0,1,.22-.65.75.75,0,0,1,.54-.21.76.76,0,0,1,.54.21,1,1,0,0,1,0,1.3.77.77,0,0,1-.54.22.76.76,0,0,1-.54-.22A.85.85,0,0,1,104,289.17Zm1.4,10.88h-1.29v-8.56h1.29Z" transform="translate(-10.61 -7.49)"/><path class="cls-3" d="M115.14,291.49v.82l-1.58.19a3.1,3.1,0,0,1,.39.71,2.87,2.87,0,0,1,.17,1,2.54,2.54,0,0,1-.86,2,3.46,3.46,0,0,1-2.36.75,4.18,4.18,0,0,1-.72-.07,1.28,1.28,0,0,0-.83,1.1.56.56,0,0,0,.29.52,2,2,0,0,0,1,.17h1.52a3.41,3.41,0,0,1,2.14.59A2.05,2.05,0,0,1,115,301a2.44,2.44,0,0,1-1.14,2.17,6.09,6.09,0,0,1-3.33.74,4.53,4.53,0,0,1-2.59-.62,2,2,0,0,1-.91-1.77,2,2,0,0,1,.5-1.35,2.62,2.62,0,0,1,1.41-.77,1.35,1.35,0,0,1-.55-.46,1.21,1.21,0,0,1-.22-.73,1.37,1.37,0,0,1,.25-.82,2.62,2.62,0,0,1,.79-.68,2.28,2.28,0,0,1-1.09-.93,2.81,2.81,0,0,1-.41-1.5,2.78,2.78,0,0,1,.84-2.17,3.48,3.48,0,0,1,2.39-.76,4.12,4.12,0,0,1,1.21.16Zm-6.83,10a1.16,1.16,0,0,0,.59,1.05,3.23,3.23,0,0,0,1.68.36,4.66,4.66,0,0,0,2.42-.49,1.48,1.48,0,0,0,.78-1.32,1,1,0,0,0-.43-1,3.29,3.29,0,0,0-1.61-.27h-1.56a2,2,0,0,0-1.37.42A1.5,1.5,0,0,0,108.31,301.49Zm.71-7.26a1.74,1.74,0,0,0,.51,1.36,2,2,0,0,0,1.41.46,1.65,1.65,0,0,0,1.9-1.84,1.7,1.7,0,0,0-1.92-1.93,1.91,1.91,0,0,0-1.41.49A2,2,0,0,0,109,294.23Z" transform="translate(-10.61 -7.49)"/><path class="cls-3" d="M122.76,300.05v-5.54a2.21,2.21,0,0,0-.48-1.56,1.94,1.94,0,0,0-1.49-.52,2.44,2.44,0,0,0-2,.74,3.67,3.67,0,0,0-.62,2.4v4.48h-1.3V287.89h1.3v3.68a6.89,6.89,0,0,1-.07,1.11h.08a2.73,2.73,0,0,1,1.09-1,3.64,3.64,0,0,1,1.62-.35,3.33,3.33,0,0,1,2.35.74,3.13,3.13,0,0,1,.79,2.38v5.58Z" transform="translate(-10.61 -7.49)"/><path class="cls-3" d="M129.49,299.14a4.65,4.65,0,0,0,.66-.05c.21,0,.38-.07.51-.11v1a2.15,2.15,0,0,1-.62.17,4.16,4.16,0,0,1-.74.07c-1.66,0-2.49-.87-2.49-2.62V292.5h-1.22v-.63l1.22-.54.55-1.83h.75v2h2.49v1h-2.49v5a1.69,1.69,0,0,0,.37,1.18A1.26,1.26,0,0,0,129.49,299.14Z" transform="translate(-10.61 -7.49)"/><path class="cls-3" d="M136.72,288.63H140a6.14,6.14,0,0,1,3.29.68,2.41,2.41,0,0,1,1,2.15,2.51,2.51,0,0,1-.56,1.67A2.74,2.74,0,0,1,142,294v.08c1.74.29,2.6,1.21,2.6,2.73a2.93,2.93,0,0,1-1,2.39,4.37,4.37,0,0,1-2.89.86h-4Zm1.33,4.89h2.19a3.6,3.6,0,0,0,2-.44,1.72,1.72,0,0,0,.62-1.49,1.52,1.52,0,0,0-.69-1.39,4.36,4.36,0,0,0-2.19-.42h-1.95Zm0,1.12v4.28h2.38a3.36,3.36,0,0,0,2.08-.54,2,2,0,0,0,.7-1.67,1.81,1.81,0,0,0-.71-1.57,3.86,3.86,0,0,0-2.18-.5Z" transform="translate(-10.61 -7.49)"/><path class="cls-3" d="M150,291.33a4.52,4.52,0,0,1,1,.1l-.18,1.2a4.23,4.23,0,0,0-.93-.12,2.26,2.26,0,0,0-1.78.85,3.08,3.08,0,0,0-.74,2.1v4.59h-1.3v-8.56h1.07l.15,1.58h.06a3.78,3.78,0,0,1,1.15-1.28A2.54,2.54,0,0,1,150,291.33Z" transform="translate(-10.61 -7.49)"/><path class="cls-3" d="M157.09,300.05l-.26-1.22h-.06a3.55,3.55,0,0,1-1.28,1.09,3.86,3.86,0,0,1-1.59.29,2.83,2.83,0,0,1-2-.66,2.38,2.38,0,0,1-.73-1.87c0-1.72,1.39-2.63,4.15-2.71l1.45-.05v-.53a2.17,2.17,0,0,0-.43-1.49,1.79,1.79,0,0,0-1.39-.48,5.74,5.74,0,0,0-2.42.65l-.4-1a6.27,6.27,0,0,1,1.39-.54,6,6,0,0,1,1.51-.19,3.23,3.23,0,0,1,2.27.68,2.84,2.84,0,0,1,.74,2.18v5.84Zm-2.93-.91a2.59,2.59,0,0,0,1.9-.67,2.45,2.45,0,0,0,.69-1.86v-.77l-1.29.05a4.65,4.65,0,0,0-2.23.49,1.43,1.43,0,0,0-.69,1.32,1.31,1.31,0,0,0,.43,1.07A1.73,1.73,0,0,0,154.16,299.14Z" transform="translate(-10.61 -7.49)"/><path class="cls-3" d="M160.61,289.17a.86.86,0,0,1,.22-.65.81.81,0,0,1,1.09,0,1.07,1.07,0,0,1,0,1.3.79.79,0,0,1-1.09,0A.89.89,0,0,1,160.61,289.17ZM162,300.05h-1.3v-8.56H162Z" transform="translate(-10.61 -7.49)"/><path class="cls-3" d="M170.63,300.05v-5.54a2.21,2.21,0,0,0-.48-1.56,2,2,0,0,0-1.49-.52,2.48,2.48,0,0,0-2,.73,3.64,3.64,0,0,0-.62,2.4v4.49h-1.3v-8.56h1l.21,1.17h.07a2.65,2.65,0,0,1,1.11-1,3.69,3.69,0,0,1,1.61-.35,3.22,3.22,0,0,1,2.32.75,3.14,3.14,0,0,1,.79,2.39v5.58Z" transform="translate(-10.61 -7.49)"/><path class="cls-3" d="M101.23,307.83v7.39a4,4,0,0,1-1.18,3.07,4.52,4.52,0,0,1-3.25,1.12,4.34,4.34,0,0,1-3.19-1.13,4.18,4.18,0,0,1-1.13-3.09v-7.36h1.33v7.45a2.94,2.94,0,0,0,.78,2.2,3.16,3.16,0,0,0,2.3.76,3,3,0,0,0,2.23-.77,2.94,2.94,0,0,0,.78-2.2v-7.44Z" transform="translate(-10.61 -7.49)"/><path class="cls-3" d="M111.85,319.25h-1.51l-3.07-5-3.12,5h-1.41l3.8-6L103,307.83h1.47l2.83,4.52,2.86-4.52h1.42L108,313.24Z" transform="translate(-10.61 -7.49)"/><path class="cls-3" d="M118.42,307.83l-4.25,11.42h-1.3l4.26-11.42Z" transform="translate(-10.61 -7.49)"/><path class="cls-3" d="M128.78,307.83v7.39a4,4,0,0,1-1.18,3.07,4.48,4.48,0,0,1-3.24,1.12,4.33,4.33,0,0,1-3.19-1.13,4.18,4.18,0,0,1-1.13-3.09v-7.36h1.33v7.45a2.94,2.94,0,0,0,.78,2.2,3.16,3.16,0,0,0,2.3.76,3,3,0,0,0,2.22-.77,2.94,2.94,0,0,0,.79-2.2v-7.44Z" transform="translate(-10.61 -7.49)"/><path class="cls-3" d="M131.81,319.25V307.83h1.32v11.42Z" transform="translate(-10.61 -7.49)"/><path class="cls-3" d="M146.87,316.21a2.81,2.81,0,0,1-1.09,2.35,4.7,4.7,0,0,1-3,.85,7.42,7.42,0,0,1-3.13-.53V317.6a8.36,8.36,0,0,0,3.17.64,3.26,3.26,0,0,0,2-.5,1.65,1.65,0,0,0,.68-1.4,1.82,1.82,0,0,0-.24-1,2.23,2.23,0,0,0-.8-.69,10.34,10.34,0,0,0-1.7-.73,5.49,5.49,0,0,1-2.28-1.35,3,3,0,0,1-.68-2,2.53,2.53,0,0,1,1-2.1,4.14,4.14,0,0,1,2.63-.78,7.67,7.67,0,0,1,3.13.62l-.41,1.16a7,7,0,0,0-2.75-.6,2.59,2.59,0,0,0-1.65.46,1.48,1.48,0,0,0-.6,1.25,2,2,0,0,0,.22,1,2.08,2.08,0,0,0,.74.69,9.09,9.09,0,0,0,1.59.7,6.29,6.29,0,0,1,2.47,1.38A2.7,2.7,0,0,1,146.87,316.21Z" transform="translate(-10.61 -7.49)"/><path class="cls-3" d="M150.29,314.87c.23-.32.57-.74,1-1.25l2.77-2.93h1.54l-3.47,3.65,3.71,4.91h-1.57l-3-4.05-1,.85v3.2H149V307.09h1.28v6.45c0,.29,0,.73-.06,1.33Z" transform="translate(-10.61 -7.49)"/><path class="cls-3" d="M157.3,308.37a.82.82,0,0,1,.22-.65.75.75,0,0,1,.54-.21.76.76,0,0,1,.54.21,1,1,0,0,1,0,1.3.77.77,0,0,1-.54.22.76.76,0,0,1-.54-.22A.85.85,0,0,1,157.3,308.37Zm1.41,10.88h-1.3v-8.56h1.3Z" transform="translate(-10.61 -7.49)"/><path class="cls-3" d="M162.75,319.25h-1.29V307.09h1.29Z" transform="translate(-10.61 -7.49)"/><path class="cls-3" d="M166.8,319.25h-1.3V307.09h1.3Z" transform="translate(-10.61 -7.49)"/><path class="cls-3" d="M175.07,316.92a2.13,2.13,0,0,1-.89,1.84,4.2,4.2,0,0,1-2.5.65,5.4,5.4,0,0,1-2.65-.54v-1.2a6.91,6.91,0,0,0,1.32.49,5.53,5.53,0,0,0,1.36.18,3.08,3.08,0,0,0,1.57-.33,1.12,1.12,0,0,0,.11-1.84,6.59,6.59,0,0,0-1.69-.84,9.16,9.16,0,0,1-1.7-.78,2.23,2.23,0,0,1-.75-.75,2.07,2.07,0,0,1,.6-2.66,3.94,3.94,0,0,1,2.34-.61,6.91,6.91,0,0,1,2.7.56l-.46,1.06a6.29,6.29,0,0,0-2.33-.53,2.69,2.69,0,0,0-1.39.29.88.88,0,0,0-.47.79,1,1,0,0,0,.17.59,1.73,1.73,0,0,0,.57.46,11.15,11.15,0,0,0,1.5.63,5.77,5.77,0,0,1,2.06,1.12A2,2,0,0,1,175.07,316.92Z" transform="translate(-10.61 -7.49)"/><rect class="cls-7" y="47.46" width="244.85" height="172.4" rx="12.67"/><rect class="cls-2" x="7.47" y="60.66" width="226.67" height="14.18"/><rect class="cls-8" x="7.47" y="60.66" width="201.09" height="14.18"/><rect class="cls-9" x="7.47" y="60.66" width="70.46" height="14.18"/><rect class="cls-2" x="7.47" y="86.57" width="226.67" height="14.18"/><rect class="cls-8" x="7.47" y="86.57" width="102.05" height="14.18"/><rect class="cls-9" x="7.47" y="86.57" width="70.46" height="14.18"/><rect class="cls-2" x="7.47" y="112.47" width="226.67" height="14.18"/><rect class="cls-8" x="7.47" y="112.47" width="149.98" height="14.18"/><rect class="cls-9" x="7.47" y="112.47" width="70.46" height="14.18"/><rect class="cls-8" x="7.47" y="138.38" width="226.67" height="14.18"/><rect class="cls-9" x="7.47" y="138.38" width="70.46" height="14.18"/><rect class="cls-8" x="7.47" y="164.28" width="226.67" height="14.18"/><rect class="cls-9" x="7.47" y="164.28" width="70.46" height="14.18"/><rect class="cls-8" x="7.47" y="190.19" width="226.67" height="14.18"/><rect class="cls-9" x="7.47" y="190.19" width="70.46" height="14.18"/><path class="cls-5" d="M40,72.32v2.51h2.91V72.32h.78v6h-.78V75.51H40v2.81H39.2v-6Z" transform="translate(-10.61 -7.49)"/><path class="cls-5" d="M46.15,73H44.32v-.66h4.45V73H46.93v5.34h-.78Z" transform="translate(-10.61 -7.49)"/><path class="cls-5" d="M54.5,75.69c0-.84-.1-1.85-.09-2.6h0c-.2.71-.45,1.45-.76,2.28l-1.06,2.92H52l-1-2.86c-.28-.85-.52-1.62-.69-2.34h0c0,.75-.06,1.76-.11,2.66L50,78.32h-.74l.41-6h1l1,2.9c.25.74.45,1.4.6,2h0c.15-.61.37-1.27.63-2L54,72.32h1l.38,6h-.76Z" transform="translate(-10.61 -7.49)"/><path class="cls-5" d="M56.6,72.32h.78v5.35h2.56v.65H56.6Z" transform="translate(-10.61 -7.49)"/><path class="cls-6" d="M224,77.77a2.9,2.9,0,0,0,.63,0,2.19,2.19,0,0,0,1.21-.56,2.52,2.52,0,0,0,.77-1.54h0a1.69,1.69,0,0,1-1.36.62,1.68,1.68,0,0,1-1.71-1.77,2,2,0,0,1,2-2.06c1.18,0,1.91,1,1.91,2.44a3.65,3.65,0,0,1-1,2.72,2.86,2.86,0,0,1-1.68.78,3.91,3.91,0,0,1-.72,0Zm.28-3.33a1.12,1.12,0,0,0,1.12,1.23,1.31,1.31,0,0,0,1.14-.61.55.55,0,0,0,.07-.28c0-1-.37-1.75-1.19-1.75C224.77,73,224.29,73.62,224.29,74.44Z" transform="translate(-10.61 -7.49)"/><path class="cls-6" d="M232,75.36c0,2-.73,3.06-2,3.06-1.13,0-1.9-1.06-1.91-3s.83-3,2-3S232,73.52,232,75.36Zm-3.14.09c0,1.51.46,2.37,1.18,2.37s1.18-.94,1.18-2.42S230.83,73,230,73,228.83,73.88,228.83,75.45Z" transform="translate(-10.61 -7.49)"/><path class="cls-6" d="M235.31,74.16c0,1.22-.64,1.83-1.39,1.83s-1.35-.58-1.36-1.75.64-1.81,1.4-1.81S235.31,73.06,235.31,74.16Zm-2.12.06c0,.74.26,1.3.75,1.3s.74-.56.74-1.32-.2-1.29-.74-1.29S233.19,73.48,233.19,74.22Zm.67,4.2,3.41-6h.5l-3.41,6Zm5.22-1.86c0,1.22-.64,1.83-1.38,1.83s-1.35-.58-1.36-1.74.63-1.82,1.4-1.82S239.08,75.45,239.08,76.56Zm-2.12,0c0,.74.27,1.3.75,1.3s.75-.55.75-1.32-.2-1.29-.75-1.29S237,75.88,237,76.61Z" transform="translate(-10.61 -7.49)"/><path class="cls-5" d="M32.67,98.22h.77v4c0,1.6-.78,2.09-1.82,2.09a2.56,2.56,0,0,1-.83-.15l.12-.63a1.88,1.88,0,0,0,.65.12c.69,0,1.11-.31,1.11-1.49Z" transform="translate(-10.61 -7.49)"/><path class="cls-5" d="M37.09,104.23l-.06-.55h0a1.6,1.6,0,0,1-1.31.65,1.23,1.23,0,0,1-1.32-1.24c0-1,.92-1.61,2.59-1.61v-.09a.89.89,0,0,0-1-1,2.1,2.1,0,0,0-1.12.32l-.18-.52a2.7,2.7,0,0,1,1.42-.38c1.31,0,1.64.9,1.64,1.76v1.61a5.55,5.55,0,0,0,.07,1ZM37,102c-.86,0-1.83.13-1.83,1a.69.69,0,0,0,.74.75,1.07,1.07,0,0,0,1-.72.74.74,0,0,0,0-.25Z" transform="translate(-10.61 -7.49)"/><path class="cls-5" d="M39.23,99.92l.85,2.42c.14.39.26.75.35,1.1h0c.1-.35.23-.71.37-1.1l.84-2.42h.82l-1.7,4.31H40L38.4,99.92Z" transform="translate(-10.61 -7.49)"/><path class="cls-5" d="M45.57,104.23l-.06-.55h0a1.6,1.6,0,0,1-1.32.65,1.23,1.23,0,0,1-1.32-1.24c0-1,.93-1.61,2.6-1.61v-.09a.89.89,0,0,0-1-1,2.16,2.16,0,0,0-1.13.32l-.17-.52a2.66,2.66,0,0,1,1.41-.38c1.32,0,1.64.9,1.64,1.76v1.61a6.54,6.54,0,0,0,.07,1Zm-.12-2.2c-.85,0-1.82.13-1.82,1a.69.69,0,0,0,.74.75,1.08,1.08,0,0,0,1-.72.73.73,0,0,0,0-.25Z" transform="translate(-10.61 -7.49)"/><path class="cls-5" d="M47.4,103.28a2.68,2.68,0,0,0,1.39.4c.79,0,1.25-.42,1.25-1s-.32-.88-1.13-1.19c-1-.35-1.58-.86-1.58-1.71a1.73,1.73,0,0,1,1.94-1.63,2.77,2.77,0,0,1,1.33.3l-.22.63a2.32,2.32,0,0,0-1.14-.28c-.82,0-1.13.49-1.13.9,0,.56.37.83,1.19,1.15,1,.4,1.54.89,1.54,1.77s-.69,1.73-2.11,1.73a3,3,0,0,1-1.53-.39Z" transform="translate(-10.61 -7.49)"/><path class="cls-5" d="M55,104.07a3,3,0,0,1-1.24.25,2.05,2.05,0,0,1-2.15-2.2,2.19,2.19,0,0,1,2.32-2.29,2.63,2.63,0,0,1,1.09.22l-.18.61a1.79,1.79,0,0,0-.91-.21,1.49,1.49,0,0,0-1.52,1.63,1.47,1.47,0,0,0,1.49,1.61,2.25,2.25,0,0,0,1-.21Z" transform="translate(-10.61 -7.49)"/><path class="cls-5" d="M55.92,101.26c0-.51,0-.94,0-1.34h.69l0,.84h0a1.29,1.29,0,0,1,1.19-.94l.23,0v.74l-.27,0a1.1,1.1,0,0,0-1.05,1,2.1,2.1,0,0,0,0,.37v2.3h-.77Z" transform="translate(-10.61 -7.49)"/><path class="cls-5" d="M59.74,98.7a.49.49,0,0,1-1,0,.48.48,0,0,1,.49-.49A.47.47,0,0,1,59.74,98.7Zm-.87,5.53V99.92h.78v4.31Z" transform="translate(-10.61 -7.49)"/><path class="cls-5" d="M61,101.32c0-.55,0-1,0-1.4h.7l0,.74h0a1.7,1.7,0,0,1,1.54-.84A2,2,0,0,1,65,102a2,2,0,0,1-2,2.32,1.49,1.49,0,0,1-1.32-.68h0V106H61Zm.78,1.15a2.69,2.69,0,0,0,0,.32,1.22,1.22,0,0,0,1.18.92c.83,0,1.31-.68,1.31-1.66s-.45-1.61-1.28-1.61a1.25,1.25,0,0,0-1.19,1,1.19,1.19,0,0,0-.05.32Z" transform="translate(-10.61 -7.49)"/><path class="cls-5" d="M67,98.68v1.24h1.12v.59H67v2.33c0,.53.15.84.59.84a1.57,1.57,0,0,0,.45-.06l0,.59a2,2,0,0,1-.7.11,1.08,1.08,0,0,1-.84-.33,1.56,1.56,0,0,1-.31-1.12v-2.36h-.67v-.59h.67v-1Z" transform="translate(-10.61 -7.49)"/><path class="cls-5" d="M47.78,129.94a4,4,0,0,1-1.59.28,2.8,2.8,0,0,1-3-3A3,3,0,0,1,46.36,124a3.2,3.2,0,0,1,1.43.27l-.19.63a2.84,2.84,0,0,0-1.21-.25,2.23,2.23,0,0,0-2.34,2.48,2.17,2.17,0,0,0,2.3,2.41,3,3,0,0,0,1.27-.25Z" transform="translate(-10.61 -7.49)"/><path class="cls-5" d="M48.64,129.19a2.81,2.81,0,0,0,1.39.39c.8,0,1.26-.42,1.26-1s-.32-.88-1.13-1.2c-1-.34-1.59-.85-1.59-1.7A1.73,1.73,0,0,1,50.51,124a2.73,2.73,0,0,1,1.33.29l-.21.64a2.37,2.37,0,0,0-1.14-.29c-.82,0-1.13.49-1.13.9,0,.56.36.84,1.19,1.16,1,.39,1.53.88,1.53,1.77s-.68,1.72-2.1,1.72a3.13,3.13,0,0,1-1.53-.38Z" transform="translate(-10.61 -7.49)"/><path class="cls-5" d="M53,129.19a2.78,2.78,0,0,0,1.39.39c.79,0,1.25-.42,1.25-1s-.32-.88-1.13-1.2c-1-.34-1.58-.85-1.58-1.7A1.73,1.73,0,0,1,54.91,124a2.79,2.79,0,0,1,1.33.29L56,125a2.3,2.3,0,0,0-1.14-.29c-.82,0-1.13.49-1.13.9,0,.56.37.84,1.19,1.16,1,.39,1.54.88,1.54,1.77s-.69,1.72-2.11,1.72a3.16,3.16,0,0,1-1.53-.38Z" transform="translate(-10.61 -7.49)"/><path class="cls-5" d="M36.77,156l-2-6h.84l.93,3c.26.81.49,1.55.65,2.25h0c.17-.7.42-1.45.69-2.24l1-3h.82l-2.14,6Z" transform="translate(-10.61 -7.49)"/><path class="cls-5" d="M40.32,155.1a2.78,2.78,0,0,0,1.39.39c.79,0,1.26-.42,1.26-1s-.33-.88-1.14-1.19c-1-.35-1.58-.86-1.58-1.7a1.72,1.72,0,0,1,1.94-1.63,2.76,2.76,0,0,1,1.33.29l-.22.63a2.44,2.44,0,0,0-1.14-.28c-.82,0-1.13.49-1.13.9,0,.56.37.84,1.2,1.16,1,.39,1.53.88,1.53,1.76s-.69,1.73-2.1,1.73a3.17,3.17,0,0,1-1.54-.38Z" transform="translate(-10.61 -7.49)"/><path class="cls-5" d="M49,155.84a3.75,3.75,0,0,1-1.59.29,2.81,2.81,0,0,1-3-3,3,3,0,0,1,3.14-3.15,3.4,3.4,0,0,1,1.43.26l-.19.64a2.69,2.69,0,0,0-1.21-.25,2.23,2.23,0,0,0-2.35,2.47,2.18,2.18,0,0,0,2.31,2.42,3.15,3.15,0,0,0,1.27-.25Z" transform="translate(-10.61 -7.49)"/><path class="cls-5" d="M53.77,153.85a2.11,2.11,0,0,1-2.15,2.29,2.05,2.05,0,0,1-2.07-2.22,2.11,2.11,0,0,1,2.14-2.29A2,2,0,0,1,53.77,153.85Zm-3.42,0c0,1,.54,1.66,1.31,1.66s1.31-.7,1.31-1.67c0-.74-.37-1.66-1.3-1.66S50.35,153.07,50.35,153.89Z" transform="translate(-10.61 -7.49)"/><path class="cls-5" d="M58.48,149.71v5.22c0,.38,0,.82,0,1.11h-.71l0-.75h0a1.6,1.6,0,0,1-1.47.85A2,2,0,0,1,54.45,154a2.06,2.06,0,0,1,1.93-2.32,1.44,1.44,0,0,1,1.3.66h0v-2.58Zm-.78,3.77a1.29,1.29,0,0,0,0-.33,1.14,1.14,0,0,0-1.13-.9c-.81,0-1.29.71-1.29,1.66s.43,1.6,1.27,1.6a1.18,1.18,0,0,0,1.15-.94,1.22,1.22,0,0,0,0-.34Z" transform="translate(-10.61 -7.49)"/><path class="cls-5" d="M60.22,154a1.38,1.38,0,0,0,1.48,1.49,2.73,2.73,0,0,0,1.19-.22l.14.56a3.43,3.43,0,0,1-1.44.27A2,2,0,0,1,59.47,154a2.09,2.09,0,0,1,2-2.33,1.83,1.83,0,0,1,1.79,2,2.73,2.73,0,0,1,0,.37Zm2.3-.56a1.12,1.12,0,0,0-1.09-1.28,1.3,1.3,0,0,0-1.2,1.28Z" transform="translate(-10.61 -7.49)"/><path class="cls-5" d="M35.31,181.68a5.78,5.78,0,0,1-1.85.33,2.81,2.81,0,0,1-3.08-3,3,3,0,0,1,3.25-3.1,3.83,3.83,0,0,1,1.5.27l-.19.64a3,3,0,0,0-1.33-.26,2.24,2.24,0,0,0-2.41,2.41,2.2,2.2,0,0,0,2.31,2.43,2.55,2.55,0,0,0,1-.16v-1.79H33.33v-.63h2Z" transform="translate(-10.61 -7.49)"/><path class="cls-5" d="M37.34,176.42a.49.49,0,0,1-1,0,.47.47,0,0,1,.49-.49A.46.46,0,0,1,37.34,176.42ZM36.46,182v-4.32h.79V182Z" transform="translate(-10.61 -7.49)"/><path class="cls-5" d="M39.49,176.39v1.24h1.13v.6H39.49v2.33c0,.53.16.83.59.83a1.67,1.67,0,0,0,.46,0l0,.59a1.94,1.94,0,0,1-.69.11,1.11,1.11,0,0,1-.85-.33,1.64,1.64,0,0,1-.3-1.13v-2.35h-.67v-.6h.67v-1Z" transform="translate(-10.61 -7.49)"/><path class="cls-5" d="M41.53,175.94h.77v2.9h0c.16-.24.32-.45.47-.65l1.84-2.25h1l-2.18,2.55L45.77,182h-.92l-2-2.95-.57.66V182h-.77Z" transform="translate(-10.61 -7.49)"/><path class="cls-5" d="M46.42,179c0-.51,0-.95,0-1.35h.69l0,.85h0a1.29,1.29,0,0,1,1.2-.94.75.75,0,0,1,.22,0v.74a1.06,1.06,0,0,0-.27,0,1.1,1.1,0,0,0-1.05,1,2,2,0,0,0,0,.37V182h-.77Z" transform="translate(-10.61 -7.49)"/><path class="cls-5" d="M51.68,182l-.06-.55h0a1.61,1.61,0,0,1-1.32.64A1.23,1.23,0,0,1,49,180.81c0-1.05.93-1.62,2.59-1.61v-.09a.89.89,0,0,0-1-1,2.1,2.1,0,0,0-1.12.33l-.18-.52a2.72,2.72,0,0,1,1.42-.38c1.32,0,1.64.9,1.64,1.76v1.61a6.54,6.54,0,0,0,.07,1Zm-.12-2.2c-.85,0-1.82.13-1.82,1a.68.68,0,0,0,.73.74,1.07,1.07,0,0,0,1.05-.72,1.09,1.09,0,0,0,0-.25Z" transform="translate(-10.61 -7.49)"/><path class="cls-5" d="M54.36,179.61h0l.38-.49L56,177.63H57l-1.67,1.78L57.2,182h-1l-1.49-2.07-.4.44V182h-.77v-6.33h.77Z" transform="translate(-10.61 -7.49)"/><path class="cls-5" d="M58.2,179.93a1.39,1.39,0,0,0,1.48,1.5,3,3,0,0,0,1.2-.22l.13.56a3.6,3.6,0,0,1-1.44.27,2,2,0,0,1-2.12-2.18,2.09,2.09,0,0,1,2-2.32,1.83,1.83,0,0,1,1.78,2,2.55,2.55,0,0,1,0,.36Zm2.3-.56a1.11,1.11,0,0,0-1.09-1.27,1.3,1.3,0,0,0-1.2,1.27Z" transform="translate(-10.61 -7.49)"/><path class="cls-5" d="M62.23,178.8c0-.45,0-.81,0-1.17h.7l0,.72h0a1.6,1.6,0,0,1,1.43-.81c.6,0,1.52.35,1.52,1.83V182h-.78v-2.49c0-.69-.26-1.27-1-1.27a1.1,1.1,0,0,0-1.05.8,1,1,0,0,0-.06.36V182h-.78Z" transform="translate(-10.61 -7.49)"/><path class="cls-5" d="M30.28,201.93a6.87,6.87,0,0,1,1.42-.13,2.47,2.47,0,0,1,1.65.44,1.26,1.26,0,0,1,.5,1.06,1.44,1.44,0,0,1-1,1.32h0a1.58,1.58,0,0,1,.73,2.71,3,3,0,0,1-2.07.57,8.16,8.16,0,0,1-1.21-.08Zm.78,2.45h.7c.82,0,1.3-.42,1.3-1s-.53-1-1.32-1a3.12,3.12,0,0,0-.68,0Zm0,2.88a3.65,3.65,0,0,0,.65,0c.8,0,1.54-.3,1.54-1.17S32.55,205,31.7,205h-.64Z" transform="translate(-10.61 -7.49)"/><path class="cls-5" d="M39,205.66A2.11,2.11,0,0,1,36.88,208a2.05,2.05,0,0,1-2.07-2.22A2.11,2.11,0,0,1,37,203.44,2,2,0,0,1,39,205.66Zm-3.43,0c0,1,.55,1.66,1.31,1.66s1.31-.7,1.31-1.67c0-.73-.36-1.66-1.29-1.66S35.6,204.88,35.6,205.7Z" transform="translate(-10.61 -7.49)"/><path class="cls-5" d="M43.92,205.66A2.11,2.11,0,0,1,41.77,208a2.05,2.05,0,0,1-2.07-2.22,2.11,2.11,0,0,1,2.14-2.29A2,2,0,0,1,43.92,205.66Zm-3.42,0c0,1,.54,1.66,1.31,1.66s1.31-.7,1.31-1.67c0-.73-.37-1.66-1.3-1.66S40.5,204.88,40.5,205.7Z" transform="translate(-10.61 -7.49)"/><path class="cls-5" d="M45.85,202.3v1.24H47v.6H45.85v2.32c0,.54.15.84.59.84a2.18,2.18,0,0,0,.46-.05l0,.58a1.73,1.73,0,0,1-.69.11,1.07,1.07,0,0,1-.85-.33,1.6,1.6,0,0,1-.3-1.12v-2.35h-.67v-.6h.67v-1Z" transform="translate(-10.61 -7.49)"/><path class="cls-5" d="M47.75,207.05a2.06,2.06,0,0,0,1,.31c.58,0,.84-.28.84-.64s-.22-.58-.8-.79c-.77-.28-1.14-.71-1.14-1.22a1.33,1.33,0,0,1,1.49-1.27,2.2,2.2,0,0,1,1.06.27l-.2.57a1.65,1.65,0,0,0-.88-.25c-.46,0-.72.27-.72.59s.26.51.82.73c.75.28,1.13.66,1.13,1.3s-.59,1.29-1.61,1.29a2.43,2.43,0,0,1-1.21-.29Z" transform="translate(-10.61 -7.49)"/><path class="cls-5" d="M52.33,202.3v1.24h1.12v.6H52.33v2.32c0,.54.15.84.59.84a2,2,0,0,0,.45-.05l0,.58a1.76,1.76,0,0,1-.7.11,1.06,1.06,0,0,1-.84-.33,1.6,1.6,0,0,1-.3-1.12v-2.35H50.9v-.6h.67v-1Z" transform="translate(-10.61 -7.49)"/><path class="cls-5" d="M54.34,204.88c0-.5,0-.94,0-1.34H55l0,.84h0a1.31,1.31,0,0,1,1.19-.94.8.8,0,0,1,.23,0v.74a1.06,1.06,0,0,0-.27,0,1.1,1.1,0,0,0-1.05,1,1.88,1.88,0,0,0,0,.36v2.3h-.77Z" transform="translate(-10.61 -7.49)"/><path class="cls-5" d="M59.6,207.85l-.07-.54h0a1.61,1.61,0,0,1-1.32.64,1.23,1.23,0,0,1-1.32-1.24c0-1,.93-1.61,2.59-1.6V205a.89.89,0,0,0-1-1,2.1,2.1,0,0,0-1.12.32l-.18-.52a2.7,2.7,0,0,1,1.42-.38c1.32,0,1.64.9,1.64,1.77v1.61a5.44,5.44,0,0,0,.07,1Zm-.12-2.2c-.86,0-1.83.13-1.83,1a.69.69,0,0,0,.74.75,1,1,0,0,0,1.09-1Z" transform="translate(-10.61 -7.49)"/><path class="cls-5" d="M61.5,205c0-.56,0-1,0-1.41h.7l0,.74h0a1.7,1.7,0,0,1,1.54-.84,2,2,0,0,1,1.82,2.19,2,2,0,0,1-2,2.32,1.49,1.49,0,0,1-1.32-.68h0v2.35H61.5Zm.78,1.15a3.16,3.16,0,0,0,0,.32,1.22,1.22,0,0,0,1.18.91c.83,0,1.31-.67,1.31-1.66s-.45-1.61-1.28-1.61a1.26,1.26,0,0,0-1.19,1,1.53,1.53,0,0,0,0,.32Z" transform="translate(-10.61 -7.49)"/><path class="cls-8" d="M98.85,19.73V8.31h1.33V18.53h5v1.2Z" transform="translate(-10.61 -7.49)"/><path class="cls-8" d="M110.58,19.89a3.94,3.94,0,0,1-3-1.16,4.48,4.48,0,0,1-1.1-3.21,5,5,0,0,1,1-3.29A3.39,3.39,0,0,1,110.24,11a3.23,3.23,0,0,1,2.55,1.06,4.07,4.07,0,0,1,.93,2.79v.82h-5.89a3.36,3.36,0,0,0,.76,2.29,2.63,2.63,0,0,0,2,.78,6.85,6.85,0,0,0,2.74-.58v1.16a7.3,7.3,0,0,1-1.3.43A7.82,7.82,0,0,1,110.58,19.89Zm-.36-7.79a2.11,2.11,0,0,0-1.64.67,3.08,3.08,0,0,0-.72,1.86h4.47a2.87,2.87,0,0,0-.54-1.88A1.93,1.93,0,0,0,110.22,12.1Z" transform="translate(-10.61 -7.49)"/><path class="cls-8" d="M119,12.17h-2.18v7.56h-1.29V12.17H114v-.58l1.53-.47v-.48q0-3.15,2.76-3.15a5.74,5.74,0,0,1,1.59.27l-.34,1a4.29,4.29,0,0,0-1.28-.24,1.22,1.22,0,0,0-1.08.49,2.64,2.64,0,0,0-.36,1.56v.56H119Z" transform="translate(-10.61 -7.49)"/><path class="cls-8" d="M124.12,18.82a3.71,3.71,0,0,0,.67-.06,3.11,3.11,0,0,0,.5-.1v1a2.4,2.4,0,0,1-.62.17,5.24,5.24,0,0,1-.73.07c-1.66,0-2.49-.88-2.49-2.62v-5.1h-1.23v-.62l1.23-.54L122,9.18h.75v2h2.48v1h-2.48v5a1.76,1.76,0,0,0,.36,1.19A1.29,1.29,0,0,0,124.12,18.82Z" transform="translate(-10.61 -7.49)"/><path class="cls-8" d="M131.36,8.31h3.22a6,6,0,0,1,3.29.68,2.39,2.39,0,0,1,1,2.15,2.47,2.47,0,0,1-.57,1.67,2.74,2.74,0,0,1-1.65.86v.07c1.73.3,2.6,1.21,2.6,2.74a2.93,2.93,0,0,1-1,2.39,4.44,4.44,0,0,1-2.9.86h-4Zm1.33,4.89h2.18a3.64,3.64,0,0,0,2-.44,1.71,1.71,0,0,0,.61-1.49,1.53,1.53,0,0,0-.68-1.39,4.36,4.36,0,0,0-2.19-.42h-1.95Zm0,1.12V18.6h2.38a3.38,3.38,0,0,0,2.08-.54,2,2,0,0,0,.7-1.67,1.79,1.79,0,0,0-.72-1.57,3.82,3.82,0,0,0-2.17-.5Z" transform="translate(-10.61 -7.49)"/><path class="cls-8" d="M145.44,11a5.23,5.23,0,0,1,1,.09l-.18,1.21a4.32,4.32,0,0,0-.94-.12,2.31,2.31,0,0,0-1.78.84,3.11,3.11,0,0,0-.73,2.11v4.59h-1.3V11.17h1.07l.15,1.58h.06A3.92,3.92,0,0,1,144,11.46,2.61,2.61,0,0,1,145.44,11Z" transform="translate(-10.61 -7.49)"/><path class="cls-8" d="M153.33,19.73l-.26-1.22H153a3.63,3.63,0,0,1-1.28,1.09,3.93,3.93,0,0,1-1.59.29,2.86,2.86,0,0,1-2-.66,2.4,2.4,0,0,1-.72-1.87c0-1.73,1.38-2.63,4.15-2.72l1.45,0v-.53a2.16,2.16,0,0,0-.43-1.49,1.79,1.79,0,0,0-1.39-.48,5.74,5.74,0,0,0-2.42.65l-.4-1a6.16,6.16,0,0,1,2.9-.73,3.23,3.23,0,0,1,2.27.68,2.84,2.84,0,0,1,.74,2.18v5.84Zm-2.93-.91a2.65,2.65,0,0,0,1.9-.67,2.45,2.45,0,0,0,.69-1.86v-.77l-1.3.05a4.83,4.83,0,0,0-2.23.48,1.47,1.47,0,0,0-.68,1.33,1.35,1.35,0,0,0,.42,1.07A1.83,1.83,0,0,0,150.4,18.82Z" transform="translate(-10.61 -7.49)"/><path class="cls-8" d="M156.85,8.85a.86.86,0,0,1,.22-.66.78.78,0,0,1,.54-.2.76.76,0,0,1,.54.21.84.84,0,0,1,.23.65.86.86,0,0,1-.23.65.76.76,0,0,1-.54.21.75.75,0,0,1-.54-.21A.85.85,0,0,1,156.85,8.85Zm1.41,10.88H157V11.17h1.3Z" transform="translate(-10.61 -7.49)"/><path class="cls-8" d="M166.86,19.73V14.19a2.21,2.21,0,0,0-.47-1.56,1.93,1.93,0,0,0-1.49-.52,2.43,2.43,0,0,0-2,.73,3.63,3.63,0,0,0-.63,2.4v4.49H161V11.17h1.05l.21,1.17h.06a2.68,2.68,0,0,1,1.12-1,3.65,3.65,0,0,1,1.6-.35,3.25,3.25,0,0,1,2.33.75,3.16,3.16,0,0,1,.78,2.38v5.59Z" transform="translate(-10.61 -7.49)"/><path class="cls-8" d="M85.17,33.11a5.73,5.73,0,0,1-1.54,4.32,6,6,0,0,1-4.41,1.5H76.05V27.51h3.5a5.12,5.12,0,0,1,5.62,5.6Zm-1.41,0a4.59,4.59,0,0,0-1.12-3.37,4.48,4.48,0,0,0-3.33-1.13H77.38v9.12H79a4.92,4.92,0,0,0,3.57-1.17A4.64,4.64,0,0,0,83.76,33.16Z" transform="translate(-10.61 -7.49)"/><path class="cls-8" d="M91.14,39.09a3.94,3.94,0,0,1-3-1.16A4.48,4.48,0,0,1,87,34.72a5,5,0,0,1,1-3.29,3.41,3.41,0,0,1,2.74-1.22,3.22,3.22,0,0,1,2.55,1.06,4.08,4.08,0,0,1,.94,2.79v.82h-5.9a3.36,3.36,0,0,0,.76,2.29,2.64,2.64,0,0,0,2,.78,6.8,6.8,0,0,0,2.73-.58v1.16a7,7,0,0,1-1.3.43A7.75,7.75,0,0,1,91.14,39.09Zm-.35-7.79a2.12,2.12,0,0,0-1.65.67,3.08,3.08,0,0,0-.72,1.86H92.9A2.87,2.87,0,0,0,92.35,32,1.92,1.92,0,0,0,90.79,31.3Z" transform="translate(-10.61 -7.49)"/><path class="cls-8" d="M98.37,38.93l-3.25-8.56h1.39l1.85,5.07a24.24,24.24,0,0,1,.73,2.32h.06A17.31,17.31,0,0,1,99.7,36c.3-.86,1-2.76,2-5.67h1.39l-3.25,8.56Z" transform="translate(-10.61 -7.49)"/><path class="cls-8" d="M108.13,39.09a4,4,0,0,1-3-1.16A4.48,4.48,0,0,1,104,34.72a5,5,0,0,1,1-3.29,3.39,3.39,0,0,1,2.73-1.22,3.21,3.21,0,0,1,2.55,1.06,4,4,0,0,1,.94,2.79v.82h-5.9a3.42,3.42,0,0,0,.76,2.29,2.64,2.64,0,0,0,2,.78,6.8,6.8,0,0,0,2.73-.58v1.16a7,7,0,0,1-1.3.43A7.75,7.75,0,0,1,108.13,39.09Zm-.35-7.79a2.12,2.12,0,0,0-1.65.67,3.14,3.14,0,0,0-.72,1.86h4.48a2.81,2.81,0,0,0-.55-1.88A1.89,1.89,0,0,0,107.78,31.3Z" transform="translate(-10.61 -7.49)"/><path class="cls-8" d="M114.79,38.93h-1.3V26.77h1.3Z" transform="translate(-10.61 -7.49)"/><path class="cls-8" d="M124.93,34.64a4.68,4.68,0,0,1-1.06,3.27A3.72,3.72,0,0,1,121,39.09a3.84,3.84,0,0,1-2-.54A3.66,3.66,0,0,1,117.54,37a5.43,5.43,0,0,1-.48-2.36,4.7,4.7,0,0,1,1-3.26,3.67,3.67,0,0,1,2.9-1.17,3.63,3.63,0,0,1,2.86,1.2A4.71,4.71,0,0,1,124.93,34.64Zm-6.53,0a4,4,0,0,0,.66,2.5,2.6,2.6,0,0,0,3.86,0,4,4,0,0,0,.66-2.5,4,4,0,0,0-.66-2.48,2.31,2.31,0,0,0-2-.85,2.28,2.28,0,0,0-1.92.84A4,4,0,0,0,118.4,34.64Z" transform="translate(-10.61 -7.49)"/><path class="cls-8" d="M131.19,39.09a3.8,3.8,0,0,1-1.53-.31,3,3,0,0,1-1.16-1h-.1a10.19,10.19,0,0,1,.1,1.42v3.52h-1.3V30.37h1.06l.18,1.17h.06a3,3,0,0,1,1.16-1,3.51,3.51,0,0,1,1.53-.31,3.16,3.16,0,0,1,2.62,1.16,5.13,5.13,0,0,1,.93,3.27,5.08,5.08,0,0,1-.94,3.28A3.17,3.17,0,0,1,131.19,39.09ZM131,31.31a2.28,2.28,0,0,0-1.9.73,3.72,3.72,0,0,0-.6,2.31v.29a4.3,4.3,0,0,0,.6,2.58A2.28,2.28,0,0,0,131,38a2,2,0,0,0,1.74-.9,4.25,4.25,0,0,0,.63-2.48,4.09,4.09,0,0,0-.63-2.45A2.08,2.08,0,0,0,131,31.31Z" transform="translate(-10.61 -7.49)"/><path class="cls-8" d="M140.62,39.09a3.93,3.93,0,0,1-3-1.16,4.44,4.44,0,0,1-1.1-3.21,5,5,0,0,1,1-3.29,3.39,3.39,0,0,1,2.74-1.22,3.2,3.2,0,0,1,2.54,1.06,4,4,0,0,1,.94,2.79v.82h-5.9a3.42,3.42,0,0,0,.76,2.29,2.65,2.65,0,0,0,2,.78,6.8,6.8,0,0,0,2.73-.58v1.16a6.81,6.81,0,0,1-1.3.43A7.75,7.75,0,0,1,140.62,39.09Zm-.35-7.79a2.1,2.1,0,0,0-1.64.67,3.15,3.15,0,0,0-.73,1.86h4.48a2.81,2.81,0,0,0-.55-1.88A1.89,1.89,0,0,0,140.27,31.3Z" transform="translate(-10.61 -7.49)"/><path class="cls-8" d="M149.89,30.21a5.23,5.23,0,0,1,1,.09l-.18,1.21a4.24,4.24,0,0,0-.94-.12,2.27,2.27,0,0,0-1.77.84,3.12,3.12,0,0,0-.74,2.11v4.59H146V30.37h1.07L147.2,32h.06a3.92,3.92,0,0,1,1.15-1.29A2.61,2.61,0,0,1,149.89,30.21Z" transform="translate(-10.61 -7.49)"/><path class="cls-8" d="M163.31,35.89a2.78,2.78,0,0,1-1.09,2.35,4.76,4.76,0,0,1-3,.85,7.42,7.42,0,0,1-3.13-.53V37.28a8.56,8.56,0,0,0,1.53.47,8.46,8.46,0,0,0,1.64.17,3.33,3.33,0,0,0,2-.5A1.67,1.67,0,0,0,162,36a1.82,1.82,0,0,0-.24-1,2.35,2.35,0,0,0-.8-.7,11.47,11.47,0,0,0-1.7-.72A5.49,5.49,0,0,1,157,32.27a3,3,0,0,1-.68-2,2.57,2.57,0,0,1,1-2.11,4.16,4.16,0,0,1,2.63-.78A7.68,7.68,0,0,1,163,28l-.41,1.15a7.21,7.21,0,0,0-2.75-.59,2.65,2.65,0,0,0-1.65.45,1.51,1.51,0,0,0-.6,1.26,2,2,0,0,0,.22,1,2.09,2.09,0,0,0,.74.7,9.92,9.92,0,0,0,1.59.7A6.29,6.29,0,0,1,162.63,34,2.68,2.68,0,0,1,163.31,35.89Z" transform="translate(-10.61 -7.49)"/><path class="cls-8" d="M166.73,34.55a15.16,15.16,0,0,1,1-1.25l2.76-2.93h1.54L168.59,34l3.71,4.91h-1.57l-3-4-1,.85v3.2h-1.28V26.77h1.28v6.45c0,.28,0,.73-.06,1.33Z" transform="translate(-10.61 -7.49)"/><path class="cls-8" d="M173.74,28.05a.86.86,0,0,1,.22-.66.79.79,0,0,1,.55-.2.76.76,0,0,1,.53.21.81.81,0,0,1,.23.65.82.82,0,0,1-.23.65.8.8,0,0,1-1.08,0A.85.85,0,0,1,173.74,28.05Zm1.41,10.88h-1.3V30.37h1.3Z" transform="translate(-10.61 -7.49)"/><path class="cls-8" d="M179.19,38.93H177.9V26.77h1.29Z" transform="translate(-10.61 -7.49)"/><path class="cls-8" d="M183.24,38.93h-1.3V26.77h1.3Z" transform="translate(-10.61 -7.49)"/><path class="cls-8" d="M191.51,36.59a2.15,2.15,0,0,1-.89,1.85,4.18,4.18,0,0,1-2.5.65,5.4,5.4,0,0,1-2.65-.54V37.34a6.32,6.32,0,0,0,1.32.5,5.53,5.53,0,0,0,1.36.18,3.08,3.08,0,0,0,1.57-.33,1.07,1.07,0,0,0,.54-1,1.05,1.05,0,0,0-.43-.85,6.59,6.59,0,0,0-1.69-.84,9.49,9.49,0,0,1-1.7-.78,2.23,2.23,0,0,1-.75-.75,2,2,0,0,1-.25-1,1.93,1.93,0,0,1,.85-1.65,3.94,3.94,0,0,1,2.34-.61,6.91,6.91,0,0,1,2.7.56l-.46,1.06a6.1,6.1,0,0,0-2.33-.53,2.59,2.59,0,0,0-1.39.29.87.87,0,0,0-.47.79,1,1,0,0,0,.17.59,1.87,1.87,0,0,0,.57.46,12.69,12.69,0,0,0,1.5.63A5.53,5.53,0,0,1,191,35.18,2,2,0,0,1,191.51,36.59Z" transform="translate(-10.61 -7.49)"/></svg>